<?xml version="1.0" encoding="utf-8"?>
<!-- Generator: Adobe Illustrator 16.0.0, SVG Export Plug-In . SVG Version: 6.00 Build 0)  -->
<!DOCTYPE svg PUBLIC "-//W3C//DTD SVG 1.1//EN" "http://www.w3.org/Graphics/SVG/1.1/DTD/svg11.dtd">
<svg version="1.1" id="Layer_1" xmlns="http://www.w3.org/2000/svg" xmlns:xlink="http://www.w3.org/1999/xlink" x="0px" y="0px"
	 width="3683.265px" height="3371.325px" viewBox="5008.083 611.423 3683.265 3371.325"
	 enable-background="new 5008.083 611.423 3683.265 3371.325" xml:space="preserve">
<path fill="#7EB43B" d="M7859.077,2324.378c0,508.798-412.464,921.261-921.259,921.261c-508.799,0-921.261-412.463-921.261-921.261
	c0-508.797,412.461-921.259,921.261-921.259C7446.613,1403.119,7859.077,1815.581,7859.077,2324.378z"/>
<g>
	<linearGradient id="SVGID_1_" gradientUnits="userSpaceOnUse" x1="4556.501" y1="167.5093" x2="8924.5029" y2="4535.5112">
		<stop  offset="0" style="stop-color:#FFFFFF"/>
		<stop  offset="1" style="stop-color:#000000"/>
	</linearGradient>
	<path fill="url(#SVGID_1_)" d="M7858.319,3311.382c-28.078-28.078-73.601-28.082-101.678-0.004l-56.27,56.27
		c-28.078,28.078-28.077,73.602,0.002,101.68l56.268,56.266c28.077,28.078,73.6,28.078,101.678,0l56.27-56.266
		c28.077-28.078,28.075-73.602-0.003-101.68L7858.319,3311.382z"/>
	<linearGradient id="SVGID_2_" gradientUnits="userSpaceOnUse" x1="3587.5444" y1="1136.4863" x2="7955.5522" y2="5504.4941">
		<stop  offset="0" style="stop-color:#FFFFFF"/>
		<stop  offset="1" style="stop-color:#000000"/>
	</linearGradient>
	<path fill="url(#SVGID_2_)" d="M5576.03,2967.023c-28.078-28.078-73.6-28.074-101.678,0.004l-56.267,56.27
		c-28.078,28.078-28.08,73.598-0.003,101.676l56.27,56.27c28.079,28.078,73.6,28.078,101.678,0l56.268-56.27
		c28.078-28.078,28.08-73.598,0.001-101.676L5576.03,2967.023z"/>
	<linearGradient id="SVGID_3_" gradientUnits="userSpaceOnUse" x1="3819.6958" y1="904.3281" x2="8187.7036" y2="5272.3359">
		<stop  offset="0" style="stop-color:#FFFFFF"/>
		<stop  offset="1" style="stop-color:#000000"/>
	</linearGradient>
	<path fill="url(#SVGID_3_)" d="M6425.149,3351.836c-28.079-28.078-73.599-28.078-101.676,0l-56.27,56.27
		c-28.078,28.078-28.078,73.598,0,101.676l56.27,56.27c28.078,28.078,73.597,28.078,101.676,0l56.269-56.27
		c28.079-28.078,28.079-73.598,0-101.676L6425.149,3351.836z"/>
	<linearGradient id="SVGID_4_" gradientUnits="userSpaceOnUse" x1="4012.6543" y1="711.3755" x2="8380.6504" y2="5079.3711">
		<stop  offset="0" style="stop-color:#FFFFFF"/>
		<stop  offset="1" style="stop-color:#000000"/>
	</linearGradient>
	<path fill="url(#SVGID_4_)" d="M7194.979,3735.75c-28.077-28.078-73.601-28.078-101.681,0l-56.267,56.27
		c-28.079,28.078-28.079,73.602,0,101.68l56.267,56.27c28.08,28.078,73.604,28.078,101.681,0l56.267-56.27
		c28.08-28.082,28.08-73.598,0-101.68L7194.979,3735.75z"/>
	<linearGradient id="SVGID_5_" gradientUnits="userSpaceOnUse" x1="3974.2622" y1="749.7646" x2="8342.2578" y2="5117.7598">
		<stop  offset="0" style="stop-color:#FFFFFF"/>
		<stop  offset="1" style="stop-color:#000000"/>
	</linearGradient>
	<path fill="url(#SVGID_5_)" d="M5579.535,2197.09c-28.078-28.078-73.6-28.074-101.677,0.004l-56.268,56.266
		c-28.08,28.078-28.08,73.602-0.002,101.68l56.27,56.266c28.077,28.078,73.597,28.078,101.677,0l56.268-56.266
		c28.079-28.078,28.08-73.602,0.002-101.68L5579.535,2197.09z"/>
	<linearGradient id="SVGID_6_" gradientUnits="userSpaceOnUse" x1="4167.2192" y1="556.8076" x2="8535.2246" y2="4924.813">
		<stop  offset="0" style="stop-color:#FFFFFF"/>
		<stop  offset="1" style="stop-color:#000000"/>
	</linearGradient>
	<path fill="url(#SVGID_6_)" d="M5196.616,1428.258c-28.078-28.078-73.601-28.078-101.678,0l-56.27,56.27
		c-28.078,28.078-28.076,73.598,0.002,101.676l56.268,56.27c28.077,28.078,73.6,28.082,101.678,0.004l56.27-56.273
		c28.078-28.078,28.076-73.598-0.002-101.676L5196.616,1428.258z"/>
	<linearGradient id="SVGID_7_" gradientUnits="userSpaceOnUse" x1="5031.0386" y1="-307.0273" x2="9399.041" y2="4060.9746">
		<stop  offset="0" style="stop-color:#FFFFFF"/>
		<stop  offset="1" style="stop-color:#000000"/>
	</linearGradient>
	<path fill="url(#SVGID_7_)" d="M8648.203,3152.194l-56.268-56.27c-28.078-28.078-73.6-28.078-101.678,0l-56.27,56.27
		c-28.078,28.078-28.076,73.598,0.002,101.676l56.268,56.27c28.078,28.078,73.6,28.082,101.678,0.004l56.27-56.273
		C8676.283,3225.792,8676.281,3180.272,8648.203,3152.194z"/>
	<linearGradient id="SVGID_8_" gradientUnits="userSpaceOnUse" x1="3510.3433" y1="1213.6699" x2="7878.3452" y2="5581.6719">
		<stop  offset="0" style="stop-color:#FFFFFF"/>
		<stop  offset="1" style="stop-color:#000000"/>
	</linearGradient>
	<path fill="url(#SVGID_8_)" d="M5892.476,3437.856c-28.078-28.078-73.6-28.078-101.678,0l-56.27,56.27
		c-28.078,28.078-28.077,73.598,0.002,101.676l56.268,56.27c28.078,28.078,73.6,28.082,101.678,0.004l56.27-56.273
		c28.078-28.078,28.076-73.598-0.002-101.676L5892.476,3437.856z"/>
	<linearGradient id="SVGID_9_" gradientUnits="userSpaceOnUse" x1="4550.1382" y1="173.8887" x2="8918.1465" y2="4541.8965">
		<stop  offset="0" style="stop-color:#FFFFFF"/>
		<stop  offset="1" style="stop-color:#000000"/>
	</linearGradient>
	<path fill="url(#SVGID_9_)" d="M5963.452,1429.258c-28.078-28.078-73.598-28.078-101.677,0l-56.268,56.266
		c-28.078,28.078-28.08,73.602-0.002,101.68l56.27,56.27c28.077,28.078,73.599,28.074,101.677-0.004l56.267-56.266
		c28.08-28.078,28.08-73.602,0.002-101.68L5963.452,1429.258z"/>
	<linearGradient id="SVGID_10_" gradientUnits="userSpaceOnUse" x1="5126.6401" y1="-402.6133" x2="9494.6406" y2="3965.3877">
		<stop  offset="0" style="stop-color:#FFFFFF"/>
		<stop  offset="1" style="stop-color:#000000"/>
	</linearGradient>
	<path fill="url(#SVGID_10_)" d="M6348.68,875.695l56.269-56.27c28.079-28.078,28.079-73.598,0-101.676l-56.269-56.269
		c-28.079-28.079-73.599-28.079-101.676,0l-56.269,56.269c-28.079,28.078-28.079,73.598,0,101.676l56.269,56.27
		C6275.082,903.773,6320.602,903.773,6348.68,875.695z"/>
	<linearGradient id="SVGID_11_" gradientUnits="userSpaceOnUse" x1="5511.9238" y1="-787.8989" x2="9879.9297" y2="3580.1064">
		<stop  offset="0" style="stop-color:#FFFFFF"/>
		<stop  offset="1" style="stop-color:#000000"/>
	</linearGradient>
	<path fill="url(#SVGID_11_)" d="M7118.196,874.641l56.267-56.266c28.079-28.078,28.079-73.602,0-101.68l-56.267-56.27
		c-28.079-28.078-73.602-28.078-101.681,0l-56.267,56.27c-28.08,28.078-28.079,73.602,0,101.68l56.267,56.266
		C7044.594,902.719,7090.116,902.719,7118.196,874.641z"/>
	<linearGradient id="SVGID_12_" gradientUnits="userSpaceOnUse" x1="5549.8184" y1="-825.7915" x2="9917.8135" y2="3542.2036">
		<stop  offset="0" style="stop-color:#FFFFFF"/>
		<stop  offset="1" style="stop-color:#000000"/>
	</linearGradient>
	<path fill="url(#SVGID_12_)" d="M7731.465,1412.125l56.271-56.27c28.076-28.078,28.076-73.598,0-101.676l-56.271-56.27
		c-28.079-28.078-73.598-28.078-101.676,0l-56.271,56.27c-28.076,28.078-28.076,73.598,0,101.676l56.271,56.27
		C7657.868,1440.203,7703.386,1440.203,7731.465,1412.125z"/>
	<linearGradient id="SVGID_13_" gradientUnits="userSpaceOnUse" x1="5988.5903" y1="-1264.5498" x2="10356.5859" y2="3103.4453">
		<stop  offset="0" style="stop-color:#FFFFFF"/>
		<stop  offset="1" style="stop-color:#000000"/>
	</linearGradient>
	<path fill="url(#SVGID_13_)" d="M8315.855,1220.665c28.078,28.078,73.598,28.078,101.678,0l56.268-56.27
		c28.078-28.078,28.08-73.598,0.002-101.676l-56.27-56.273c-28.078-28.078-73.6-28.074-101.678,0.004l-56.268,56.27
		c-28.08,28.078-28.08,73.598-0.002,101.676L8315.855,1220.665z"/>
	<linearGradient id="SVGID_14_" gradientUnits="userSpaceOnUse" x1="5703.3813" y1="-979.3633" x2="10071.3828" y2="3388.6387">
		<stop  offset="0" style="stop-color:#FFFFFF"/>
		<stop  offset="1" style="stop-color:#000000"/>
	</linearGradient>
	<path fill="url(#SVGID_14_)" d="M8501.297,1874.82l56.268-56.266c28.08-28.082,28.08-73.602,0-101.68l-56.268-56.27
		c-28.078-28.078-73.6-28.082-101.68,0l-56.268,56.27c-28.078,28.078-28.078,73.602,0,101.68l56.268,56.266
		C8427.697,1902.898,8473.219,1902.898,8501.297,1874.82z"/>
	<linearGradient id="SVGID_15_" gradientUnits="userSpaceOnUse" x1="5128.5137" y1="-404.4731" x2="9496.5117" y2="3963.5254">
		<stop  offset="0" style="stop-color:#FFFFFF"/>
		<stop  offset="1" style="stop-color:#000000"/>
	</linearGradient>
	<path fill="url(#SVGID_15_)" d="M8270.947,2580.016c-28.08-28.082-73.602-28.078-101.68,0L8113,2636.281
		c-28.079,28.078-28.08,73.602,0,101.68l56.267,56.266c28.079,28.078,73.602,28.078,101.68,0l56.268-56.266
		c28.078-28.078,28.078-73.602,0-101.68L8270.947,2580.016z"/>
</g>
<path fill="#FFFFFF" d="M6414.755,2495.803h26.326c8.179-30.889,18.732-79.706,41.543-119.896
	c22.807-40.193,55.385-70.869,113.031-70.869c57.648,0,90.277,30.679,113.047,70.869c22.771,40.188,33.131,88.997,41.314,119.896
	h26.129c8.182-30.889,18.719-79.706,41.529-119.896c22.807-40.193,55.613-70.869,113.258-70.869
	c57.648,0,90.064,30.679,112.836,70.869c22.77,40.188,33.133,88.997,41.313,119.896h26.342
	c8.182-30.889,18.717-79.706,41.529-119.896c22.809-40.193,55.4-70.869,113.045-70.869c57.648,0,90.279,30.679,113.049,70.869
	c22.771,40.188,33.133,88.997,41.316,119.896l26.113-7.063c-7.783-29.384-18.281-81.122-43.893-126.323
	c-18.877-33.316-47.428-63.482-88.207-77.068c25.271-17.889,42.365-48.745,42.39-82.008c0.041-51.839-41.263-98.271-90.769-98.271
	c-49.504,0-90.805,46.233-90.783,98.059c0.018,33.236,16.904,64.283,42.18,82.221c-40.814,13.587-69.299,43.754-88.207,77.068
	c-14.352,25.288-23.975,52.542-31.04,76.855c-7.069-24.299-16.51-51.586-30.825-76.855c-18.878-33.316-47.43-63.482-88.207-77.068
	c25.271-17.889,42.365-48.745,42.389-82.008c0.041-51.839-41.068-98.271-90.57-98.271c-49.504,0-91.004,46.233-90.98,98.059
	c0.014,33.236,17.113,64.283,42.391,82.221c-40.814,13.587-69.316,43.754-88.223,77.068c-14.35,25.288-23.903,52.506-30.992,76.825
	c-7.039-24.317-16.547-51.539-30.873-76.825c-18.875-33.316-47.428-63.482-88.205-77.068c25.27-17.889,42.367-48.745,42.389-82.008
	c0.037-51.839-41.281-98.271-90.783-98.271c-49.504,0-90.792,46.233-90.769,98.059c0.016,33.236,16.902,64.283,42.181,82.221
	c-40.816,13.587-69.303,43.754-88.208,77.068c-14.351,25.288-23.989,52.542-31.055,76.855 M6595.656,2132.911
	c31.007,0,62.984,33.773,62.957,70.217c-0.025,36.41-31.975,70.444-62.957,70.444s-63.138-34.038-63.154-70.444
	C6532.485,2166.693,6564.654,2132.911,6595.656,2132.911z M7265.998,2132.911c31.008,0,62.967,33.773,62.945,70.217
	c-0.025,36.41-31.963,70.444-62.945,70.444c-30.979,0-63.139-34.038-63.152-70.444
	C7202.829,2166.693,7234.996,2132.911,7265.998,2132.911z"/>
<path fill="#FFFFFF" d="M6416.679,2797.774h26.327c8.182-30.89,18.521-79.706,41.33-119.897
	c22.811-40.192,55.614-70.869,113.259-70.869c57.648,0,90.265,30.679,113.034,70.869c22.771,40.189,33.146,88.998,41.332,119.897
	h26.111c8.18-30.89,18.732-79.706,41.541-119.897c22.811-40.192,55.387-70.869,113.033-70.869s90.277,30.679,113.047,70.869
	c22.771,40.189,33.131,88.998,41.317,119.897h26.339c8.18-30.89,18.506-79.706,41.316-119.897
	c22.808-40.192,55.611-70.869,113.258-70.869s90.277,30.679,113.047,70.869c22.771,40.189,33.133,88.998,41.316,119.897
	l26.113-7.063c-7.78-29.384-18.266-81.12-43.877-126.323c-18.875-33.316-47.428-63.481-88.205-77.067
	c25.27-17.891,42.143-48.746,42.162-82.01c0.033-51.839-41.053-98.27-90.557-98.27s-90.808,46.443-90.783,98.27
	c0.016,33.236,16.901,64.071,42.178,82.01c-40.813,13.586-69.301,43.751-88.205,77.067c-14.342,25.269-23.764,52.571-30.828,76.87
	c-7.071-24.314-16.711-51.582-31.039-76.87c-18.875-33.316-47.428-63.481-88.209-77.067c25.273-17.891,42.369-48.746,42.395-82.01
	c0.039-51.839-41.279-98.27-90.785-98.27c-49.508,0-90.793,46.443-90.768,98.27c0.016,33.236,17.115,64.071,42.389,82.01
	c-40.813,13.586-69.526,43.751-88.434,77.067c-14.316,25.226-23.801,52.383-30.826,76.657
	c-7.033-24.276-16.533-51.429-30.826-76.657c-18.875-33.316-47.43-63.481-88.209-77.067c25.272-17.891,42.158-48.746,42.182-82.01
	c0.035-51.839-41.053-98.27-90.557-98.27c-49.509,0-90.809,46.443-90.784,98.27c0.013,33.236,16.903,64.071,42.178,82.01
	c-40.815,13.586-69.298,43.751-88.208,77.067c-14.34,25.269-23.762,52.571-30.827,76.87 M6597.594,2434.883
	c31.007,0,62.969,33.985,62.944,70.429c-0.027,36.412-31.962,70.232-62.944,70.232c-30.979,0-63.151-33.826-63.169-70.232
	C6534.411,2468.875,6566.592,2434.883,6597.594,2434.883L6597.594,2434.883z M6932.646,2434.883
	c31.006,0,62.966,33.985,62.943,70.429c-0.025,36.412-31.963,70.232-62.943,70.232c-30.982,0-62.926-33.826-62.943-70.232
	C6869.687,2468.875,6901.642,2434.883,6932.646,2434.883L6932.646,2434.883z M7267.923,2434.883
	c31.006,0,62.967,33.985,62.943,70.429c-0.025,36.412-31.963,70.232-62.943,70.232c-30.982,0-63.139-33.826-63.152-70.232
	C7204.755,2468.875,7236.919,2434.883,7267.923,2434.883L7267.923,2434.883z"/>
<path fill="#FFFFFF" d="M6412.829,2193.826h26.328c8.181-30.889,18.732-79.706,41.542-119.896
	c22.81-40.191,55.386-70.869,113.033-70.869c57.647,0,90.278,30.679,113.047,70.869c22.77,40.188,33.131,88.997,41.316,119.896
	h26.127c8.18-30.889,18.718-79.706,41.525-119.896c22.811-40.191,55.615-70.869,113.263-70.869
	c57.646,0,90.063,30.679,112.833,70.869c22.77,40.188,33.131,88.997,41.316,119.896h26.34c8.18-30.889,18.718-79.706,41.528-119.896
	c22.808-40.191,55.399-70.869,113.046-70.869c57.648,0,90.277,30.679,113.047,70.869c22.771,40.188,33.133,88.997,41.316,119.896
	l26.113-7.062c-7.78-29.383-18.281-81.121-43.893-126.324c-18.874-33.315-47.426-63.48-88.205-77.067
	c25.27-17.89,42.365-48.745,42.39-82.009c0.04-51.839-41.265-98.271-90.769-98.271s-90.808,46.233-90.783,98.058
	c0.015,33.237,16.902,64.285,42.178,82.222c-40.813,13.587-69.301,43.753-88.206,77.067c-14.353,25.288-23.973,52.543-31.04,76.855
	c-7.07-24.299-16.509-51.586-30.826-76.855c-18.875-33.315-47.43-63.48-88.209-77.067c25.271-17.89,42.367-48.745,42.395-82.009
	c0.039-51.839-41.068-98.271-90.571-98.271c-49.509,0-91.007,46.233-90.982,98.058c0.017,33.237,17.115,64.285,42.39,82.222
	c-40.813,13.587-69.314,43.753-88.222,77.067c-14.351,25.288-23.903,52.506-30.992,76.826
	c-7.038-24.318-16.544-51.538-30.874-76.826c-18.873-33.315-47.428-63.48-88.207-77.067c25.271-17.89,42.367-48.745,42.393-82.009
	c0.035-51.839-41.279-98.271-90.784-98.271c-49.508,0-90.793,46.233-90.768,98.058c0.016,33.237,16.902,64.285,42.178,82.222
	c-40.814,13.587-69.299,43.753-88.208,77.067c-14.35,25.288-23.989,52.543-31.052,76.855 M6593.731,1830.935
	c31.004,0,62.981,33.773,62.958,70.217c-0.025,36.411-31.977,70.444-62.958,70.444c-30.982,0-63.138-34.037-63.157-70.444
	C6530.561,1864.717,6562.728,1830.935,6593.731,1830.935z M6929.01,1830.935c31.003,0,62.964,33.773,62.94,70.217
	c-0.023,36.411-31.961,70.444-62.94,70.444c-30.982,0-63.14-34.037-63.157-70.444
	C6865.837,1864.717,6898.005,1830.935,6929.01,1830.935z M7264.074,1830.935c31.008,0,62.967,33.773,62.941,70.217
	c-0.021,36.411-31.959,70.444-62.941,70.444c-30.979,0-63.139-34.037-63.152-70.444
	C7200.906,1864.717,7233.072,1830.935,7264.074,1830.935z"/>
</svg>
