<?xml version="1.0" encoding="utf-8"?>
<!-- Generator: Adobe Illustrator 16.0.0, SVG Export Plug-In . SVG Version: 6.00 Build 0)  -->
<!DOCTYPE svg PUBLIC "-//W3C//DTD SVG 1.1//EN" "http://www.w3.org/Graphics/SVG/1.1/DTD/svg11.dtd">
<svg version="1.1" id="Layer_1" xmlns="http://www.w3.org/2000/svg" xmlns:xlink="http://www.w3.org/1999/xlink" x="0px" y="0px"
	 width="3677.266px" height="3341.332px" viewBox="0 0 3677.266 3341.332" enable-background="new 0 0 3677.266 3341.332"
	 xml:space="preserve">
<g>
	<path fill="#E8B100" d="M2840.375,1689.738c0,508.798-412.463,921.261-921.258,921.261c-508.799,0-921.262-412.463-921.262-921.261
		c0-508.797,412.461-921.259,921.262-921.259C2427.911,768.479,2840.375,1180.941,2840.375,1689.738z"/>
	<g>
		<path fill="#FFFFFF" d="M2227.5,2076.843l-245.287-245.286c-13.979-13.979-13.979-36.484,0-50.461l27.926-27.927
			c13.979-13.978,36.481-13.978,50.459,0.002l245.287,245.285c13.979,13.979,13.979,36.483,0.002,50.461l-27.926,27.926
			C2263.982,2090.822,2241.478,2090.822,2227.5,2076.843z"/>
		<path fill="#FFFFFF" d="M1802.674,1292.149c-71.777,0-143.899,27.77-198.666,82.533c-109.528,109.528-109.528,287.068,0,396.6
			c98.182,98.176,251.301,107.775,360.812,29.946c4.674-5.261,59.015-59.601,66.466-66.466
			c77.829-109.513,67.501-261.902-30.677-360.08C1945.842,1319.919,1874.452,1292.149,1802.674,1292.149z M1802.674,1362.267
			c53.834,0,107.924,21.01,148.998,62.083c82.146,82.146,82.146,215.12,0,297.268c-82.146,82.146-215.85,82.146-297.998,0
			s-82.148-215.122,0-297.268C1694.748,1383.275,1748.84,1362.267,1802.674,1362.267z"/>
	</g>
	<g>
		
			<linearGradient id="SVGID_1_" gradientUnits="userSpaceOnUse" x1="4803.3789" y1="-6.4063" x2="-1979.3291" y2="1998.3966" gradientTransform="matrix(1 0 0 -1 -8.3599 3365.3867)">
			<stop  offset="0" style="stop-color:#FFFFFF"/>
			<stop  offset="1" style="stop-color:#000000"/>
		</linearGradient>
		<path fill="url(#SVGID_1_)" d="M2840.709,2672.015c-28.078-28.078-73.602-28.082-101.679-0.004l-56.271,56.27
			c-28.078,28.078-28.076,73.603,0.002,101.68l56.269,56.267c28.077,28.078,73.601,28.078,101.679,0l56.27-56.267
			c28.077-28.077,28.074-73.602-0.003-101.68L2840.709,2672.015z"/>
		
			<linearGradient id="SVGID_2_" gradientUnits="userSpaceOnUse" x1="4713.6074" y1="-310.1104" x2="-2069.083" y2="1694.6874" gradientTransform="matrix(1 0 0 -1 -8.3599 3365.3867)">
			<stop  offset="0" style="stop-color:#FFFFFF"/>
			<stop  offset="1" style="stop-color:#000000"/>
		</linearGradient>
		<path fill="url(#SVGID_2_)" d="M558.42,2327.657c-28.08-28.078-73.601-28.074-101.679,0.004l-56.269,56.271
			c-28.078,28.077-28.08,73.598-0.002,101.676l56.271,56.271c28.079,28.077,73.601,28.077,101.679,0l56.268-56.271
			c28.078-28.078,28.08-73.598,0.001-101.676L558.42,2327.657z"/>
		
			<linearGradient id="SVGID_3_" gradientUnits="userSpaceOnUse" x1="4677.2256" y1="-433.1851" x2="-2105.4521" y2="1571.6071" gradientTransform="matrix(1 0 0 -1 -8.3599 3365.3867)">
			<stop  offset="0" style="stop-color:#FFFFFF"/>
			<stop  offset="1" style="stop-color:#000000"/>
		</linearGradient>
		<path fill="url(#SVGID_3_)" d="M1407.539,2712.47c-28.08-28.078-73.6-28.078-101.676,0l-56.271,56.27
			c-28.078,28.078-28.078,73.598,0,101.676l56.271,56.271c28.076,28.077,73.597,28.077,101.676,0l56.268-56.271
			c28.079-28.078,28.079-73.598,0-101.676L1407.539,2712.47z"/>
		
			<linearGradient id="SVGID_4_" gradientUnits="userSpaceOnUse" x1="4634.7275" y1="-576.9985" x2="-2147.9927" y2="1427.808" gradientTransform="matrix(1 0 0 -1 -8.3599 3365.3867)">
			<stop  offset="0" style="stop-color:#FFFFFF"/>
			<stop  offset="1" style="stop-color:#000000"/>
		</linearGradient>
		<path fill="url(#SVGID_4_)" d="M2177.368,3096.384c-28.077-28.078-73.601-28.078-101.681,0l-56.268,56.27
			c-28.08,28.078-28.08,73.602,0,101.68l56.268,56.271c28.08,28.077,73.604,28.077,101.681,0l56.267-56.271
			c28.08-28.082,28.08-73.598,0-101.68L2177.368,3096.384z"/>
		
			<linearGradient id="SVGID_5_" gradientUnits="userSpaceOnUse" x1="4923.2031" y1="398.9106" x2="-1859.5527" y2="2403.7278" gradientTransform="matrix(1 0 0 -1 -8.3599 3365.3867)">
			<stop  offset="0" style="stop-color:#FFFFFF"/>
			<stop  offset="1" style="stop-color:#000000"/>
		</linearGradient>
		<path fill="url(#SVGID_5_)" d="M561.924,1557.724c-28.078-28.078-73.6-28.074-101.676,0.004l-56.269,56.266
			c-28.08,28.078-28.08,73.603-0.002,101.68l56.271,56.267c28.078,28.078,73.598,28.078,101.676,0l56.269-56.267
			c28.079-28.077,28.08-73.602,0.002-101.68L561.924,1557.724z"/>
		
			<linearGradient id="SVGID_6_" gradientUnits="userSpaceOnUse" x1="5101.4043" y1="1001.8896" x2="-1681.3232" y2="3006.6982" gradientTransform="matrix(1 0 0 -1 -8.3599 3365.3867)">
			<stop  offset="0" style="stop-color:#FFFFFF"/>
			<stop  offset="1" style="stop-color:#000000"/>
		</linearGradient>
		<path fill="url(#SVGID_6_)" d="M179.004,788.892c-28.078-28.078-73.6-28.078-101.676,0l-56.271,56.27
			C-7.02,873.24-7.018,918.76,21.06,946.837l56.269,56.271c28.076,28.078,73.599,28.081,101.676,0.003l56.271-56.272
			c28.079-28.079,28.077-73.599-0.002-101.677L179.004,788.892z"/>
		
			<linearGradient id="SVGID_7_" gradientUnits="userSpaceOnUse" x1="4920.8867" y1="391.1543" x2="-1861.8213" y2="2395.957" gradientTransform="matrix(1 0 0 -1 -8.3599 3365.3867)">
			<stop  offset="0" style="stop-color:#FFFFFF"/>
			<stop  offset="1" style="stop-color:#000000"/>
		</linearGradient>
		<path fill="url(#SVGID_7_)" d="M3630.594,2512.827l-56.268-56.27c-28.078-28.078-73.6-28.078-101.68,0l-56.268,56.27
			c-28.08,28.078-28.078,73.598,0,101.676l56.268,56.271c28.08,28.078,73.602,28.082,101.68,0.004l56.27-56.272
			C3658.674,2586.425,3658.672,2540.905,3630.594,2512.827z"/>
		
			<linearGradient id="SVGID_8_" gradientUnits="userSpaceOnUse" x1="4611.0557" y1="-657.0928" x2="-2171.6636" y2="1347.7117" gradientTransform="matrix(1 0 0 -1 -8.3599 3365.3867)">
			<stop  offset="0" style="stop-color:#FFFFFF"/>
			<stop  offset="1" style="stop-color:#000000"/>
		</linearGradient>
		<path fill="url(#SVGID_8_)" d="M874.865,2798.489c-28.078-28.078-73.599-28.078-101.677,0l-56.271,56.27
			c-28.078,28.078-28.077,73.599,0.002,101.677l56.269,56.27c28.078,28.078,73.6,28.082,101.676,0.004l56.271-56.272
			c28.077-28.078,28.075-73.598-0.002-101.676L874.865,2798.489z"/>
		
			<linearGradient id="SVGID_9_" gradientUnits="userSpaceOnUse" x1="5162.751" y1="1209.4155" x2="-1619.9658" y2="3214.2209" gradientTransform="matrix(1 0 0 -1 -8.3599 3365.3867)">
			<stop  offset="0" style="stop-color:#FFFFFF"/>
			<stop  offset="1" style="stop-color:#000000"/>
		</linearGradient>
		<path fill="url(#SVGID_9_)" d="M945.84,789.892c-28.078-28.078-73.598-28.078-101.676,0l-56.269,56.266
			c-28.078,28.079-28.08,73.603-0.002,101.68l56.271,56.271c28.078,28.078,73.6,28.074,101.676-0.004l56.269-56.267
			c28.08-28.078,28.08-73.602,0.002-101.68L945.84,789.892z"/>
		
			<linearGradient id="SVGID_10_" gradientUnits="userSpaceOnUse" x1="5402.3975" y1="2020.2256" x2="-1380.3066" y2="4025.0254" gradientTransform="matrix(1 0 0 -1 -8.3599 3365.3867)">
			<stop  offset="0" style="stop-color:#FFFFFF"/>
			<stop  offset="1" style="stop-color:#000000"/>
		</linearGradient>
		<path fill="url(#SVGID_10_)" d="M1331.07,236.328l56.269-56.27c28.08-28.078,28.08-73.599,0-101.677l-56.269-56.269
			c-28.079-28.079-73.599-28.079-101.676,0l-56.269,56.269c-28.08,28.078-28.08,73.599,0,101.677l56.269,56.27
			C1257.471,264.407,1302.99,264.407,1331.07,236.328z"/>
		
			<linearGradient id="SVGID_11_" gradientUnits="userSpaceOnUse" x1="5464.5381" y1="2230.3633" x2="-1318.1943" y2="4235.1719" gradientTransform="matrix(1 0 0 -1 -8.3599 3365.3867)">
			<stop  offset="0" style="stop-color:#FFFFFF"/>
			<stop  offset="1" style="stop-color:#000000"/>
		</linearGradient>
		<path fill="url(#SVGID_11_)" d="M2100.586,235.274l56.267-56.266c28.079-28.078,28.079-73.602,0-101.681l-56.267-56.27
			c-28.08-28.078-73.603-28.078-101.682,0l-56.268,56.27c-28.08,28.079-28.078,73.603,0,101.681l56.268,56.266
			C2026.984,263.353,2072.506,263.353,2100.586,235.274z"/>
		
			<linearGradient id="SVGID_12_" gradientUnits="userSpaceOnUse" x1="5367.7158" y1="1902.7646" x2="-1415.0508" y2="3907.585" gradientTransform="matrix(1 0 0 -1 -8.3599 3365.3867)">
			<stop  offset="0" style="stop-color:#FFFFFF"/>
			<stop  offset="1" style="stop-color:#000000"/>
		</linearGradient>
		<path fill="url(#SVGID_12_)" d="M2713.855,772.759l56.271-56.271c28.076-28.078,28.076-73.598,0-101.676l-56.271-56.271
			c-28.08-28.078-73.599-28.078-101.676,0l-56.271,56.271c-28.078,28.078-28.078,73.598,0,101.676l56.271,56.271
			C2640.256,800.836,2685.775,800.836,2713.855,772.759z"/>
		
			<linearGradient id="SVGID_13_" gradientUnits="userSpaceOnUse" x1="5474.8574" y1="2265.3438" x2="-1307.8599" y2="4270.1475" gradientTransform="matrix(1 0 0 -1 -8.3599 3365.3867)">
			<stop  offset="0" style="stop-color:#FFFFFF"/>
			<stop  offset="1" style="stop-color:#000000"/>
		</linearGradient>
		<path fill="url(#SVGID_13_)" d="M3298.246,581.298c28.078,28.078,73.598,28.078,101.678,0l56.268-56.27
			c28.076-28.078,28.08-73.598,0.002-101.676l-56.27-56.273c-28.078-28.078-73.6-28.075-101.678,0.004l-56.268,56.271
			c-28.08,28.078-28.08,73.598-0.002,101.676L3298.246,581.298z"/>
		
			<linearGradient id="SVGID_14_" gradientUnits="userSpaceOnUse" x1="5303.7764" y1="1686.5107" x2="-1478.9688" y2="3691.3247" gradientTransform="matrix(1 0 0 -1 -8.3599 3365.3867)">
			<stop  offset="0" style="stop-color:#FFFFFF"/>
			<stop  offset="1" style="stop-color:#000000"/>
		</linearGradient>
		<path fill="url(#SVGID_14_)" d="M3483.686,1235.454l56.27-56.267c28.078-28.081,28.078-73.601,0-101.679l-56.27-56.27
			c-28.076-28.079-73.598-28.083-101.678,0l-56.268,56.27c-28.078,28.078-28.078,73.602,0,101.679l56.268,56.267
			C3410.088,1263.531,3455.61,1263.531,3483.686,1235.454z"/>
		
			<linearGradient id="SVGID_15_" gradientUnits="userSpaceOnUse" x1="5035.3418" y1="778.3599" x2="-1747.3774" y2="2783.1643" gradientTransform="matrix(1 0 0 -1 -8.3599 3365.3867)">
			<stop  offset="0" style="stop-color:#FFFFFF"/>
			<stop  offset="1" style="stop-color:#000000"/>
		</linearGradient>
		<path fill="url(#SVGID_15_)" d="M3253.338,1940.649c-28.08-28.082-73.604-28.078-101.681,0l-56.269,56.266
			c-28.08,28.078-28.08,73.603,0,101.681l56.269,56.266c28.077,28.078,73.603,28.078,101.681,0l56.268-56.266
			c28.076-28.078,28.076-73.603,0-101.681L3253.338,1940.649z"/>
	</g>
</g>
</svg>
