<?xml version="1.0" encoding="utf-8"?>
<!-- Generator: Adobe Illustrator 16.0.0, SVG Export Plug-In . SVG Version: 6.00 Build 0)  -->
<!DOCTYPE svg PUBLIC "-//W3C//DTD SVG 1.1//EN" "http://www.w3.org/Graphics/SVG/1.1/DTD/svg11.dtd">
<svg version="1.1" id="Layer_1" xmlns="http://www.w3.org/2000/svg" xmlns:xlink="http://www.w3.org/1999/xlink" x="0px" y="0px"
	 width="3723.091px" height="3384px" viewBox="4982.309 605.625 3723.091 3384"
	 enable-background="new 4982.309 605.625 3723.091 3384" xml:space="preserve">
<path fill="#E8B100" d="M7859.077,2324.378c0,508.798-412.464,921.261-921.259,921.261c-508.799,0-921.261-412.463-921.261-921.261
	c0-508.797,412.461-921.259,921.261-921.259C7446.613,1403.119,7859.077,1815.581,7859.077,2324.378z"/>
<g>
	<linearGradient id="SVGID_1_" gradientUnits="userSpaceOnUse" x1="9813.7246" y1="4006.4336" x2="3031.0039" y2="2001.6268">
		<stop  offset="0" style="stop-color:#FFFFFF"/>
		<stop  offset="1" style="stop-color:#000000"/>
	</linearGradient>
	<path fill="url(#SVGID_1_)" d="M7859.41,3306.654c-28.078-28.078-73.601-28.082-101.678-0.004l-56.27,56.27
		c-28.078,28.078-28.077,73.602,0.002,101.68l56.268,56.266c28.077,28.078,73.6,28.078,101.678,0l56.27-56.266
		c28.077-28.078,28.074-73.602-0.003-101.68L7859.41,3306.654z"/>
	<linearGradient id="SVGID_2_" gradientUnits="userSpaceOnUse" x1="9723.9492" y1="4310.1348" x2="2941.2588" y2="2305.3369">
		<stop  offset="0" style="stop-color:#FFFFFF"/>
		<stop  offset="1" style="stop-color:#000000"/>
	</linearGradient>
	<path fill="url(#SVGID_2_)" d="M5577.121,2962.297c-28.079-28.078-73.6-28.074-101.678,0.004l-56.268,56.27
		c-28.078,28.078-28.08,73.598-0.002,101.676l56.27,56.27c28.079,28.078,73.6,28.078,101.678,0l56.268-56.27
		c28.078-28.078,28.08-73.598,0.001-101.676L5577.121,2962.297z"/>
	<linearGradient id="SVGID_3_" gradientUnits="userSpaceOnUse" x1="9687.5859" y1="4433.2178" x2="2904.8691" y2="2428.4124">
		<stop  offset="0" style="stop-color:#FFFFFF"/>
		<stop  offset="1" style="stop-color:#000000"/>
	</linearGradient>
	<path fill="url(#SVGID_3_)" d="M6426.24,3347.109c-28.079-28.078-73.599-28.078-101.676,0l-56.27,56.27
		c-28.078,28.078-28.078,73.598,0,101.676l56.27,56.27c28.077,28.078,73.597,28.078,101.676,0l56.268-56.27
		c28.079-28.078,28.079-73.598,0-101.676L6426.24,3347.109z"/>
	<linearGradient id="SVGID_4_" gradientUnits="userSpaceOnUse" x1="9645.0684" y1="4577.0234" x2="2862.3477" y2="2572.2168">
		<stop  offset="0" style="stop-color:#FFFFFF"/>
		<stop  offset="1" style="stop-color:#000000"/>
	</linearGradient>
	<path fill="url(#SVGID_4_)" d="M7196.07,3731.023c-28.077-28.078-73.601-28.078-101.681,0l-56.267,56.27
		c-28.08,28.078-28.08,73.602,0,101.68l56.267,56.27c28.08,28.078,73.604,28.078,101.681,0l56.267-56.27
		c28.08-28.082,28.08-73.598,0-101.68L7196.07,3731.023z"/>
	<linearGradient id="SVGID_5_" gradientUnits="userSpaceOnUse" x1="9933.5371" y1="3601.1123" x2="3150.7944" y2="1596.2991">
		<stop  offset="0" style="stop-color:#FFFFFF"/>
		<stop  offset="1" style="stop-color:#000000"/>
	</linearGradient>
	<path fill="url(#SVGID_5_)" d="M5580.626,2192.363c-28.078-28.078-73.6-28.074-101.677,0.004l-56.268,56.266
		c-28.08,28.078-28.08,73.602-0.002,101.68l56.27,56.266c28.078,28.078,73.598,28.078,101.677,0l56.268-56.266
		c28.079-28.078,28.08-73.602,0.002-101.68L5580.626,2192.363z"/>
	<linearGradient id="SVGID_6_" gradientUnits="userSpaceOnUse" x1="10111.7422" y1="2998.1348" x2="3329.0215" y2="993.328">
		<stop  offset="0" style="stop-color:#FFFFFF"/>
		<stop  offset="1" style="stop-color:#000000"/>
	</linearGradient>
	<path fill="url(#SVGID_6_)" d="M5197.706,1423.531c-28.078-28.078-73.6-28.078-101.677,0l-56.27,56.27
		c-28.078,28.079-28.076,73.598,0.002,101.676l56.268,56.27c28.077,28.078,73.599,28.081,101.677,0.003l56.27-56.273
		c28.079-28.079,28.077-73.598-0.002-101.676L5197.706,1423.531z"/>
	<linearGradient id="SVGID_7_" gradientUnits="userSpaceOnUse" x1="9931.2324" y1="3608.873" x2="3148.5117" y2="1604.0663">
		<stop  offset="0" style="stop-color:#FFFFFF"/>
		<stop  offset="1" style="stop-color:#000000"/>
	</linearGradient>
	<path fill="url(#SVGID_7_)" d="M8649.295,3147.467l-56.268-56.27c-28.078-28.078-73.6-28.078-101.68,0l-56.268,56.27
		c-28.08,28.078-28.078,73.598,0,101.676l56.268,56.27c28.08,28.078,73.602,28.082,101.68,0.004l56.27-56.273
		C8677.375,3221.064,8677.373,3175.545,8649.295,3147.467z"/>
	<linearGradient id="SVGID_8_" gradientUnits="userSpaceOnUse" x1="9621.3965" y1="4657.1182" x2="2838.6772" y2="2652.312">
		<stop  offset="0" style="stop-color:#FFFFFF"/>
		<stop  offset="1" style="stop-color:#000000"/>
	</linearGradient>
	<path fill="url(#SVGID_8_)" d="M5893.566,3433.129c-28.078-28.078-73.6-28.078-101.678,0l-56.27,56.27
		c-28.078,28.078-28.077,73.598,0.002,101.676l56.268,56.27c28.078,28.078,73.6,28.082,101.678,0.004l56.27-56.273
		c28.078-28.078,28.075-73.598-0.002-101.676L5893.566,3433.129z"/>
	<linearGradient id="SVGID_9_" gradientUnits="userSpaceOnUse" x1="10173.1094" y1="2790.6143" x2="3390.3667" y2="785.801">
		<stop  offset="0" style="stop-color:#FFFFFF"/>
		<stop  offset="1" style="stop-color:#000000"/>
	</linearGradient>
	<path fill="url(#SVGID_9_)" d="M5964.542,1424.531c-28.078-28.078-73.598-28.078-101.677,0l-56.268,56.266
		c-28.078,28.079-28.08,73.602-0.002,101.68l56.27,56.27c28.078,28.078,73.6,28.074,101.677-0.004l56.268-56.266
		c28.08-28.079,28.08-73.602,0.002-101.68L5964.542,1424.531z"/>
	<linearGradient id="SVGID_10_" gradientUnits="userSpaceOnUse" x1="10412.748" y1="1979.8047" x2="3630.0313" y2="-25.0007">
		<stop  offset="0" style="stop-color:#FFFFFF"/>
		<stop  offset="1" style="stop-color:#000000"/>
	</linearGradient>
	<path fill="url(#SVGID_10_)" d="M6349.771,870.968l56.269-56.27c28.079-28.078,28.079-73.598,0-101.676l-56.269-56.269
		c-28.079-28.079-73.599-28.079-101.676,0l-56.269,56.269c-28.079,28.078-28.079,73.598,0,101.676l56.269,56.27
		C6276.172,899.047,6321.692,899.047,6349.771,870.968z"/>
	<linearGradient id="SVGID_11_" gradientUnits="userSpaceOnUse" x1="10474.8711" y1="1769.6626" x2="3692.1519" y2="-235.1436">
		<stop  offset="0" style="stop-color:#FFFFFF"/>
		<stop  offset="1" style="stop-color:#000000"/>
	</linearGradient>
	<path fill="url(#SVGID_11_)" d="M7119.287,869.915l56.267-56.267c28.079-28.078,28.079-73.601,0-101.68l-56.267-56.27
		c-28.079-28.078-73.602-28.078-101.681,0l-56.267,56.27c-28.08,28.079-28.078,73.602,0,101.68l56.267,56.267
		C7045.685,897.992,7091.207,897.992,7119.287,869.915z"/>
	<linearGradient id="SVGID_12_" gradientUnits="userSpaceOnUse" x1="10378.0566" y1="2097.2622" x2="3595.2896" y2="92.4418">
		<stop  offset="0" style="stop-color:#FFFFFF"/>
		<stop  offset="1" style="stop-color:#000000"/>
	</linearGradient>
	<path fill="url(#SVGID_12_)" d="M7732.556,1407.398l56.271-56.27c28.075-28.078,28.075-73.598,0-101.676l-56.271-56.27
		c-28.08-28.078-73.598-28.078-101.676,0l-56.271,56.27c-28.077,28.078-28.077,73.598,0,101.676l56.271,56.27
		C7658.958,1435.476,7704.476,1435.476,7732.556,1407.398z"/>
	<linearGradient id="SVGID_13_" gradientUnits="userSpaceOnUse" x1="10485.1973" y1="1734.6836" x2="3702.4805" y2="-270.1218">
		<stop  offset="0" style="stop-color:#FFFFFF"/>
		<stop  offset="1" style="stop-color:#000000"/>
	</linearGradient>
	<path fill="url(#SVGID_13_)" d="M8316.947,1215.938c28.078,28.078,73.598,28.078,101.678,0l56.268-56.27
		c28.076-28.078,28.08-73.598,0.002-101.676l-56.27-56.273c-28.078-28.078-73.6-28.075-101.678,0.004l-56.268,56.27
		c-28.08,28.078-28.08,73.598-0.002,101.676L8316.947,1215.938z"/>
	<linearGradient id="SVGID_14_" gradientUnits="userSpaceOnUse" x1="10314.1172" y1="2313.5156" x2="3531.3721" y2="308.7017">
		<stop  offset="0" style="stop-color:#FFFFFF"/>
		<stop  offset="1" style="stop-color:#000000"/>
	</linearGradient>
	<path fill="url(#SVGID_14_)" d="M8502.387,1870.094l56.27-56.267c28.078-28.081,28.078-73.601,0-101.679l-56.27-56.269
		c-28.076-28.079-73.598-28.083-101.678,0l-56.268,56.269c-28.078,28.079-28.078,73.602,0,101.679l56.268,56.267
		C8428.789,1898.171,8474.311,1898.171,8502.387,1870.094z"/>
	<linearGradient id="SVGID_15_" gradientUnits="userSpaceOnUse" x1="10045.6836" y1="3221.666" x2="3262.9644" y2="1216.8599">
		<stop  offset="0" style="stop-color:#FFFFFF"/>
		<stop  offset="1" style="stop-color:#000000"/>
	</linearGradient>
	<path fill="url(#SVGID_15_)" d="M8272.039,2575.289c-28.08-28.082-73.604-28.078-101.68,0l-56.268,56.266
		c-28.08,28.078-28.08,73.602,0,101.68l56.268,56.266c28.077,28.078,73.602,28.078,101.68,0l56.268-56.266
		c28.076-28.078,28.076-73.602,0-101.68L8272.039,2575.289z"/>
</g>
<path fill="#FFFFFF" d="M6478.702,2660.573c-14.196-13.983-37.043-13.812-51.025,0.387c-13.983,14.197-13.812,37.041,0.385,51.024
	l0,0l129.743,127.977c13.556,14.6,36.382,15.445,50.982,1.887c14.601-13.555,15.447-36.381,1.89-50.982
	c-0.713-0.767-1.458-1.504-2.234-2.205l-13.019-12.799l111.206-54.5l34.422,33.98c59.6,58.792,155.576,58.139,214.369-1.463
	c44.023-44.627,56.033-111.752,30.217-168.877l240.949-117.826l26.367,26.037c14.775,13.366,37.588,12.224,50.955-2.552
	c12.551-13.873,12.414-35.039-0.314-48.749l-487.412-481.123c-13.559-14.601-36.385-15.446-50.984-1.89
	c-14.602,13.557-15.445,36.384-1.891,50.984c0.713,0.767,1.459,1.503,2.236,2.205l22.064,22.065l-300.523,634.694L6478.702,2660.573
	z M6904.222,2703.268c-30.881,31.244-81.227,31.589-112.531,0.773l-16.439-16.219l145.629-71.159
	C6933.273,2646.253,6926.707,2680.389,6904.222,2703.268L6904.222,2703.268z M6583.398,2633.765l234.548-496.458
	c2.949-6.155,10.328-8.753,16.482-5.806c1.205,0.577,2.309,1.346,3.268,2.276l60.787,59.906c7.451,7.105,8.443,18.646,2.316,26.919
	l-307.032,419.23c-1.674,2.865-5.355,3.828-8.219,2.152C6582.687,2640.308,6581.724,2636.628,6583.398,2633.765z M7106.666,2137.307
	c-0.945-5.031-0.945-10.194,0-15.225c0.547-2.444,1.285-4.842,2.207-7.171c1.023-2.34,2.242-4.592,3.641-6.73
	c2.893-4.386,6.646-8.139,11.031-11.032c2.096-1.373,4.313-2.555,6.621-3.531c2.361-0.961,4.795-1.736,7.281-2.317
	c2.512-0.453,5.061-0.674,7.611-0.662c2.521-0.017,5.037,0.242,7.502,0.772c2.516,0.459,4.963,1.237,7.281,2.317
	c2.332,0.928,4.551,2.112,6.619,3.53c4.414,2.858,8.176,6.619,11.033,11.033c1.418,2.069,2.602,4.29,3.531,6.62
	c1.049,2.329,1.828,4.772,2.316,7.281c0.529,2.465,0.791,4.98,0.771,7.502c0.029,10.209-3.93,20.027-11.031,27.361
	c-1.766,1.784-3.686,3.408-5.738,4.854c-2.164,1.353-4.412,2.568-6.729,3.641c-2.354,0.934-4.793,1.636-7.281,2.096
	c-2.465,0.53-4.98,0.789-7.502,0.773c-2.555,0.015-5.102-0.207-7.613-0.663c-2.484-0.58-4.918-1.354-7.283-2.316
	c-2.309-0.972-4.523-2.154-6.617-3.53c-4.41-2.866-8.166-6.624-11.033-11.033c-1.377-2.094-2.559-4.309-3.529-6.619
	c-1.221-2.366-2.217-4.841-2.98-7.393L7106.666,2137.307z M7259.685,2069.347c-15.234,15.012-39.75,14.833-54.764-0.399
	c-15.012-15.233-14.832-39.751,0.4-54.763c15.076-14.857,39.287-14.857,54.363,0c15.123,15.087,15.174,39.573,0.109,54.721
	L7259.685,2069.347z M7320.031,1992.672c-21.361-0.061-38.662-17.363-38.723-38.724c0.021-2.593,0.277-5.177,0.771-7.723
	c0.545-2.445,1.283-4.842,2.207-7.171c0.998-2.354,2.215-4.608,3.641-6.73c7.207-10.682,19.221-17.122,32.104-17.21
	c21.389-0.038,38.756,17.269,38.791,38.655c0.02,10.337-4.098,20.252-11.43,27.539
	C7340.097,1988.513,7330.283,1992.589,7320.031,1992.672z M7080.628,2029.851c0.922,2.33,1.66,4.728,2.207,7.172
	c0.453,2.511,0.676,5.06,0.662,7.612c0.053,10.214-3.91,20.04-11.033,27.36c-1.84,1.788-3.834,3.413-5.957,4.854
	c-2.098,1.374-4.313,2.555-6.619,3.531c-2.365,0.96-4.799,1.734-7.281,2.316c-2.514,0.453-5.061,0.674-7.613,0.662
	c-2.521,0.015-5.037-0.245-7.502-0.772c-2.469-0.453-4.875-1.194-7.17-2.206c-2.363-0.978-4.619-2.197-6.73-3.641
	c-2.117-1.364-4.076-2.955-5.848-4.745c-1.828-1.805-3.455-3.802-4.854-5.958c-1.418-2.068-2.602-4.289-3.531-6.62
	c-1.051-2.329-1.828-4.772-2.316-7.281c-1.045-4.947-1.045-10.058,0-15.004c0.488-2.509,1.266-4.952,2.316-7.282
	c0.93-2.33,2.113-4.55,3.531-6.62c7.16-10.691,19.127-17.17,31.994-17.32c2.551-0.014,5.1,0.208,7.611,0.662
	c2.484,0.582,4.92,1.357,7.281,2.317c2.309,0.975,4.525,2.156,6.621,3.53c2.123,1.441,4.115,3.066,5.955,4.854
	c1.75,1.808,3.336,3.765,4.744,5.848c1.398,2.137,2.617,4.389,3.643,6.73L7080.628,2029.851z M7079.634,1966.746
	c-19.514-8.748-28.242-31.661-19.494-51.176s31.66-28.244,51.176-19.495c19.504,8.743,28.234,31.633,19.51,51.144
	c-2.01,4.098-4.693,7.828-7.943,11.033c-11.201,11.463-28.309,14.84-43.027,8.495H7079.634z M7184.884,1818.36
	c0.063,21.325-17.178,38.663-38.504,38.723c-0.072,0-0.146,0-0.221,0c-2.518-0.024-5.029-0.283-7.502-0.772
	c-2.469-0.451-4.875-1.191-7.17-2.207c-2.363-0.975-4.619-2.195-6.729-3.641c-2.117-1.361-4.08-2.952-5.848-4.744
	c-7.104-7.333-11.063-17.151-11.033-27.36c0.74-21.072,17.65-37.984,38.725-38.724c10.244-0.046,20.104,3.913,27.469,11.032
	c1.752,1.805,3.342,3.761,4.746,5.848c1.396,2.138,2.615,4.389,3.641,6.729c0.92,2.33,1.658,4.728,2.205,7.172
	C7184.992,1813.051,7185.066,1815.711,7184.884,1818.36z M7264.871,2214.203c0.959,2.363,1.734,4.798,2.316,7.281
	c0.455,2.511,0.676,5.06,0.662,7.612c-0.078,12.945-6.566,25.011-17.322,32.215c-2.068,1.418-4.287,2.603-6.619,3.53
	c-2.328,1.05-4.771,1.828-7.281,2.316c-4.945,1.045-10.057,1.045-15.004,0c-2.508-0.489-4.951-1.266-7.281-2.316
	c-2.33-0.928-4.551-2.112-6.619-3.53c-2.156-1.398-4.154-3.026-5.959-4.854c-1.787-1.771-3.379-3.731-4.744-5.848
	c-1.441-2.11-2.664-4.367-3.639-6.729c-1.014-2.297-1.754-4.704-2.207-7.172c-0.527-2.465-0.787-4.981-0.771-7.502
	c-0.014-2.553,0.209-5.1,0.662-7.612c0.58-2.484,1.355-4.918,2.316-7.281c0.975-2.309,2.156-4.523,3.529-6.62
	c1.443-2.121,3.068-4.115,4.854-5.958c7.32-7.123,17.146-11.084,27.361-11.032c2.553-0.013,5.102,0.208,7.613,0.663
	c2.443,0.547,4.842,1.285,7.17,2.206c2.34,1.023,4.592,2.242,6.73,3.641c2.082,1.409,4.039,2.997,5.848,4.744
	c1.787,1.842,3.412,3.835,4.854,5.958C7262.697,2209.903,7263.878,2212.008,7264.871,2214.203z M7307.013,2194.123
	c-6.586-14.667-3.426-31.877,7.943-43.247c3.207-3.247,6.936-5.933,11.033-7.942c19.523-8.731,42.428,0.018,51.158,19.541
	s-0.018,42.428-19.541,51.159c-19.512,8.725-42.402-0.007-51.146-19.51H7307.013z M7483.533,2100.238
	c7.119,7.368,11.078,17.225,11.033,27.471c-0.74,21.072-17.652,37.983-38.725,38.723c-10.209,0.029-20.029-3.929-27.361-11.032
	c-1.805-1.838-3.396-3.873-4.744-6.068c-1.447-2.11-2.666-4.365-3.641-6.73c-1.014-2.295-1.754-4.702-2.205-7.171
	c-0.533-2.688-0.791-5.423-0.773-8.164c-0.061-21.326,17.178-38.663,38.504-38.724c0.072,0,0.146,0,0.221,0
	c2.551-0.014,5.1,0.208,7.611,0.663c2.443,0.547,4.842,1.285,7.172,2.206c2.342,1.023,4.592,2.242,6.729,3.641
	c2.148,1.575,4.143,3.348,5.959,5.296L7483.533,2100.238z"/>
</svg>
