<?xml version="1.0" encoding="utf-8"?>
<!-- Generator: Adobe Illustrator 16.0.0, SVG Export Plug-In . SVG Version: 6.00 Build 0)  -->
<!DOCTYPE svg PUBLIC "-//W3C//DTD SVG 1.1//EN" "http://www.w3.org/Graphics/SVG/1.1/DTD/svg11.dtd">
<svg version="1.1" id="artwork" xmlns="http://www.w3.org/2000/svg" xmlns:xlink="http://www.w3.org/1999/xlink" x="0px" y="0px"
	 width="135px" height="40.003px" viewBox="0 0 135 40.003" enable-background="new 0 0 135 40.003" xml:space="preserve">
<g>
	<g>
		<path fill="#333333" d="M130,40.003H5c-2.75,0-5-2.25-5-5V5c0-2.75,2.25-5,5-5h125c2.75,0,5,2.25,5,5v30.001
			C135,37.753,132.75,40.003,130,40.003z"/>
	</g>
	<g>
		<path fill="#FFFFFF" stroke="#FFFFFF" stroke-width="0.2" stroke-miterlimit="10" d="M47.418,10.244
			c0,0.838-0.248,1.505-0.745,2.003c-0.564,0.592-1.3,0.888-2.204,0.888c-0.866,0-1.603-0.3-2.208-0.9
			c-0.606-0.601-0.909-1.345-0.909-2.233c0-0.889,0.303-1.633,0.909-2.234c0.605-0.601,1.342-0.901,2.208-0.901
			c0.43,0,0.841,0.084,1.231,0.251c0.391,0.168,0.704,0.391,0.938,0.67l-0.527,0.528c-0.397-0.475-0.944-0.712-1.643-0.712
			c-0.632,0-1.178,0.222-1.639,0.666s-0.691,1.021-0.691,1.731s0.23,1.286,0.691,1.73s1.007,0.666,1.639,0.666
			c0.67,0,1.229-0.223,1.676-0.67c0.29-0.291,0.458-0.696,0.503-1.215h-2.179v-0.72h2.907C47.405,9.948,47.418,10.099,47.418,10.244
			z"/>
		<path fill="#FFFFFF" stroke="#FFFFFF" stroke-width="0.2" stroke-miterlimit="10" d="M52.028,7.738h-2.732v1.903h2.464v0.721
			h-2.464v1.902h2.732v0.737h-3.503V7h3.503V7.738z"/>
		<path fill="#FFFFFF" stroke="#FFFFFF" stroke-width="0.2" stroke-miterlimit="10" d="M55.279,13.001h-0.771V7.738h-1.676V7h4.123
			v0.737h-1.676V13.001z"/>
		<path fill="#FFFFFF" stroke="#FFFFFF" stroke-width="0.2" stroke-miterlimit="10" d="M59.938,13.001V7h0.771v6L59.938,13.001
			L59.938,13.001z"/>
		<path fill="#FFFFFF" stroke="#FFFFFF" stroke-width="0.2" stroke-miterlimit="10" d="M64.128,13.001h-0.771V7.738h-1.676V7h4.123
			v0.737h-1.676V13.001z"/>
		<path fill="#FFFFFF" stroke="#FFFFFF" stroke-width="0.2" stroke-miterlimit="10" d="M73.609,12.226
			c-0.59,0.606-1.323,0.909-2.2,0.909s-1.609-0.303-2.199-0.909s-0.883-1.348-0.883-2.225s0.293-1.619,0.883-2.225
			s1.322-0.91,2.199-0.91c0.873,0,1.604,0.305,2.196,0.914c0.593,0.609,0.888,1.349,0.888,2.221
			C74.493,10.878,74.197,11.62,73.609,12.226z M69.779,11.723c0.443,0.45,0.986,0.674,1.63,0.674c0.643,0,1.188-0.225,1.631-0.674
			c0.442-0.449,0.666-1.024,0.666-1.722s-0.224-1.273-0.666-1.723c-0.442-0.45-0.988-0.674-1.631-0.674
			c-0.644,0-1.187,0.225-1.63,0.674c-0.442,0.449-0.666,1.024-0.666,1.723S69.336,11.273,69.779,11.723z"/>
		<path fill="#FFFFFF" stroke="#FFFFFF" stroke-width="0.2" stroke-miterlimit="10" d="M75.575,13.001V7h0.938l2.916,4.668h0.033
			l-0.033-1.156V7h0.771v6h-0.805l-3.051-4.894h-0.033l0.033,1.157V13L75.575,13.001L75.575,13.001z"/>
	</g>
	<path fill="#FFFFFF" d="M68.135,21.753c-2.352,0-4.269,1.789-4.269,4.252c0,2.449,1.917,4.254,4.269,4.254
		c2.354,0,4.27-1.805,4.27-4.254C72.404,23.542,70.488,21.753,68.135,21.753z M68.135,28.585c-1.288,0-2.4-1.063-2.4-2.578
		c0-1.531,1.112-2.578,2.4-2.578c1.289,0,2.4,1.047,2.4,2.578C70.536,27.521,69.424,28.585,68.135,28.585z M58.822,21.753
		c-2.352,0-4.269,1.789-4.269,4.252c0,2.449,1.917,4.254,4.269,4.254c2.353,0,4.27-1.805,4.27-4.254
		C63.092,23.542,61.175,21.753,58.822,21.753z M58.822,28.585c-1.289,0-2.4-1.063-2.4-2.578c0-1.531,1.112-2.578,2.4-2.578
		c1.289,0,2.4,1.047,2.4,2.578C61.223,27.521,60.111,28.585,58.822,28.585z M47.744,23.059v1.804h4.318
		c-0.129,1.016-0.467,1.756-0.983,2.271c-0.628,0.629-1.611,1.322-3.335,1.322c-2.658,0-4.736-2.144-4.736-4.801
		c0-2.66,2.078-4.803,4.736-4.803c1.434,0,2.481,0.564,3.254,1.289l1.273-1.273c-1.08-1.031-2.513-1.82-4.527-1.82
		c-3.641,0-6.702,2.964-6.702,6.607c0,3.641,3.061,6.604,6.702,6.604c1.965,0,3.448-0.645,4.607-1.852
		c1.192-1.193,1.563-2.869,1.563-4.223c0-0.418-0.032-0.805-0.097-1.127L47.744,23.059L47.744,23.059z M93.051,24.46
		c-0.354-0.951-1.434-2.707-3.641-2.707c-2.191,0-4.012,1.724-4.012,4.252c0,2.386,1.805,4.254,4.221,4.254
		c1.949,0,3.078-1.192,3.545-1.885l-1.449-0.967c-0.484,0.709-1.145,1.176-2.096,1.176c-0.949,0-1.627-0.435-2.061-1.289
		l5.686-2.353L93.051,24.46z M87.252,25.878c-0.049-1.645,1.273-2.481,2.223-2.481c0.742,0,1.369,0.371,1.58,0.901L87.252,25.878z
		 M82.629,30.001h1.867V17.5h-1.867V30.001z M79.566,22.705h-0.063c-0.418-0.5-1.226-0.951-2.237-0.951
		c-2.127,0-4.076,1.869-4.076,4.27c0,2.385,1.949,4.236,4.076,4.236c1.014,0,1.819-0.45,2.237-0.965h0.063v0.611
		c0,1.627-0.869,2.497-2.271,2.497c-1.144,0-1.853-0.821-2.144-1.514l-1.627,0.677c0.468,1.127,1.707,2.514,3.771,2.514
		c2.19,0,4.045-1.289,4.045-4.431v-7.637h-1.772v0.692H79.566z M77.424,28.585c-1.289,0-2.367-1.08-2.367-2.563
		c0-1.499,1.078-2.594,2.367-2.594c1.273,0,2.271,1.095,2.271,2.594C79.695,27.505,78.697,28.585,77.424,28.585z M101.805,17.5
		h-4.471v12.501H99.2v-4.736h2.604c2.068,0,4.103-1.497,4.103-3.883C105.907,18.998,103.874,17.5,101.805,17.5z M101.854,23.526
		H99.2V19.24h2.653c1.396,0,2.188,1.155,2.188,2.142C104.042,22.352,103.249,23.526,101.854,23.526z M113.385,21.73
		c-1.35,0-2.75,0.596-3.328,1.914l1.656,0.691c0.354-0.691,1.014-0.918,1.705-0.918c0.965,0,1.945,0.58,1.961,1.608v0.13
		c-0.338-0.193-1.061-0.482-1.945-0.482c-1.785,0-3.604,0.98-3.604,2.814c0,1.674,1.465,2.75,3.105,2.75
		c1.254,0,1.944-0.563,2.379-1.223h0.063v0.965h1.804v-4.793C117.182,22.968,115.523,21.73,113.385,21.73z M113.161,28.583
		c-0.611,0-1.463-0.307-1.463-1.063c0-0.965,1.061-1.335,1.979-1.335c0.817,0,1.204,0.177,1.702,0.418
		C115.234,27.762,114.238,28.583,113.161,28.583z M123.743,22.003l-2.14,5.42h-0.063l-2.22-5.42h-2.01l3.328,7.576l-1.897,4.215
		h1.946l5.131-11.791H123.743z M106.936,30.001h1.865V17.5h-1.865V30.001z"/>
	<g>
		
			<linearGradient id="SVGID_1_" gradientUnits="userSpaceOnUse" x1="30.1616" y1="643.0347" x2="13.3787" y2="659.8177" gradientTransform="matrix(1 0 0 1 -8.3599 -634.3242)">
			<stop  offset="0" style="stop-color:#00A0FF"/>
			<stop  offset="0.0066" style="stop-color:#00A1FF"/>
			<stop  offset="0.2601" style="stop-color:#00BEFF"/>
			<stop  offset="0.5122" style="stop-color:#00D2FF"/>
			<stop  offset="0.7604" style="stop-color:#00DFFF"/>
			<stop  offset="1" style="stop-color:#00E3FF"/>
		</linearGradient>
		<path fill="url(#SVGID_1_)" d="M10.436,7.539c-0.291,0.308-0.463,0.786-0.463,1.405v22.118c0,0.62,0.172,1.098,0.463,1.404
			l0.074,0.072l12.389-12.39v-0.146v-0.146L10.509,7.466L10.436,7.539z"/>
		
			<linearGradient id="SVGID_2_" gradientUnits="userSpaceOnUse" x1="42.1929" y1="654.3286" x2="17.9981" y2="654.3286" gradientTransform="matrix(1 0 0 1 -8.3599 -634.3242)">
			<stop  offset="0" style="stop-color:#FFE000"/>
			<stop  offset="0.4087" style="stop-color:#FFBD00"/>
			<stop  offset="0.7754" style="stop-color:#FFA500"/>
			<stop  offset="1" style="stop-color:#FF9C00"/>
		</linearGradient>
		<path fill="url(#SVGID_2_)" d="M27.028,24.281l-4.129-4.133v-0.146v-0.146l4.13-4.13l0.093,0.053l4.893,2.78
			c1.397,0.794,1.397,2.093,0,2.888l-4.893,2.78L27.028,24.281z"/>
		
			<linearGradient id="SVGID_3_" gradientUnits="userSpaceOnUse" x1="33.1865" y1="656.6216" x2="10.4274" y2="679.3807" gradientTransform="matrix(1 0 0 1 -8.3599 -634.3242)">
			<stop  offset="0" style="stop-color:#FF3A44"/>
			<stop  offset="1" style="stop-color:#C31162"/>
		</linearGradient>
		<path fill="url(#SVGID_3_)" d="M27.122,24.227l-4.224-4.225L10.436,32.466c0.46,0.488,1.221,0.548,2.078,0.062L27.122,24.227"/>
		
			<linearGradient id="SVGID_4_" gradientUnits="userSpaceOnUse" x1="15.6548" y1="634.4995" x2="25.8188" y2="644.6635" gradientTransform="matrix(1 0 0 1 -8.3599 -634.3242)">
			<stop  offset="0" style="stop-color:#32A071"/>
			<stop  offset="0.0685" style="stop-color:#2DA771"/>
			<stop  offset="0.4762" style="stop-color:#15CF74"/>
			<stop  offset="0.8009" style="stop-color:#06E775"/>
			<stop  offset="1" style="stop-color:#00F076"/>
		</linearGradient>
		<path fill="url(#SVGID_4_)" d="M27.122,15.778L12.514,7.477c-0.857-0.487-1.618-0.426-2.078,0.062l12.463,12.464L27.122,15.778z"
			/>
		<g>
			<path opacity="0.2" enable-background="new    " d="M27.029,24.134l-14.515,8.248c-0.812,0.461-1.538,0.43-2.004,0.011l0,0
				l-0.074,0.073l0,0l0.074,0.072l0,0c0.466,0.42,1.192,0.451,2.004-0.011l14.608-8.301L27.029,24.134z"/>
			<path opacity="0.12" enable-background="new    " d="M10.436,32.321c-0.291-0.308-0.463-0.786-0.463-1.405v0.146
				c0,0.619,0.172,1.098,0.463,1.404l0.074-0.073L10.436,32.321z"/>
		</g>
		<path opacity="0.12" enable-background="new    " d="M32.015,21.3l-4.986,2.832l0.093,0.094l4.893-2.78
			c0.699-0.397,1.048-0.921,1.048-1.444l0,0C33.004,20.476,32.648,20.94,32.015,21.3z"/>
		<path opacity="0.25" fill="#FFFFFF" enable-background="new    " d="M12.514,7.624l19.501,11.081
			c0.634,0.36,0.989,0.824,1.048,1.298l0,0c0-0.523-0.349-1.047-1.048-1.444L12.514,7.478c-1.398-0.794-2.541-0.134-2.541,1.466
			V9.09C9.973,7.489,11.116,6.83,12.514,7.624z"/>
	</g>
</g>
</svg>
