<?xml version="1.0" encoding="utf-8"?>
<!-- Generator: Adobe Illustrator 16.0.0, SVG Export Plug-In . SVG Version: 6.00 Build 0)  -->
<!DOCTYPE svg PUBLIC "-//W3C//DTD SVG 1.1//EN" "http://www.w3.org/Graphics/SVG/1.1/DTD/svg11.dtd">
<svg version="1.1" id="Layer_1" xmlns="http://www.w3.org/2000/svg" xmlns:xlink="http://www.w3.org/1999/xlink" x="0px" y="0px"
	 width="580.965px" height="113.744px" viewBox="0 0 580.965 113.744" enable-background="new 0 0 580.965 113.744"
	 xml:space="preserve">
<path fill="#498BCA" d="M58.727,19.557c7.83,0.075,14.518,1.086,20.062,3.034c5.544,1.948,9.366,3.56,11.464,4.833L84.241,4.158
	c-2.061-0.711-5.883-1.582-11.465-2.613C67.193,0.515,60.056,0,51.365,0c-9.293,0.375-17.178,1.873-23.659,4.495
	c-6.482,2.623-11.689,6.202-15.623,10.734c-3.934,4.534-6.838,9.854-8.711,15.96C1.498,37.297,0.374,44.396,0,52.488
	c0,13.339,1.676,24.38,5.031,33.129c3.351,8.75,9.065,15.427,17.138,20.035c8.075,4.607,19.024,6.912,32.848,6.912
	c8.655-0.188,15.726-0.919,21.215-2.192c5.489-1.274,9.151-2.304,10.988-3.092l3.033-22.31c0,0.037-1.329,0.729-3.989,2.078
	c-2.773,1.426-6.576,2.697-11.408,3.821c-4.834,1.124-10.753,1.688-17.759,1.688c-5.058-0.15-9.18-1.358-12.363-3.626
	c-3.185-2.265-5.593-5.31-7.222-9.132c-1.63-3.821-2.688-7.877-3.175-12.166c-0.487-4.29-0.731-9.337-0.731-15.146
	c0-10.078,1.667-18.086,5.002-24.025C41.942,22.526,48.647,19.557,58.727,19.557"/>
<path fill="#498BCA" d="M276.212,45.352L259.688,2.528h-40.293v107.282h24.614V48.555l27.875,65.189l24.615-65.639v61.705h6.69
	V84.896h-5.854V79.9h17.378v4.995h-5.857v24.915h8.784V87.175h4.578l0.627,3.639h0.189c0.614-1.463,1.281-2.51,2.005-3.138
	c0.726-0.629,1.57-0.94,2.532-0.94c0.683,0,1.353,0.104,2.007,0.312l-0.647,5.395c-0.391-0.137-0.899-0.207-1.526-0.207
	c-1.353,0-2.39,0.532-3.116,1.602c-0.725,1.066-1.087,2.615-1.087,4.651v11.323h7.354V2.528h-36.584L276.212,45.352z"/>
<path fill="#498BCA" d="M356.915,101.044c-0.551,0.607-0.823,1.512-0.823,2.715c0,1.783,0.634,2.678,1.899,2.678
	c0.944,0,1.697-0.425,2.261-1.271c0.562-0.846,0.845-1.977,0.845-3.385v-1.823l-1.591,0.078
	C358.328,100.098,357.468,100.436,356.915,101.044"/>
<path fill="#498BCA" d="M361.327,107.134c-0.763,1.269-1.551,2.139-2.365,2.616c-0.046,0.026-0.109,0.035-0.157,0.061h3.574
	l-0.936-2.677H361.327z"/>
<path fill="#498BCA" d="M345.73,109.811h7.682c-0.479-0.287-0.919-0.645-1.287-1.125c-0.911-1.188-1.366-2.845-1.366-4.965
	c0-2.277,0.624-3.967,1.87-5.072c1.248-1.107,3.112-1.716,5.595-1.833l2.873-0.115v-1.551c0-2.018-0.875-3.027-2.62-3.027
	c-1.295,0-2.781,0.505-4.461,1.512l-1.783-3.568c2.146-1.356,4.481-2.036,7-2.036c2.288,0,4.031,0.657,5.228,1.969
	c1.195,1.313,1.794,3.171,1.794,5.576v14.236h4.21V88.477h5.157v21.334h3.938V2.529H345.73V109.811z M370.996,80.806
	c0.496-0.499,1.192-0.747,2.085-0.747c0.842,0,1.512,0.248,2.017,0.747c0.504,0.496,0.755,1.175,0.755,2.026
	c0,0.88-0.257,1.563-0.772,2.046c-0.521,0.485-1.187,0.728-1.999,0.728c-0.854,0-1.539-0.242-2.058-0.728
	c-0.517-0.483-0.772-1.166-0.772-2.046C370.251,81.98,370.496,81.302,370.996,80.806"/>
<path fill="#498BCA" d="M448.844,64.908l-16.289-62.38h-39.844v107.282h9.66V79.9h5.541v29.91h9.695V45.127l18.592,64.683h4.176
	c-0.997-0.576-1.886-1.334-2.659-2.288c-1.964-2.417-2.942-5.836-2.942-10.264c0-4.489,0.888-7.994,2.661-10.517
	c1.771-2.521,4.245-3.782,7.42-3.782c2.957,0,5.294,1.078,7.001,3.232c1.707,2.158,2.562,5.18,2.562,9.067v3.463h-13.055
	c0.048,2.428,0.543,4.229,1.488,5.407c0.944,1.181,2.245,1.77,3.903,1.77c2.115,0,4.28-0.659,6.492-1.979v5.346
	c-0.344,0.208-0.717,0.373-1.085,0.545h6.551V83.473h5.346l0.731,4.245h0.218c0.716-1.706,1.496-2.926,2.345-3.658
	c0.848-0.734,1.83-1.1,2.953-1.1c0.796,0,1.577,0.12,2.343,0.365l-0.756,6.297c-0.456-0.164-1.054-0.244-1.784-0.244
	c-1.577,0-2.788,0.623-3.637,1.866c-0.844,1.244-1.269,3.056-1.269,5.431v13.136h8.257V2.528h-24.615V64.908z"/>
<path fill="#498BCA" d="M447.146,89.501c-0.568-1.026-1.35-1.538-2.344-1.538c-0.928,0-1.69,0.492-2.293,1.476
	c-0.604,0.985-0.954,2.512-1.048,4.578h6.586C448.015,92.031,447.717,90.524,447.146,89.501"/>
<path fill="#498BCA" d="M555.398,62.604v27.199c-1.313,0.487-3.683,1.106-7.112,1.855c-3.427,0.749-7.653,1.123-12.669,1.123
	c-5.584-0.523-9.678-2.604-12.282-6.237c-2.604-3.633-4.198-7.979-4.777-13.039c-0.58-5.058-0.869-11.763-0.869-20.119
	c0-9.591,1.714-17.131,5.141-22.619c3.428-5.489,9.225-8.607,17.394-9.357c3.37-0.3,5.75-0.45,7.139-0.45
	c5.729,0,10.891,0.553,15.479,1.657c4.591,1.106,8.479,2.333,11.664,3.682c3.184,1.349,4.792,2.023,4.831,2.023l-4.606-23.49
	c0-0.15-1.827-0.655-5.479-1.518c-3.655-0.861-8.486-1.629-14.501-2.304C548.737,0.336,541.816,0,533.984,0
	c-31.771,0.861-48.03,18.508-48.779,52.937c0,20.457,3.785,35.509,11.352,45.156c7.569,9.646,20.662,14.471,39.284,14.471
	c8.127,0,15.593-0.674,22.395-2.023c6.8-1.348,12.285-2.838,16.466-4.468c4.177-1.629,6.264-2.614,6.264-2.95V62.604H555.398z"/>
<path fill="#F68A1F" d="M197.768,2.583h-86.85c-5.995,0-10.856,4.858-10.856,10.855v86.848c0,5.997,4.861,10.855,10.856,10.855
	h12.426c-8.33-8.186-12.409-18.759-12.409-31.493c0-12.733,4.209-23.179,12.622-31.341c8.413-8.155,18.676-12.236,30.785-12.236
	c11.88,0,22.086,4.023,30.614,12.068c8.526,8.046,12.793,18.548,12.793,31.509s-4.064,23.423-12.563,31.493h12.582
	c5.995,0,10.855-4.858,10.855-10.855V13.438C208.623,7.441,203.763,2.583,197.768,2.583"/>
<path fill="#F68A1F" d="M173.06,99.555c5.032-5.265,7.545-11.914,7.545-19.95c0-8.092-2.558-14.752-7.673-19.988
	c-5.118-5.234-11.314-7.855-18.591-7.855c-7.618,0-13.9,2.678-18.844,8.028c-4.948,5.348-7.42,11.955-7.42,19.815
	c0,8.146,2.543,14.824,7.632,20.031c5.087,5.208,11.298,7.813,18.632,7.813C161.789,107.448,168.028,104.817,173.06,99.555
	 M147.417,71.938l16.658,10.544l-16.658,9.014V71.938z"/>
<rect fill="none" width="580.965" height="113.744"/>
</svg>
