<?xml version="1.0" encoding="utf-8"?>
<!-- Generator: Adobe Illustrator 16.0.0, SVG Export Plug-In . SVG Version: 6.00 Build 0)  -->
<!DOCTYPE svg PUBLIC "-//W3C//DTD SVG 1.1//EN" "http://www.w3.org/Graphics/SVG/1.1/DTD/svg11.dtd">
<svg version="1.1" id="Layer_1" xmlns="http://www.w3.org/2000/svg" xmlns:xlink="http://www.w3.org/1999/xlink" x="0px" y="0px"
	 width="300px" height="400px" viewBox="0 0 300 400" enable-background="new 0 0 300 400" xml:space="preserve">
<rect x="-0.25" fill="#FFFFFF" width="300" height="400"/>
<g>
	<path fill="#E4E4E4" d="M50.34,183.925c3.359,0.033,6.228,0.468,8.605,1.307c2.378,0.839,4.018,1.534,4.917,2.082l-2.579-10.022
		c-0.884-0.307-2.523-0.682-4.918-1.126c-2.395-0.443-5.456-0.665-9.184-0.665c-3.986,0.162-7.368,0.807-10.148,1.937
		c-2.78,1.13-5.014,2.671-6.701,4.625c-1.688,1.953-2.933,4.244-3.736,6.875c-0.804,2.631-1.286,5.689-1.446,9.175
		c0,5.746,0.718,10.503,2.158,14.271c1.437,3.771,3.888,6.646,7.351,8.632c3.464,1.984,8.161,2.978,14.09,2.978
		c3.712-0.082,6.745-0.396,9.1-0.944c2.354-0.55,3.925-0.992,4.713-1.333l1.3-9.61c0,0.017-0.57,0.314-1.711,0.896
		c-1.189,0.614-2.82,1.162-4.893,1.646c-2.074,0.484-4.613,0.727-7.618,0.727c-2.17-0.064-3.938-0.584-5.303-1.562
		c-1.366-0.976-2.399-2.287-3.097-3.935c-0.7-1.646-1.153-3.393-1.362-5.24c-0.209-1.849-0.313-4.022-0.313-6.525
		c0-4.341,0.715-7.791,2.146-10.35C43.14,185.204,46.016,183.925,50.34,183.925z"/>
	<path fill="#E4E4E4" d="M143.629,195.037l-7.088-18.448h-17.283v46.215h10.558v-26.388l11.957,28.083l10.558-28.276v26.582h2.871
		v-10.733h-2.513v-2.152h7.454v2.152h-2.512v10.733h3.768v-9.751h1.963l0.27,1.568h0.081c0.264-0.631,0.55-1.083,0.859-1.353
		c0.312-0.271,0.675-0.405,1.087-0.405c0.293,0,0.58,0.045,0.86,0.134l-0.277,2.325c-0.168-0.06-0.386-0.09-0.655-0.09
		c-0.579,0-1.024,0.229-1.336,0.689c-0.311,0.46-0.466,1.127-0.466,2.004v4.878h3.155v-46.216h-15.693L143.629,195.037z"/>
	<path fill="#E4E4E4" d="M179.677,220.804c0.24-0.363,0.362-0.852,0.362-1.458v-0.785l-0.683,0.033
		c-0.505,0.027-0.875,0.173-1.111,0.435s-0.354,0.651-0.354,1.17c0,0.769,0.272,1.154,0.814,1.154
		C179.111,221.353,179.436,221.169,179.677,220.804z"/>
	<path fill="#E4E4E4" d="M180.138,221.652c-0.327,0.547-0.665,0.922-1.015,1.127c-0.02,0.011-0.047,0.016-0.067,0.025h1.533
		l-0.401-1.152H180.138z"/>
	<path fill="#E4E4E4" d="M173.448,222.805h3.294c-0.204-0.123-0.394-0.277-0.551-0.484c-0.392-0.512-0.587-1.225-0.587-2.139
		c0-0.981,0.269-1.708,0.802-2.186c0.535-0.477,1.336-0.738,2.4-0.789l1.232-0.049v-0.669c0-0.869-0.376-1.304-1.125-1.304
		c-0.555,0-1.192,0.218-1.913,0.65l-0.765-1.537c0.92-0.584,1.923-0.877,3.002-0.877c0.982,0,1.73,0.283,2.243,0.849
		c0.513,0.566,0.77,1.365,0.77,2.401v6.133h1.806v-9.189h2.212v9.189h1.689V176.59h-14.51V222.805L173.448,222.805z
		 M184.286,210.311c0.212-0.216,0.511-0.321,0.894-0.321c0.36,0,0.647,0.105,0.865,0.321c0.216,0.213,0.323,0.506,0.323,0.873
		c0,0.379-0.11,0.672-0.331,0.881c-0.224,0.209-0.509,0.313-0.857,0.313c-0.367,0-0.661-0.104-0.883-0.313s-0.331-0.503-0.331-0.881
		C183.966,210.816,184.071,210.523,184.286,210.311z"/>
	<path fill="#E4E4E4" d="M217.678,203.462l-6.987-26.873H193.6v46.215h4.144V209.92h2.377v12.886h4.159v-27.865l7.975,27.865h1.791
		c-0.428-0.248-0.809-0.575-1.141-0.986c-0.843-1.04-1.263-2.514-1.263-4.421c0-1.934,0.381-3.444,1.142-4.53
		c0.759-1.086,1.821-1.629,3.183-1.629c1.269,0,2.271,0.464,3.004,1.392c0.731,0.931,1.099,2.231,1.099,3.906v1.491h-5.601
		c0.021,1.046,0.233,1.823,0.639,2.33c0.405,0.509,0.963,0.763,1.674,0.763c0.907,0,1.837-0.285,2.785-0.853v2.302
		c-0.147,0.091-0.308,0.161-0.466,0.235h2.811v-11.347h2.293l0.313,1.829h0.093c0.308-0.734,0.643-1.26,1.006-1.576
		c0.364-0.316,0.786-0.473,1.268-0.473c0.342,0,0.676,0.052,1.004,0.157l-0.323,2.713c-0.196-0.071-0.452-0.105-0.766-0.105
		c-0.676,0-1.196,0.268-1.56,0.804c-0.362,0.536-0.544,1.316-0.544,2.34v5.658h3.542v-46.216h-10.559V203.462z"/>
	<path fill="#E4E4E4" d="M215.943,213.395c-0.397,0-0.725,0.211-0.983,0.635c-0.259,0.425-0.408,1.082-0.448,1.973h2.824
		c-0.015-0.855-0.143-1.505-0.387-1.945C216.706,213.614,216.371,213.395,215.943,213.395z"/>
	<path fill="#E4E4E4" d="M263.384,202.469v11.718c-0.564,0.21-1.58,0.477-3.052,0.8c-1.47,0.322-3.283,0.483-5.434,0.483
		c-2.396-0.226-4.151-1.121-5.269-2.688c-1.117-1.565-1.802-3.438-2.05-5.616c-0.249-2.179-0.372-5.067-0.372-8.667
		c0-4.131,0.735-7.38,2.204-9.744c1.471-2.365,3.957-3.708,7.462-4.031c1.445-0.129,2.467-0.194,3.062-0.194
		c2.458,0,4.671,0.238,6.64,0.714c1.97,0.477,3.637,1.005,5.003,1.586c1.366,0.582,2.056,0.872,2.072,0.872l-1.976-10.119
		c0-0.064-0.784-0.282-2.351-0.654c-1.568-0.371-3.641-0.702-6.22-0.992s-5.548-0.436-8.907-0.436
		c-13.628,0.371-20.602,7.973-20.924,22.804c0,8.813,1.624,15.297,4.87,19.453c3.246,4.155,8.862,6.234,16.851,6.234
		c3.486,0,6.688-0.291,9.605-0.872c2.916-0.58,5.27-1.223,7.063-1.925c1.791-0.702,2.687-1.126,2.687-1.271V202.47L263.384,202.469
		L263.384,202.469z"/>
	<path fill="#E4E4E4" d="M109.98,176.613H72.727c-2.572,0-4.657,2.093-4.657,4.676v37.413c0,2.584,2.085,4.677,4.657,4.677h5.33
		c-3.573-3.526-5.323-8.081-5.323-13.566c0-5.486,1.806-9.986,5.414-13.502c3.609-3.513,8.011-5.271,13.205-5.271
		c5.096,0,9.474,1.734,13.132,5.199c3.657,3.466,5.487,7.991,5.487,13.575c0,5.583-1.743,10.09-5.389,13.566h5.397
		c2.572,0,4.656-2.093,4.656-4.677v-37.413C114.637,178.706,112.552,176.613,109.98,176.613z"/>
	<path fill="#E4E4E4" d="M91.353,197.798c-3.268,0-5.962,1.154-8.083,3.458c-2.122,2.304-3.182,5.15-3.182,8.536
		c0,3.51,1.091,6.386,3.274,8.629c2.182,2.244,4.846,3.366,7.991,3.366c3.195,0,5.871-1.134,8.03-3.401s3.236-5.132,3.236-8.594
		c0-3.486-1.097-6.354-3.291-8.61C97.132,198.927,94.475,197.798,91.353,197.798z M88.383,214.916v-8.425l7.146,4.542
		L88.383,214.916z"/>
</g>
</svg>
