<?xml version="1.0" encoding="utf-8"?>
<!-- Generator: Adobe Illustrator 16.0.0, SVG Export Plug-In . SVG Version: 6.00 Build 0)  -->
<!DOCTYPE svg PUBLIC "-//W3C//DTD SVG 1.1//EN" "http://www.w3.org/Graphics/SVG/1.1/DTD/svg11.dtd">
<svg version="1.1" id="Layer_1" xmlns="http://www.w3.org/2000/svg" xmlns:xlink="http://www.w3.org/1999/xlink" x="0px" y="0px"
	 width="200px" height="200px" viewBox="0 0 200 200" enable-background="new 0 0 200 200" xml:space="preserve">
<path fill="#ADADAD" d="M100,0C44.799,0,0,44.799,0,100c0,55.195,44.799,100,100,100c55.195,0,100-44.805,100-100
	C200,44.799,155.195,0,100,0 M100,30c16.604,0,30,13.398,30,30s-13.396,30-30,30c-16.602,0-30-13.398-30-30S83.398,30,100,30
	 M100,172.002c-25,0-47.1-12.802-60-32.195c0.297-19.904,40-30.822,60-30.822c19.9,0,59.706,10.908,60,30.822
	C147.1,159.2,125,172.002,100,172.002"/>
</svg>
