<?xml version="1.0" encoding="utf-8"?>
<!-- Generator: Adobe Illustrator 16.0.0, SVG Export Plug-In . SVG Version: 6.00 Build 0)  -->
<!DOCTYPE svg PUBLIC "-//W3C//DTD SVG 1.1//EN" "http://www.w3.org/Graphics/SVG/1.1/DTD/svg11.dtd">
<svg version="1.1" id="Layer_1" xmlns="http://www.w3.org/2000/svg" xmlns:xlink="http://www.w3.org/1999/xlink" x="0px" y="0px"
	 width="3704px" height="3392px" viewBox="4995.4 608.625 3704 3392" enable-background="new 4995.4 608.625 3704 3392"
	 xml:space="preserve">
<path fill="#7EB43B" d="M7859.077,2324.378c0,508.798-412.464,921.261-921.259,921.261c-508.799,0-921.261-412.463-921.261-921.261
	c0-508.797,412.461-921.259,921.261-921.259C7446.613,1403.119,7859.077,1815.581,7859.077,2324.378z"/>
<g>
	<path fill="#FFFFFF" d="M6938.05,2793.41c57.738,0,106.117-20.397,145.135-61.215c39.016-40.819,58.51-92.371,58.51-154.67
		c0-62.752-19.835-114.382-59.498-154.982c-39.688-40.586-87.727-60.903-144.146-60.903c-59.072,0-107.775,20.757-146.121,62.236
		c-38.357,41.464-57.521,92.692-57.521,153.65c0,63.164,19.715,114.935,59.168,155.314
		C6833.025,2773.207,6881.183,2793.41,6938.05,2793.41z M6884.357,2518.08l129.17,81.751l-129.17,69.883V2518.08z"/>
	<path fill="#FFFFFF" d="M7274.757,1980.318h-673.401c-46.48,0-84.167,37.672-84.167,84.174v673.386
		c0,46.49,37.687,84.167,84.167,84.167h96.341c-64.578-63.473-96.196-145.444-96.196-244.185c0-98.74,32.624-179.729,97.856-243.011
		c65.225-63.23,144.809-94.879,238.693-94.879c92.111,0,171.248,31.196,237.371,93.573c66.111,62.392,99.191,143.807,99.191,244.317
		c0,100.495-31.51,181.602-97.406,244.185h97.551c46.486,0,84.174-37.677,84.174-84.167v-673.386
		C7358.931,2017.99,7321.244,1980.318,7274.757,1980.318z"/>
</g>
<g>
	<linearGradient id="SVGID_1_" gradientUnits="userSpaceOnUse" x1="4556.501" y1="167.5093" x2="8924.5029" y2="4535.5112">
		<stop  offset="0" style="stop-color:#FFFFFF"/>
		<stop  offset="1" style="stop-color:#000000"/>
	</linearGradient>
	<path fill="url(#SVGID_1_)" d="M7858.319,3311.382c-28.078-28.078-73.601-28.082-101.678-0.004l-56.27,56.27
		c-28.078,28.078-28.077,73.602,0.002,101.68l56.268,56.266c28.077,28.078,73.6,28.078,101.678,0l56.27-56.266
		c28.077-28.078,28.075-73.602-0.003-101.68L7858.319,3311.382z"/>
	<linearGradient id="SVGID_2_" gradientUnits="userSpaceOnUse" x1="3587.5444" y1="1136.4863" x2="7955.5522" y2="5504.4941">
		<stop  offset="0" style="stop-color:#FFFFFF"/>
		<stop  offset="1" style="stop-color:#000000"/>
	</linearGradient>
	<path fill="url(#SVGID_2_)" d="M5576.03,2967.023c-28.078-28.078-73.6-28.074-101.678,0.004l-56.267,56.27
		c-28.078,28.078-28.08,73.598-0.003,101.676l56.27,56.27c28.079,28.078,73.6,28.078,101.678,0l56.268-56.27
		c28.078-28.078,28.08-73.598,0.001-101.676L5576.03,2967.023z"/>
	<linearGradient id="SVGID_3_" gradientUnits="userSpaceOnUse" x1="3819.6958" y1="904.3281" x2="8187.7036" y2="5272.3359">
		<stop  offset="0" style="stop-color:#FFFFFF"/>
		<stop  offset="1" style="stop-color:#000000"/>
	</linearGradient>
	<path fill="url(#SVGID_3_)" d="M6425.149,3351.836c-28.079-28.078-73.599-28.078-101.676,0l-56.27,56.27
		c-28.078,28.078-28.078,73.598,0,101.676l56.27,56.27c28.078,28.078,73.597,28.078,101.676,0l56.269-56.27
		c28.079-28.078,28.079-73.598,0-101.676L6425.149,3351.836z"/>
	<linearGradient id="SVGID_4_" gradientUnits="userSpaceOnUse" x1="4012.6543" y1="711.3755" x2="8380.6504" y2="5079.3711">
		<stop  offset="0" style="stop-color:#FFFFFF"/>
		<stop  offset="1" style="stop-color:#000000"/>
	</linearGradient>
	<path fill="url(#SVGID_4_)" d="M7194.979,3735.75c-28.077-28.078-73.601-28.078-101.681,0l-56.267,56.27
		c-28.079,28.078-28.079,73.602,0,101.68l56.267,56.27c28.08,28.078,73.604,28.078,101.681,0l56.267-56.27
		c28.08-28.082,28.08-73.598,0-101.68L7194.979,3735.75z"/>
	<linearGradient id="SVGID_5_" gradientUnits="userSpaceOnUse" x1="3974.2622" y1="749.7646" x2="8342.2578" y2="5117.7598">
		<stop  offset="0" style="stop-color:#FFFFFF"/>
		<stop  offset="1" style="stop-color:#000000"/>
	</linearGradient>
	<path fill="url(#SVGID_5_)" d="M5579.535,2197.09c-28.078-28.078-73.6-28.074-101.677,0.004l-56.268,56.266
		c-28.08,28.078-28.08,73.602-0.002,101.68l56.27,56.266c28.077,28.078,73.597,28.078,101.677,0l56.268-56.266
		c28.079-28.078,28.08-73.602,0.002-101.68L5579.535,2197.09z"/>
	<linearGradient id="SVGID_6_" gradientUnits="userSpaceOnUse" x1="4167.2192" y1="556.8076" x2="8535.2246" y2="4924.813">
		<stop  offset="0" style="stop-color:#FFFFFF"/>
		<stop  offset="1" style="stop-color:#000000"/>
	</linearGradient>
	<path fill="url(#SVGID_6_)" d="M5196.616,1428.258c-28.078-28.078-73.601-28.078-101.678,0l-56.27,56.27
		c-28.078,28.078-28.076,73.598,0.002,101.676l56.268,56.27c28.077,28.078,73.6,28.082,101.678,0.004l56.27-56.273
		c28.078-28.078,28.076-73.598-0.002-101.676L5196.616,1428.258z"/>
	<linearGradient id="SVGID_7_" gradientUnits="userSpaceOnUse" x1="5031.0386" y1="-307.0273" x2="9399.041" y2="4060.9746">
		<stop  offset="0" style="stop-color:#FFFFFF"/>
		<stop  offset="1" style="stop-color:#000000"/>
	</linearGradient>
	<path fill="url(#SVGID_7_)" d="M8648.203,3152.194l-56.268-56.27c-28.078-28.078-73.6-28.078-101.678,0l-56.27,56.27
		c-28.078,28.078-28.076,73.598,0.002,101.676l56.268,56.27c28.078,28.078,73.6,28.082,101.678,0.004l56.27-56.273
		C8676.283,3225.792,8676.281,3180.272,8648.203,3152.194z"/>
	<linearGradient id="SVGID_8_" gradientUnits="userSpaceOnUse" x1="3510.3433" y1="1213.6699" x2="7878.3452" y2="5581.6719">
		<stop  offset="0" style="stop-color:#FFFFFF"/>
		<stop  offset="1" style="stop-color:#000000"/>
	</linearGradient>
	<path fill="url(#SVGID_8_)" d="M5892.476,3437.856c-28.078-28.078-73.6-28.078-101.678,0l-56.27,56.27
		c-28.078,28.078-28.077,73.598,0.002,101.676l56.268,56.27c28.078,28.078,73.6,28.082,101.678,0.004l56.27-56.273
		c28.078-28.078,28.076-73.598-0.002-101.676L5892.476,3437.856z"/>
	<linearGradient id="SVGID_9_" gradientUnits="userSpaceOnUse" x1="4550.1382" y1="173.8887" x2="8918.1465" y2="4541.8965">
		<stop  offset="0" style="stop-color:#FFFFFF"/>
		<stop  offset="1" style="stop-color:#000000"/>
	</linearGradient>
	<path fill="url(#SVGID_9_)" d="M5963.452,1429.258c-28.078-28.078-73.598-28.078-101.678,0l-56.268,56.266
		c-28.078,28.078-28.08,73.602-0.002,101.68l56.27,56.27c28.078,28.078,73.6,28.074,101.678-0.004l56.267-56.266
		c28.08-28.078,28.08-73.602,0.002-101.68L5963.452,1429.258z"/>
	<linearGradient id="SVGID_10_" gradientUnits="userSpaceOnUse" x1="5126.6406" y1="-402.6138" x2="9494.6416" y2="3965.3872">
		<stop  offset="0" style="stop-color:#FFFFFF"/>
		<stop  offset="1" style="stop-color:#000000"/>
	</linearGradient>
	<path fill="url(#SVGID_10_)" d="M6348.68,875.695l56.269-56.27c28.079-28.078,28.079-73.598,0-101.676l-56.269-56.269
		c-28.079-28.079-73.599-28.079-101.676,0l-56.27,56.269c-28.078,28.078-28.078,73.598,0,101.676l56.27,56.27
		C6275.082,903.773,6320.602,903.773,6348.68,875.695z"/>
	<linearGradient id="SVGID_11_" gradientUnits="userSpaceOnUse" x1="5511.9238" y1="-787.8989" x2="9879.9297" y2="3580.1064">
		<stop  offset="0" style="stop-color:#FFFFFF"/>
		<stop  offset="1" style="stop-color:#000000"/>
	</linearGradient>
	<path fill="url(#SVGID_11_)" d="M7118.196,874.641l56.267-56.266c28.079-28.078,28.079-73.602,0-101.68l-56.267-56.27
		c-28.079-28.078-73.602-28.078-101.681,0l-56.267,56.27c-28.08,28.078-28.079,73.602,0,101.68l56.267,56.266
		C7044.594,902.719,7090.116,902.719,7118.196,874.641z"/>
	<linearGradient id="SVGID_12_" gradientUnits="userSpaceOnUse" x1="5549.8184" y1="-825.7915" x2="9917.8135" y2="3542.2036">
		<stop  offset="0" style="stop-color:#FFFFFF"/>
		<stop  offset="1" style="stop-color:#000000"/>
	</linearGradient>
	<path fill="url(#SVGID_12_)" d="M7731.465,1412.125l56.271-56.27c28.076-28.078,28.076-73.598,0-101.676l-56.271-56.27
		c-28.079-28.078-73.598-28.078-101.676,0l-56.271,56.27c-28.076,28.078-28.076,73.598,0,101.676l56.271,56.27
		C7657.868,1440.203,7703.386,1440.203,7731.465,1412.125z"/>
	<linearGradient id="SVGID_13_" gradientUnits="userSpaceOnUse" x1="5988.5903" y1="-1264.5498" x2="10356.5859" y2="3103.4453">
		<stop  offset="0" style="stop-color:#FFFFFF"/>
		<stop  offset="1" style="stop-color:#000000"/>
	</linearGradient>
	<path fill="url(#SVGID_13_)" d="M8315.855,1220.665c28.078,28.078,73.598,28.078,101.678,0l56.268-56.27
		c28.078-28.078,28.08-73.598,0.002-101.676l-56.27-56.273c-28.078-28.078-73.6-28.074-101.678,0.004l-56.268,56.27
		c-28.08,28.078-28.08,73.598-0.002,101.676L8315.855,1220.665z"/>
	<linearGradient id="SVGID_14_" gradientUnits="userSpaceOnUse" x1="5703.3813" y1="-979.3633" x2="10071.3828" y2="3388.6387">
		<stop  offset="0" style="stop-color:#FFFFFF"/>
		<stop  offset="1" style="stop-color:#000000"/>
	</linearGradient>
	<path fill="url(#SVGID_14_)" d="M8501.297,1874.82l56.268-56.266c28.08-28.082,28.08-73.602,0-101.68l-56.268-56.27
		c-28.078-28.078-73.6-28.082-101.68,0l-56.268,56.27c-28.078,28.078-28.078,73.602,0,101.68l56.268,56.266
		C8427.697,1902.898,8473.219,1902.898,8501.297,1874.82z"/>
	<linearGradient id="SVGID_15_" gradientUnits="userSpaceOnUse" x1="5128.5137" y1="-404.4731" x2="9496.5117" y2="3963.5254">
		<stop  offset="0" style="stop-color:#FFFFFF"/>
		<stop  offset="1" style="stop-color:#000000"/>
	</linearGradient>
	<path fill="url(#SVGID_15_)" d="M8270.947,2580.016c-28.08-28.082-73.602-28.078-101.68,0L8113,2636.281
		c-28.079,28.078-28.08,73.602,0,101.68l56.267,56.266c28.079,28.078,73.602,28.078,101.68,0l56.268-56.266
		c28.078-28.078,28.078-73.602,0-101.68L8270.947,2580.016z"/>
</g>
</svg>
