<?xml version="1.0" encoding="utf-8"?>
<!-- Generator: Adobe Illustrator 19.2.1, SVG Export Plug-In . SVG Version: 6.00 Build 0)  -->
<svg version="1.1" id="Layer_1" xmlns="http://www.w3.org/2000/svg" xmlns:xlink="http://www.w3.org/1999/xlink" x="0px" y="0px"
	 viewBox="0 0 62 65.7" style="enable-background:new 0 0 62 65.7;" xml:space="preserve">
<style type="text/css">
	.st0{fill:#FFFFFF;}
	.st1{display:none;fill:#FFFFFF;}
	.st2{fill:#F68A1F;}
</style>
<path class="st0" d="M53.1,56.4C59,50.2,62,42.3,62,32.8s-3-17.4-9.1-23.6C46.9,3.1,39.6,0,31,0C22,0,14.6,3.2,8.8,9.5
	C2.9,15.8,0,23.6,0,32.8c0,9.6,3,17.5,9,23.6s13.3,9.2,22,9.2C39.8,65.7,47.1,62.6,53.1,56.4z"/>
<rect x="17.4" y="21.3" class="st1" width="26.8" height="26.8"/>
<path class="st2" d="M49.7,52.8c5-5.3,7.5-11.9,7.5-20s-2.6-14.8-7.7-20C44.5,7.6,38.3,5,31,5c-7.6,0-13.9,2.7-18.8,8
	S4.8,25,4.8,32.8c0,8.1,2.5,14.8,7.6,20s11.3,7.8,18.6,7.8C38.4,60.7,44.7,58.1,49.7,52.8z"/>
<polygon class="st0" points="43.1,31.7 31.9,31.7 31.9,20.4 29.2,20.4 29.2,31.7 18,31.7 18,34.3 29.2,34.3 29.2,45.6 31.9,45.6 
	31.9,34.3 43.1,34.3 "/>
</svg>
