<?xml version="1.0" encoding="utf-8"?>
<!-- Generator: Adobe Illustrator 22.1.0, SVG Export Plug-In . SVG Version: 6.00 Build 0)  -->
<svg version="1.1" id="Capa_1" xmlns="http://www.w3.org/2000/svg" xmlns:xlink="http://www.w3.org/1999/xlink" x="0px" y="0px"
	 viewBox="0 0 17 17" style="enable-background:new 0 0 17 17;" xml:space="preserve">
<style type="text/css">
	.st0{fill:#337AB7;}
</style>
<g>
	<path class="st0" d="M16.7,3.6c-0.2-0.2-0.4-0.3-0.7-0.3h-2.9v-1c0-0.4-0.2-0.8-0.5-1.2c-0.3-0.3-0.7-0.5-1.2-0.5H5.6
		c-0.4,0-0.8,0.2-1.2,0.5C4.1,1.5,3.9,1.8,3.9,2.3v1H1c-0.3,0-0.5,0.1-0.7,0.3C0.1,3.7,0,4,0,4.2v1.3C0,6,0.1,6.5,0.4,7
		C0.7,7.5,1.1,8,1.6,8.3c0.5,0.4,1.1,0.7,1.8,1C4,9.6,4.8,9.8,5.5,9.8c0.3,0.4,0.6,0.7,1,1C6.8,11,6.9,11.2,7,11.5
		c0.1,0.3,0.1,0.6,0.1,0.9c0,0.4-0.1,0.7-0.3,0.9c-0.2,0.3-0.5,0.4-1,0.4c-0.5,0-1,0.2-1.4,0.5c-0.4,0.3-0.6,0.7-0.6,1.2V16
		c0,0.1,0,0.2,0.1,0.2c0.1,0.1,0.1,0.1,0.2,0.1h8.5c0.1,0,0.2,0,0.2-0.1c0.1-0.1,0.1-0.1,0.1-0.2v-0.7c0-0.5-0.2-0.9-0.6-1.2
		c-0.4-0.3-0.9-0.5-1.4-0.5c-0.5,0-0.8-0.1-1-0.4c-0.2-0.3-0.3-0.6-0.3-0.9c0-0.3,0-0.7,0.1-0.9c0.1-0.3,0.3-0.5,0.5-0.7
		c0.4-0.3,0.7-0.6,1-1c0.8,0,1.5-0.2,2.2-0.5c0.7-0.3,1.3-0.6,1.8-1C15.9,8,16.3,7.5,16.6,7C16.9,6.5,17,6,17,5.6V4.2
		C17,4,16.9,3.7,16.7,3.6z M2.3,7.2c-0.6-0.6-1-1.1-1-1.7v-1h2.6c0,1.4,0.3,2.7,0.8,3.8C3.7,8.2,2.9,7.8,2.3,7.2z M15.7,5.6
		c0,0.5-0.3,1.1-1,1.7c-0.6,0.6-1.4,1-2.4,1.2c0.5-1.1,0.8-2.4,0.8-3.8h2.6L15.7,5.6L15.7,5.6z"/>
</g>
</svg>
