<?xml version="1.0" encoding="utf-8"?>
<!-- Generator: Adobe Illustrator 16.0.0, SVG Export Plug-In . SVG Version: 6.00 Build 0)  -->
<!DOCTYPE svg PUBLIC "-//W3C//DTD SVG 1.1//EN" "http://www.w3.org/Graphics/SVG/1.1/DTD/svg11.dtd">
<svg version="1.1" id="Layer_1" xmlns="http://www.w3.org/2000/svg" xmlns:xlink="http://www.w3.org/1999/xlink" x="0px" y="0px"
	 width="589.328px" height="589.328px" viewBox="2.975 0 589.328 589.328" enable-background="new 2.975 0 589.328 589.328"
	 xml:space="preserve">
<path fill="#469C00" d="M297.639,0C134.9,0,2.975,131.926,2.975,294.664c0,162.738,131.925,294.662,294.664,294.662
	c162.737,0,294.665-131.924,294.665-294.662C592.303,131.926,460.375,0,297.639,0z M427.321,403.835l-20.371,20.373
	c-7.031,7.029-18.432,7.029-25.463,0l-84.009-84.01l-84.007,84.008c-7.031,7.029-18.432,7.029-25.462,0l-20.371-20.373
	c-7.031-7.031-7.031-18.432,0-25.461l84.007-84.008l-84.007-84.008c-7.031-7.031-7.031-18.43,0-25.461l20.372-20.372
	c7.03-7.031,18.431-7.031,25.462,0l84.006,84.007l84.009-84.01c7.031-7.029,18.432-7.029,25.463,0.002l20.371,20.372
	c7.029,7.031,7.029,18.432,0,25.463l-84.01,84.008l84.01,84.01C434.352,385.406,434.352,396.806,427.321,403.835z"/>
</svg>
