<?xml version="1.0" encoding="utf-8"?>
<!-- Generator: Adobe Illustrator 19.2.1, SVG Export Plug-In . SVG Version: 6.00 Build 0)  -->
<svg version="1.1" id="Social_Icons" xmlns="http://www.w3.org/2000/svg" xmlns:xlink="http://www.w3.org/1999/xlink" x="0px"
	 y="0px" viewBox="0 0 128 128" style="enable-background:new 0 0 128 128;" xml:space="preserve">
<style type="text/css">
	.st0{fill:#0066DC;}
	.st1{fill:none;}
	.st2{fill:#FFFFFF;}
</style>
<circle class="st0" cx="64" cy="64" r="64"/>
<rect y="0" class="st1" width="128" height="128"/>
<path class="st2" d="M73.7,22.2v29.2c-4.5-5.7-10.7-8.5-18.8-8.5c-8.5,0-16.1,3.1-22.3,9.2c-7,6.7-10.7,15.3-10.7,24.9
	c0,10.5,4,19.5,11.7,26.3c5.9,5.2,12.8,7.9,20.9,7.9c8,0,14-2.1,19.8-7.9v7.5h19.1V18.1L73.7,22.2z M58.8,93.4
	c-10.1,0-17.3-7.1-17.3-16.5c0-9,7.2-16.6,16.6-16.6c9.2,0,16.3,7.2,16.3,16.8C74.4,86.4,67.3,93.4,58.8,93.4z"/>
</svg>
