<?xml version="1.0" encoding="utf-8"?>
<!-- Generator: Adobe Illustrator 16.0.0, SVG Export Plug-In . SVG Version: 6.00 Build 0)  -->
<!DOCTYPE svg PUBLIC "-//W3C//DTD SVG 1.1//EN" "http://www.w3.org/Graphics/SVG/1.1/DTD/svg11.dtd">
<svg version="1.1" id="Layer_1" xmlns="http://www.w3.org/2000/svg" xmlns:xlink="http://www.w3.org/1999/xlink" x="0px" y="0px"
	 width="595.279px" height="597px" viewBox="0 122.445 595.279 597" enable-background="new 0 122.445 595.279 597"
	 xml:space="preserve">
<path fill="#3C579E" d="M297.64,123.305C133.258,123.305,0,256.563,0,420.945c0,164.382,133.258,297.64,297.64,297.64
	s297.64-133.258,297.64-297.64C595.28,256.563,462.022,123.305,297.64,123.305z M393.907,300.959h-39.995
	c-26.974,0-32.089,13.487-32.089,32.089v46.041h68.829l-9.767,59.993h-59.528V606.97H261.83V439.082h-59.993v-59.993h59.993v-55.342
	c0-55.808,33.02-88.827,82.781-88.827c23.718,0,43.251,2.325,49.296,3.255V300.959z"/>
</svg>
