<?xml version="1.0" encoding="utf-8"?>
<!-- Generator: Adobe Illustrator 16.0.0, SVG Export Plug-In . SVG Version: 6.00 Build 0)  -->
<!DOCTYPE svg PUBLIC "-//W3C//DTD SVG 1.1//EN" "http://www.w3.org/Graphics/SVG/1.1/DTD/svg11.dtd">
<svg version="1.1" id="Layer_1" xmlns="http://www.w3.org/2000/svg" xmlns:xlink="http://www.w3.org/1999/xlink" x="0px" y="0px"
	 width="595.279px" height="597.689px" viewBox="0 121.445 595.279 597.689" enable-background="new 0 121.445 595.279 597.689"
	 xml:space="preserve">
<path fill="#D95032" d="M297.64,123.305C133.258,123.305,0,256.563,0,420.945c0,164.382,133.258,297.64,297.64,297.64
	s297.64-133.258,297.64-297.64C595.28,256.563,462.022,123.305,297.64,123.305z M380.886,425.596
	c0,91.617-60.458,153.006-151.145,153.006c-88.362,0-160.447-70.689-160.447-157.656s72.085-157.656,160.447-157.656
	c38.6,0,76.27,13.952,105.104,38.6l-40.926,46.041c-17.672-15.347-40.925-23.718-64.644-23.718
	c-54.412,0-98.128,43.251-98.128,96.733c0,53.017,44.181,96.732,98.128,96.732c46.041,0,75.806-21.857,85.571-61.388h-84.176
	v-61.389h150.215V425.596z M501.802,432.106v46.507h-37.204v-46.507h-46.507v-37.205h46.507v-46.506h37.204v46.506h46.507v37.205
	H501.802z"/>
</svg>
