<?xml version="1.0" encoding="utf-8"?>
<!-- Generator: Adobe Illustrator 16.0.0, SVG Export Plug-In . SVG Version: 6.00 Build 0)  -->
<!DOCTYPE svg PUBLIC "-//W3C//DTD SVG 1.1//EN" "http://www.w3.org/Graphics/SVG/1.1/DTD/svg11.dtd">
<svg version="1.1" id="Layer_1" xmlns="http://www.w3.org/2000/svg" xmlns:xlink="http://www.w3.org/1999/xlink" x="0px" y="0px"
	 width="595.279px" height="597px" viewBox="0 121.445 595.279 597" enable-background="new 0 121.445 595.279 597"
	 xml:space="preserve">
<g>
	<path fill="#000349" d="M383.211,266.079H212.533c-38.6,0-69.759,31.159-69.759,69.759v170.678c0,38.601,31.159,69.76,69.759,69.76
		h170.678c38.601,0,69.76-31.159,69.76-69.76V335.838C452.971,297.238,421.812,266.079,383.211,266.079z M297.64,513.958
		c-51.156,0-93.013-41.856-93.013-93.013c0-51.157,41.856-93.013,93.013-93.013c51.157,0,93.013,41.855,93.013,93.013
		C390.653,472.102,348.797,513.958,297.64,513.958z M396.698,343.28c-11.815,0-21.394-9.578-21.394-21.393
		s9.578-21.393,21.394-21.393c11.814,0,21.393,9.578,21.393,21.393S408.513,343.28,396.698,343.28z"/>
	<path fill="#000349" d="M297.64,359.092c-34.414,0-61.854,27.904-61.854,61.854c0,34.414,27.904,61.854,61.854,61.854
		s61.854-27.904,61.854-61.854C359.493,386.53,332.055,359.092,297.64,359.092z"/>
	<path fill="#000349" d="M297.64,123.305C133.258,123.305,0,256.563,0,420.945c0,164.382,133.258,297.64,297.64,297.64
		s297.64-133.258,297.64-297.64C595.28,256.563,462.022,123.305,297.64,123.305z M484.13,506.517
		c-0.465,55.343-45.576,100.453-101.384,100.453H212.533c-55.808,0-100.918-45.11-100.918-100.918V335.838
		c0-55.807,45.11-100.918,100.918-100.918h170.678c55.343,0,100.919,45.111,100.919,100.918V506.517z"/>
</g>
</svg>
