<?xml version="1.0" encoding="utf-8"?>
<!-- Generator: Adobe Illustrator 16.0.0, SVG Export Plug-In . SVG Version: 6.00 Build 0)  -->
<!DOCTYPE svg PUBLIC "-//W3C//DTD SVG 1.1//EN" "http://www.w3.org/Graphics/SVG/1.1/DTD/svg11.dtd">
<svg version="1.1" id="Layer_1" xmlns="http://www.w3.org/2000/svg" xmlns:xlink="http://www.w3.org/1999/xlink" x="0px" y="0px"
	 width="113px" height="115px" viewBox="6.129 6.488 113 115" enable-background="new 6.129 6.488 113 115" xml:space="preserve">
<path fill="#FFFFFF" d="M117.815,53.543H63.938v22.22h31.013c-1.55,7.566-5.763,13.387-11.79,17.177l-0.012-0.008
	c-5.211,3.27-11.775,5.029-19.202,5.029c-15.167,0-27.966-9.797-32.45-23.354c-1.101-3.344-1.715-6.91-1.715-10.628
	c0-3.736,0.623-7.318,1.735-10.676l-0.002-0.002c4.49-13.545,17.264-23.285,32.423-23.285c8.147,0,15.506,2.875,21.288,7.58
	l16.819-16.73C91.796,11.978,78.657,6.488,63.938,6.488c-22.841,0-42.474,13.008-51.88,32.014c-0.001,0.002-0.002,0.004-0.003,0.007
	c-0.002,0.005-0.004,0.009-0.006,0.013h0.001c-3.788,7.667-5.92,16.301-5.92,25.458c0,9.156,2.135,17.794,5.921,25.458
	c9.404,19.021,29.049,32.05,51.897,32.05c14.096,0,27.553-4.983,37.655-14.318l0.007,0.006
	c10.616-9.813,17.521-24.431,17.521-43.177C119.129,60.6,118.602,56.941,117.815,53.543"/>
</svg>
