<?xml version="1.0" encoding="utf-8"?>
<!-- Generator: Adobe Illustrator 16.0.0, SVG Export Plug-In . SVG Version: 6.00 Build 0)  -->
<!DOCTYPE svg PUBLIC "-//W3C//DTD SVG 1.1//EN" "http://www.w3.org/Graphics/SVG/1.1/DTD/svg11.dtd">
<svg version="1.1" id="Layer_1" xmlns="http://www.w3.org/2000/svg" xmlns:xlink="http://www.w3.org/1999/xlink" x="0px" y="0px"
	 width="115px" height="105px" viewBox="6.501 11.5 115 105" enable-background="new 6.501 11.5 115 105" xml:space="preserve">
<path fill="#FFFFFF" d="M121.501,23.93c-4.226,2.109-8.774,3.534-13.548,4.171c4.873-3.276,8.613-8.472,10.376-14.66
	c-4.563,3.034-9.605,5.241-14.992,6.424c-4.293-5.149-10.43-8.365-17.22-8.365c-13.021,0-23.584,11.869-23.584,26.506
	c0,2.079,0.202,4.095,0.607,6.038c-19.607-1.108-36.988-11.65-48.632-27.706c-2.032,3.929-3.193,8.486-3.193,13.34
	c0,9.192,4.166,17.307,10.497,22.062c-3.86-0.129-7.506-1.335-10.692-3.306v0.326c0,12.847,8.133,23.563,18.933,25.991
	c-1.977,0.622-4.063,0.934-6.217,0.934c-1.518,0-3.003-0.16-4.441-0.472c3.003,10.526,11.71,18.194,22.038,18.399
	c-8.073,7.114-18.251,11.353-29.301,11.353c-1.904,0-3.787-0.121-5.629-0.364C16.943,112.108,29.35,116.5,42.667,116.5
	c43.403,0,67.127-40.385,67.127-75.417c0-1.152-0.019-2.305-0.06-3.435C114.346,33.911,118.349,29.247,121.501,23.93"/>
</svg>
