<?xml version="1.0" encoding="utf-8"?>
<!-- Generator: Adobe Illustrator 16.0.0, SVG Export Plug-In . SVG Version: 6.00 Build 0)  -->
<!DOCTYPE svg PUBLIC "-//W3C//DTD SVG 1.1//EN" "http://www.w3.org/Graphics/SVG/1.1/DTD/svg11.dtd">
<svg version="1.1" id="Layer_1" xmlns="http://www.w3.org/2000/svg" xmlns:xlink="http://www.w3.org/1999/xlink" x="0px" y="0px"
	 width="115px" height="115px" viewBox="186.208 188.22 115 115" enable-background="new 186.208 188.22 115 115"
	 xml:space="preserve">
<g>
	<path fill="#FFFFFF" d="M297.644,224.833c-3.681-9.665-9.532-17.714-17.554-24.196c-7.716-6.225-16.563-10.086-26.378-11.677
		c-7.503-1.217-14.959-0.936-22.344,0.866c-11.584,2.831-21.329,8.705-29.233,17.597c-6.535,7.348-10.782,15.866-12.811,25.413
		c-1.864,8.752-1.604,17.504,0.778,26.162c1.274,4.61,3.067,9.01,5.498,13.128c0.496,0.819,0.613,1.498,0.283,2.387
		c-1.227,3.416-2.359,6.833-3.539,10.272c-1.935,5.64-3.846,11.303-5.757,16.942c-0.141,0.444-0.613,1.006-0.236,1.381
		c0.331,0.304,0.897-0.094,1.321-0.234c9.579-3.019,19.158-6.061,28.714-9.126c0.708-0.234,1.25-0.188,1.888,0.164
		c2.1,1.146,4.294,2.105,6.535,2.925c10.098,3.627,20.385,4.563,30.956,2.434c13.685-2.785,24.868-9.665,33.456-20.499
		c7.998-10.086,11.844-21.693,11.985-36.529C301.277,238.592,299.672,230.051,297.644,224.833z M291.627,245.894
		c-0.448,12.777-5.474,23.588-14.864,32.411c-7.456,6.996-16.327,11.021-26.425,12.309c-8.234,1.053-16.209-0.117-23.877-3.347
		c-2.359-0.982-4.647-2.106-6.771-3.511c-0.637-0.421-1.227-0.468-1.958-0.233c-5.544,1.802-11.136,3.58-16.988,5.452
		c1.085-3.205,2.053-6.154,3.044-9.103c0.826-2.387,1.604-4.797,2.477-7.184c0.283-0.796,0.142-1.357-0.33-2.036
		c-4.247-6.037-6.889-12.754-7.857-20.055c-1.297-9.665,0.236-18.885,4.743-27.566c4.082-7.886,9.957-14.134,17.625-18.721
		c8.965-5.335,18.663-7.559,29.021-6.458c11.915,1.264,22.013,6.318,30.059,15.187C287.993,222.376,292.052,233.374,291.627,245.894
		z"/>
	<path fill="#FFFFFF" d="M273.129,258.062c-3.963-2.176-7.856-4.423-12.009-6.201c-1.392-0.608-2.029-0.397-2.949,0.819
		c-1.392,1.849-3.044,3.463-4.554,5.219c-0.825,0.936-1.793,1.053-2.878,0.562c-0.283-0.141-0.566-0.305-0.85-0.422
		c-8.14-3.65-14.133-9.57-18.403-17.27c-0.731-1.31-0.59-1.919,0.472-2.995c1.038-1.053,2.1-2.106,2.973-3.299
		c0.755-1.006,1.652-2.106,1.133-3.51c-1.534-4.095-3.067-8.167-4.648-12.239c-0.448-1.146-1.345-1.778-2.667-1.708
		c-0.708,0.047-1.416-0.023-2.123-0.117c-1.675-0.234-3.162,0.234-4.365,1.311c-3.751,3.299-5.733,7.441-5.851,13.011
		c-0.023,1.802,0.566,4.048,1.369,6.248c1.392,4.142,3.893,7.629,6.3,11.186c3.138,4.61,6.842,8.729,11.042,12.426
		c5.285,4.634,11.585,7.395,18.121,9.735c3.114,1.123,6.252,1.965,9.649,1.193c7.007-1.592,10.995-5.195,11.207-12.099
		C274.12,259.069,273.862,258.46,273.129,258.062z"/>
</g>
</svg>
