<?xml version="1.0" encoding="utf-8"?>
<!-- Generator: Adobe Illustrator 16.0.0, SVG Export Plug-In . SVG Version: 6.00 Build 0)  -->
<!DOCTYPE svg PUBLIC "-//W3C//DTD SVG 1.1//EN" "http://www.w3.org/Graphics/SVG/1.1/DTD/svg11.dtd">
<svg version="1.1" id="Layer_1" xmlns="http://www.w3.org/2000/svg" xmlns:xlink="http://www.w3.org/1999/xlink" x="0px" y="0px"
	 width="72px" height="72px" viewBox="3.5 -13 72 72" enable-background="new 3.5 -13 72 72" xml:space="preserve">
<g>
	<path fill="#1DB3FF" d="M12.73,35.162L12.73,35.162c-0.471,0-0.931,0.139-1.322,0.4l-0.019,0.011
		c-0.042,0.028-0.081,0.06-0.121,0.091c-0.021,0.017-0.043,0.031-0.063,0.048c-0.03,0.025-0.058,0.052-0.087,0.08
		c-0.027,0.025-0.056,0.049-0.083,0.076c-0.029,0.029-0.055,0.061-0.083,0.091c-0.024,0.026-0.049,0.052-0.072,0.08
		c-0.039,0.047-0.074,0.098-0.11,0.148c-0.009,0.013-0.019,0.024-0.028,0.037c-0.259,0.384-0.41,0.848-0.41,1.347
		c0,1.329,1.073,2.407,2.396,2.407h0c1.324,0,2.397-1.078,2.397-2.408C15.127,36.239,14.054,35.162,12.73,35.162z"/>
	<path fill="#006665" d="M75.494,42.537c-0.309-2.108-4.995-3.761-14.731-6.454c-0.837-0.232-1.722-0.476-2.495-0.699
		c1.809-0.966,3.044-2.877,3.044-5.066c0-1.05-0.287-2.08-0.829-2.979c1.707-1.021,2.798-2.894,2.798-4.933
		c0.001-1.05-0.286-2.081-0.829-2.979c1.732-1.041,2.793-2.912,2.797-4.933c0-3.163-2.569-5.737-5.728-5.737H48.682
		c1.231-6.611,1.271-14.816-2.167-19.065C45.07-12.094,43.157-13,40.831-13c-1.813,0-3.084,0.446-3.885,1.364
		c-1.333,1.527-1.012,3.976-0.672,6.569c0.331,2.528,0.707,5.393-0.442,7.584c-2.752,5.251-10.241,6.18-10.795,6.241h-1.377
		c-2.617,0-3.146,0.533-3.146,3.165v28.879c0,2.632,0.529,3.164,3.146,3.164h27.988c0.549,0,1.937,0.102,3.694,0.229
		c3.387,0.248,8.505,0.622,12.595,0.622c5.446,0,7.568-0.607,7.568-2.165L75.494,42.537z M67.935,43.235
		c-4.032,0-9.116-0.372-12.479-0.618c-1.859-0.136-3.203-0.234-3.81-0.234H23.658c-0.32,0-1.295,0-1.44-0.133
		c-0.13-0.145-0.13-1.125-0.13-1.449V11.923c0-0.324,0-1.308,0.133-1.45c0.14-0.132,1.117-0.132,1.438-0.132h1.418l0.072-0.003
		c0.359-0.034,8.831-0.89,12.077-7.083c1.382-2.637,0.972-5.767,0.61-8.528c-0.292-2.228-0.568-4.332,0.294-5.319
		c0.484-0.555,1.369-0.824,2.701-0.824c1.855,0,3.315,0.689,4.461,2.108c2.683,3.316,3.333,10.655,1.66,18.696l-0.199,0.954h12.77
		c2.29,0,4.152,1.863,4.152,4.154c0,1.754-1.057,3.282-2.692,3.891l-1.079,0.402l0.764,0.866c0.67,0.761,1.039,1.739,1.038,2.753
		c0,1.754-1.057,3.281-2.692,3.892L57.935,26.7l0.764,0.865c0.67,0.76,1.039,1.739,1.038,2.752c0,2.282-1.857,4.146-4.137,4.153
		l-1.571,0.005l0.943,1.262c0.335,0.45,1.12,0.694,5.372,1.871c2.749,0.76,6.169,1.707,8.937,2.7
		c3.368,1.21,4.302,1.983,4.558,2.298C73.479,42.807,72.208,43.235,67.935,43.235z"/>
	<path fill="#1DB3FF" d="M16.917,8.7H5.65c-1.185,0-2.15,0.969-2.15,2.159v30.916c0,1.19,0.965,2.159,2.15,2.159h11.268
		c1.185,0,2.15-0.969,2.15-2.159V10.859C19.067,9.668,18.103,8.7,16.917,8.7z M17.491,41.774c0,0.317-0.257,0.576-0.573,0.576H5.65
		c-0.316,0-0.574-0.259-0.574-0.576V10.859c0-0.318,0.258-0.576,0.574-0.576h11.268c0.316,0,0.573,0.258,0.573,0.576V41.774z"/>
</g>
</svg>
