<?xml version="1.0" encoding="utf-8"?>
<!-- Generator: Adobe Illustrator 16.0.0, SVG Export Plug-In . SVG Version: 6.00 Build 0)  -->
<!DOCTYPE svg PUBLIC "-//W3C//DTD SVG 1.1//EN" "http://www.w3.org/Graphics/SVG/1.1/DTD/svg11.dtd">
<svg version="1.1" id="Layer_1" xmlns="http://www.w3.org/2000/svg" xmlns:xlink="http://www.w3.org/1999/xlink" x="0px" y="0px"
	 width="137px" height="110px" viewBox="0 0 137 110" enable-background="new 0 0 137 110" xml:space="preserve">
<g>
	<path d="M25.52,41.286H4.081c-2.255,0-4.09,1.843-4.09,4.108v58.816c0,2.265,1.835,4.108,4.09,4.108H25.52
		c2.256,0,4.091-1.844,4.091-4.108V45.394C29.611,43.129,27.776,41.286,25.52,41.286z M17.554,100.789c-2.518,0-4.56-2.05-4.56-4.58
		c0-2.529,2.042-4.579,4.56-4.579c2.518,0,4.561,2.05,4.561,4.579C22.115,98.739,20.072,100.789,17.554,100.789z"/>
	<path d="M136.979,105.661c-0.588-4.011-9.508-7.155-28.03-12.278c-1.595-0.441-3.277-0.906-4.748-1.331
		c3.442-1.838,5.793-5.473,5.793-9.638c0.001-1.998-0.544-3.957-1.578-5.666c3.247-1.941,5.323-5.506,5.323-9.385
		c0.002-1.998-0.543-3.957-1.575-5.668c3.246-1.939,5.323-5.506,5.323-9.384c0-6.018-4.889-10.914-10.898-10.914H85.961
		c2.342-12.577,2.417-28.188-4.122-36.271c-2.75-3.399-6.39-5.123-10.817-5.123c-3.451,0-5.869,0.849-7.394,2.594
		c-2.537,2.906-1.926,7.566-1.279,12.499c0.63,4.808,1.345,10.259-0.841,14.428c-5.237,9.991-19.487,11.756-20.541,11.873h-2.62
		c-4.981,0-5.988,1.013-5.988,6.021v54.941c0,5.009,1.007,6.021,5.988,6.021H91.6c1.047,0,3.687,0.193,7.03,0.438
		c6.444,0.471,16.183,1.182,23.966,1.182c10.361,0,14.397-1.155,14.397-4.119L136.979,105.661z"/>
</g>
</svg>
