<?xml version="1.0" encoding="utf-8"?>
<!-- Generator: Adobe Illustrator 16.0.0, SVG Export Plug-In . SVG Version: 6.00 Build 0)  -->
<!DOCTYPE svg PUBLIC "-//W3C//DTD SVG 1.1//EN" "http://www.w3.org/Graphics/SVG/1.1/DTD/svg11.dtd">
<svg version="1.1" id="Слой_1" xmlns="http://www.w3.org/2000/svg" xmlns:xlink="http://www.w3.org/1999/xlink" x="0px" y="0px"
	 width="32px" height="22.003px" viewBox="0 4.974 32 22.003" enable-background="new 0 4.974 32 22.003" xml:space="preserve">
<g id="Menu">
	<path fill="#121313" d="M1,6.975h30c0.552,0,1-0.449,1-1s-0.448-1-1-1H1c-0.552,0-1,0.448-1,1S0.448,6.975,1,6.975z"/>
	<path fill="#121313" d="M31,14.976H1c-0.552,0-1,0.448-1,1s0.448,1.001,1,1.001h30c0.552,0,1-0.449,1-1.001
		S31.552,14.976,31,14.976z"/>
	<path fill="#121313" d="M31,24.977H1c-0.552,0-1,0.449-1,1c0,0.553,0.448,1,1,1h30c0.552,0,1-0.447,1-1
		C32,25.426,31.552,24.977,31,24.977z"/>
</g>
</svg>
