<?xml version="1.0" encoding="utf-8"?>
<!-- Generator: Adobe Illustrator 19.2.1, SVG Export Plug-In . SVG Version: 6.00 Build 0)  -->
<svg version="1.1" id="Layer_1" xmlns="http://www.w3.org/2000/svg" xmlns:xlink="http://www.w3.org/1999/xlink" x="0px" y="0px"
	 viewBox="0 0 128 128" style="enable-background:new 0 0 128 128;" xml:space="preserve">
<style type="text/css">
	.st0{fill:#BD2026;}
	.st1{fill:#FFFFFF;}
</style>
<circle class="st0" cx="64" cy="64" r="64"/>
<g>
	<path class="st1" d="M53,108.3c0.8-3,4-15.2,4-15.2c2.1,4,8.2,7.3,14.7,7.3c19.3,0,33.2-17.7,33.2-39.8c0-21.1-17.2-36.9-39.4-36.9
		c-27.6,0-42.3,18.5-42.3,38.7c0,9.4,5,21.1,13,24.8c1.2,0.6,1.9,0.3,2.1-0.9c0.2-0.9,1.3-5.2,1.8-7.3c0.2-0.6,0.1-1.2-0.4-1.8
		c-2.6-3.2-4.8-9.1-4.8-14.6c0-14.1,10.7-27.8,28.9-27.8c15.7,0,26.7,10.7,26.7,26c0,17.3-8.7,29.3-20.1,29.3
		c-6.3,0-11-5.2-9.5-11.5c1.8-7.6,5.3-15.8,5.3-21.3c0-4.9-2.6-9-8.1-9c-6.4,0-11.6,6.6-11.6,15.5c0,5.7,1.9,9.5,1.9,9.5
		s-6.3,26.8-7.5,31.8c-1.3,5.5-0.7,14.4-0.2,18.3c0,0,0,0.1,0,0.1c1.4,0.6,2.9,1.1,4.3,1.5c0,0,0,0,0-0.1
		C46.8,122.4,51.6,113.9,53,108.3z"/>
</g>
</svg>
