<?xml version="1.0" encoding="utf-8"?>
<!-- Generator: Adobe Illustrator 16.0.0, SVG Export Plug-In . SVG Version: 6.00 Build 0)  -->
<!DOCTYPE svg PUBLIC "-//W3C//DTD SVG 1.1//EN" "http://www.w3.org/Graphics/SVG/1.1/DTD/svg11.dtd">
<svg version="1.1" id="Layer_1" xmlns="http://www.w3.org/2000/svg" xmlns:xlink="http://www.w3.org/1999/xlink" x="0px" y="0px"
	 width="50px" height="49.986px" viewBox="0 0 50 49.986" enable-background="new 0 0 50 49.986" xml:space="preserve">
<path fill="#333333" d="M25,0c13.807,0,25,11.192,25,25S38.807,50,25,50C11.192,50,0,38.807,0,25S11.192,0,25,0z"/>
<path fill="#FFFFFF" d="M26.027,13.93c-0.561-0.554-1.495-0.559-2.053,0L13.922,23.84c-0.566,0.562-0.565,1.471,0,2.031
	c0.565,0.562,1.485,0.562,2.052,0l7.575-7.471V35.05c0,0.794,0.649,1.438,1.452,1.438c0.799,0,1.45-0.644,1.45-1.438V18.401
	l7.576,7.471c0.565,0.562,1.482,0.562,2.05,0c0.565-0.563,0.565-1.473,0-2.031L26.027,13.93z"/>
</svg>
