<?xml version="1.0" encoding="utf-8"?>
<!-- Generator: Adobe Illustrator 19.2.1, SVG Export Plug-In . SVG Version: 6.00 Build 0)  -->
<svg version="1.1" id="Layer_1" xmlns="http://www.w3.org/2000/svg" xmlns:xlink="http://www.w3.org/1999/xlink" x="0px" y="0px"
	 viewBox="0 0 128 128" style="enable-background:new 0 0 128 128;" xml:space="preserve">
<style type="text/css">
	.st0{fill:#F68A1F;}
	.st1{fill:#FFFFFF;}
</style>
<g>
	<circle class="st0" cx="64" cy="64" r="64"/>
</g>
<g>
	<g>
		<path class="st1" d="M92.4,59c0-14.6-11.8-26.4-26.4-26.4c-12.4,0-22.7,8.5-25.6,20c-7.9,1.2-14,8-14,16.3
			c0,9.1,7.4,16.5,16.5,16.5h13.2c1.8,0,3.3-1.5,3.3-3.3V73c0-1.4-1.1-2.5-2.5-2.5h-5c-2.4,0-3.1-1.7-1.5-3.7l12.7-16.2
			c1.6-2,4.2-2,5.8,0l12.7,16.2c1.6,2,0.9,3.7-1.5,3.7h-5c-1.4,0-2.5,1.1-2.5,2.5v9.1c0,1.8,1.5,3.3,3.3,3.3h16.5
			c7.3,0,13.2-5.9,13.2-13.2S99.7,59,92.4,59z"/>
	</g>
</g>
</svg>
