<?xml version="1.0" encoding="utf-8"?>
<!-- Generator: Adobe Illustrator 19.2.1, SVG Export Plug-In . SVG Version: 6.00 Build 0)  -->
<svg version="1.1" id="Layer_1" xmlns="http://www.w3.org/2000/svg" xmlns:xlink="http://www.w3.org/1999/xlink" x="0px" y="0px"
	 viewBox="0 0 128 128" style="enable-background:new 0 0 128 128;" xml:space="preserve">
<style type="text/css">
	.st0{fill:#CC191E;}
	.st1{fill:#FFFFFF;}
</style>
<g>
	<circle class="st0" cx="64" cy="64" r="64"/>
</g>
<path class="st1" d="M103.2,48c0,0-0.8-5.5-3.2-7.9c-3-3.2-6.5-3.2-8-3.4c-11.2-0.8-28-0.8-28-0.8h0c0,0-16.8,0-28,0.8
	c-1.6,0.2-5,0.2-8,3.4c-2.4,2.4-3.2,7.9-3.2,7.9S24,54.5,24,61V67c0,6.5,0.8,12.9,0.8,12.9s0.8,5.5,3.2,7.9c3,3.2,7,3.1,8.8,3.4
	c6.4,0.6,27.2,0.8,27.2,0.8s16.8,0,28-0.8c1.6-0.2,5-0.2,8-3.4c2.4-2.4,3.2-7.9,3.2-7.9S104,73.5,104,67V61
	C104,54.5,103.2,48,103.2,48 M54.7,75.4l0-24.6l23.6,12.3L54.7,75.4z"/>
</svg>
