<?xml version="1.0" encoding="utf-8"?>
<!-- Generator: Adobe Illustrator 16.0.0, SVG Export Plug-In . SVG Version: 6.00 Build 0)  -->
<!DOCTYPE svg PUBLIC "-//W3C//DTD SVG 1.1//EN" "http://www.w3.org/Graphics/SVG/1.1/DTD/svg11.dtd">
<svg version="1.1" id="Layer_1" xmlns="http://www.w3.org/2000/svg" xmlns:xlink="http://www.w3.org/1999/xlink" x="0px" y="0px"
	 width="3719.256px" height="3365.327px" viewBox="4990.087 629.419 3719.256 3365.327"
	 enable-background="new 4990.087 629.419 3719.256 3365.327" xml:space="preserve">
<path fill="#7EB43B" d="M7855.449,2329.529c0,508.798-412.464,921.261-921.259,921.261c-508.799,0-921.261-412.463-921.261-921.261
	c0-508.797,412.461-921.26,921.261-921.26C7442.985,1408.27,7855.449,1820.732,7855.449,2329.529z"/>
<g>
	<linearGradient id="SVGID_1_" gradientUnits="userSpaceOnUse" x1="4556.501" y1="167.5093" x2="8924.5029" y2="4535.5112">
		<stop  offset="0" style="stop-color:#FFFFFF"/>
		<stop  offset="1" style="stop-color:#000000"/>
	</linearGradient>
	<path fill="url(#SVGID_1_)" d="M7858.319,3311.382c-28.078-28.078-73.601-28.082-101.678-0.004l-56.27,56.27
		c-28.078,28.078-28.077,73.602,0.002,101.68l56.268,56.266c28.077,28.078,73.6,28.078,101.678,0l56.27-56.266
		c28.077-28.078,28.075-73.602-0.003-101.68L7858.319,3311.382z"/>
	<linearGradient id="SVGID_2_" gradientUnits="userSpaceOnUse" x1="3587.5444" y1="1136.4863" x2="7955.5522" y2="5504.4941">
		<stop  offset="0" style="stop-color:#FFFFFF"/>
		<stop  offset="1" style="stop-color:#000000"/>
	</linearGradient>
	<path fill="url(#SVGID_2_)" d="M5576.03,2967.023c-28.078-28.078-73.6-28.074-101.678,0.004l-56.267,56.27
		c-28.078,28.078-28.08,73.598-0.003,101.676l56.27,56.27c28.079,28.078,73.6,28.078,101.678,0l56.268-56.27
		c28.078-28.078,28.08-73.598,0.001-101.676L5576.03,2967.023z"/>
	<linearGradient id="SVGID_3_" gradientUnits="userSpaceOnUse" x1="3819.6958" y1="904.3281" x2="8187.7036" y2="5272.3359">
		<stop  offset="0" style="stop-color:#FFFFFF"/>
		<stop  offset="1" style="stop-color:#000000"/>
	</linearGradient>
	<path fill="url(#SVGID_3_)" d="M6425.149,3351.836c-28.079-28.078-73.599-28.078-101.676,0l-56.27,56.27
		c-28.078,28.078-28.078,73.598,0,101.676l56.27,56.27c28.078,28.078,73.597,28.078,101.676,0l56.269-56.27
		c28.079-28.078,28.079-73.598,0-101.676L6425.149,3351.836z"/>
	<linearGradient id="SVGID_4_" gradientUnits="userSpaceOnUse" x1="4012.6543" y1="711.3755" x2="8380.6504" y2="5079.3711">
		<stop  offset="0" style="stop-color:#FFFFFF"/>
		<stop  offset="1" style="stop-color:#000000"/>
	</linearGradient>
	<path fill="url(#SVGID_4_)" d="M7194.979,3735.75c-28.077-28.078-73.601-28.078-101.681,0l-56.267,56.27
		c-28.079,28.078-28.079,73.602,0,101.68l56.267,56.27c28.08,28.078,73.604,28.078,101.681,0l56.267-56.27
		c28.08-28.082,28.08-73.598,0-101.68L7194.979,3735.75z"/>
	<linearGradient id="SVGID_5_" gradientUnits="userSpaceOnUse" x1="3974.2622" y1="749.7646" x2="8342.2578" y2="5117.7598">
		<stop  offset="0" style="stop-color:#FFFFFF"/>
		<stop  offset="1" style="stop-color:#000000"/>
	</linearGradient>
	<path fill="url(#SVGID_5_)" d="M5579.535,2197.09c-28.078-28.078-73.6-28.074-101.677,0.004l-56.268,56.266
		c-28.08,28.078-28.08,73.602-0.002,101.68l56.27,56.266c28.077,28.078,73.597,28.078,101.677,0l56.268-56.266
		c28.079-28.078,28.08-73.602,0.002-101.68L5579.535,2197.09z"/>
	<linearGradient id="SVGID_6_" gradientUnits="userSpaceOnUse" x1="4167.2192" y1="556.8076" x2="8535.2246" y2="4924.813">
		<stop  offset="0" style="stop-color:#FFFFFF"/>
		<stop  offset="1" style="stop-color:#000000"/>
	</linearGradient>
	<path fill="url(#SVGID_6_)" d="M5196.616,1428.258c-28.078-28.078-73.601-28.078-101.678,0l-56.27,56.27
		c-28.078,28.078-28.076,73.598,0.002,101.676l56.268,56.27c28.077,28.078,73.6,28.082,101.678,0.004l56.27-56.273
		c28.078-28.078,28.076-73.598-0.002-101.676L5196.616,1428.258z"/>
	<linearGradient id="SVGID_7_" gradientUnits="userSpaceOnUse" x1="5031.0386" y1="-307.0273" x2="9399.041" y2="4060.9746">
		<stop  offset="0" style="stop-color:#FFFFFF"/>
		<stop  offset="1" style="stop-color:#000000"/>
	</linearGradient>
	<path fill="url(#SVGID_7_)" d="M8648.203,3152.194l-56.268-56.27c-28.078-28.078-73.6-28.078-101.678,0l-56.27,56.27
		c-28.078,28.078-28.076,73.598,0.002,101.676l56.268,56.27c28.078,28.078,73.6,28.082,101.678,0.004l56.27-56.273
		C8676.283,3225.792,8676.281,3180.272,8648.203,3152.194z"/>
	<linearGradient id="SVGID_8_" gradientUnits="userSpaceOnUse" x1="3510.3433" y1="1213.6699" x2="7878.3452" y2="5581.6719">
		<stop  offset="0" style="stop-color:#FFFFFF"/>
		<stop  offset="1" style="stop-color:#000000"/>
	</linearGradient>
	<path fill="url(#SVGID_8_)" d="M5892.476,3437.856c-28.078-28.078-73.6-28.078-101.678,0l-56.27,56.27
		c-28.078,28.078-28.077,73.598,0.002,101.676l56.268,56.27c28.078,28.078,73.6,28.082,101.678,0.004l56.27-56.273
		c28.078-28.078,28.076-73.598-0.002-101.676L5892.476,3437.856z"/>
	<linearGradient id="SVGID_9_" gradientUnits="userSpaceOnUse" x1="4550.1382" y1="173.8887" x2="8918.1465" y2="4541.8965">
		<stop  offset="0" style="stop-color:#FFFFFF"/>
		<stop  offset="1" style="stop-color:#000000"/>
	</linearGradient>
	<path fill="url(#SVGID_9_)" d="M5963.452,1429.258c-28.078-28.078-73.598-28.078-101.677,0l-56.268,56.266
		c-28.078,28.078-28.08,73.602-0.002,101.68l56.27,56.27c28.077,28.078,73.599,28.074,101.677-0.004l56.267-56.266
		c28.08-28.078,28.08-73.602,0.002-101.68L5963.452,1429.258z"/>
	<linearGradient id="SVGID_10_" gradientUnits="userSpaceOnUse" x1="5126.6401" y1="-402.6133" x2="9494.6406" y2="3965.3877">
		<stop  offset="0" style="stop-color:#FFFFFF"/>
		<stop  offset="1" style="stop-color:#000000"/>
	</linearGradient>
	<path fill="url(#SVGID_10_)" d="M6348.68,875.695l56.269-56.27c28.079-28.078,28.079-73.598,0-101.676l-56.269-56.269
		c-28.079-28.079-73.599-28.079-101.676,0l-56.269,56.269c-28.079,28.078-28.079,73.598,0,101.676l56.269,56.27
		C6275.082,903.773,6320.602,903.773,6348.68,875.695z"/>
	<linearGradient id="SVGID_11_" gradientUnits="userSpaceOnUse" x1="5511.9238" y1="-787.8989" x2="9879.9297" y2="3580.1064">
		<stop  offset="0" style="stop-color:#FFFFFF"/>
		<stop  offset="1" style="stop-color:#000000"/>
	</linearGradient>
	<path fill="url(#SVGID_11_)" d="M7118.196,874.641l56.267-56.266c28.079-28.078,28.079-73.602,0-101.68l-56.267-56.27
		c-28.079-28.078-73.602-28.078-101.681,0l-56.267,56.27c-28.08,28.078-28.079,73.602,0,101.68l56.267,56.266
		C7044.594,902.719,7090.116,902.719,7118.196,874.641z"/>
	<linearGradient id="SVGID_12_" gradientUnits="userSpaceOnUse" x1="5549.8184" y1="-825.7915" x2="9917.8135" y2="3542.2036">
		<stop  offset="0" style="stop-color:#FFFFFF"/>
		<stop  offset="1" style="stop-color:#000000"/>
	</linearGradient>
	<path fill="url(#SVGID_12_)" d="M7731.465,1412.125l56.271-56.27c28.076-28.078,28.076-73.598,0-101.676l-56.271-56.27
		c-28.079-28.078-73.598-28.078-101.676,0l-56.271,56.27c-28.076,28.078-28.076,73.598,0,101.676l56.271,56.27
		C7657.868,1440.203,7703.386,1440.203,7731.465,1412.125z"/>
	<linearGradient id="SVGID_13_" gradientUnits="userSpaceOnUse" x1="5988.5903" y1="-1264.5498" x2="10356.5859" y2="3103.4453">
		<stop  offset="0" style="stop-color:#FFFFFF"/>
		<stop  offset="1" style="stop-color:#000000"/>
	</linearGradient>
	<path fill="url(#SVGID_13_)" d="M8315.855,1220.665c28.078,28.078,73.598,28.078,101.678,0l56.268-56.27
		c28.078-28.078,28.08-73.598,0.002-101.676l-56.27-56.273c-28.078-28.078-73.6-28.074-101.678,0.004l-56.268,56.27
		c-28.08,28.078-28.08,73.598-0.002,101.676L8315.855,1220.665z"/>
	<linearGradient id="SVGID_14_" gradientUnits="userSpaceOnUse" x1="5703.3813" y1="-979.3633" x2="10071.3828" y2="3388.6387">
		<stop  offset="0" style="stop-color:#FFFFFF"/>
		<stop  offset="1" style="stop-color:#000000"/>
	</linearGradient>
	<path fill="url(#SVGID_14_)" d="M8501.297,1874.82l56.268-56.266c28.08-28.082,28.08-73.602,0-101.68l-56.268-56.27
		c-28.078-28.078-73.6-28.082-101.68,0l-56.268,56.27c-28.078,28.078-28.078,73.602,0,101.68l56.268,56.266
		C8427.697,1902.898,8473.219,1902.898,8501.297,1874.82z"/>
	<linearGradient id="SVGID_15_" gradientUnits="userSpaceOnUse" x1="5128.5137" y1="-404.4731" x2="9496.5117" y2="3963.5254">
		<stop  offset="0" style="stop-color:#FFFFFF"/>
		<stop  offset="1" style="stop-color:#000000"/>
	</linearGradient>
	<path fill="url(#SVGID_15_)" d="M8270.947,2580.016c-28.08-28.082-73.602-28.078-101.68,0L8113,2636.281
		c-28.079,28.078-28.08,73.602,0,101.68l56.267,56.266c28.079,28.078,73.602,28.078,101.68,0l56.268-56.266
		c28.078-28.078,28.078-73.602,0-101.68L8270.947,2580.016z"/>
</g>
<g id="New_Symbol">
</g>
<g id="New_Symbol_1_">
</g>
<g id="New_Symbol_1">
</g>
<g id="New_Symbol_9_2_">
</g>
<g id="New_Symbol_7">
</g>
<g id="New_Symbol_9_1_">
</g>
<g id="New_Symbol_9">
</g>
<g id="Nuevo_símbolo">
</g>
<g id="New_Symbol_10">
</g>
<g id="New_Symbol_12">
</g>
<g id="New_Symbol_14">
</g>
<g id="New_Symbol_15">
</g>
<g id="New_Symbol_16">
</g>
<g id="New_Symbol_17_1_">
</g>
<g id="New_Symbol_18">
</g>
<g id="New_Symbol_19">
</g>
<g id="New_Symbol_17">
</g>
<g>
	<path fill-rule="evenodd" clip-rule="evenodd" fill="#FCFCFC" d="M7283.605,2207.201c-7.16-220.853-188.74-393.12-407.383-390.7
		c-233.387,2.583-379.95,188.44-395.666,346.316c13.688,0,27.313,0,40.931,0c6.426,0,12.851,0,20.619,0
		c17.748-92.116,63.109-166.191,138.776-220.161c75.654-53.951,160.213-72.684,252.24-59.75
		c152.516,21.438,278.236,157.825,287.443,312.607c9.949,167.486-95.422,315.193-254.836,356.048
		c-79.145,20.273-156.703,14.101-230.65-21.025c-98.689-46.886-160.578-125.024-188.805-229.918c-21.194,0-41.596,0-62.081,0
		c24.852,156.953,178.889,328.834,404.354,324.391C7107.537,2620.687,7291.105,2438.796,7283.605,2207.201z"/>
	<path fill-rule="evenodd" clip-rule="evenodd" fill="#FCFCFC" d="M6631.333,2229.584c4.367-7.918,10.484-14.858,15.518-22.431
		c1.623-2.439,2.32-5.496,3.445-8.271c1.465,1.001,2.936,2.001,4.404,3.002c1.479,3.775,3.102,7.496,4.4,11.329
		c13.457,39.806,26.936,79.605,40.215,119.468c3.502,10.501,9.551,16.969,21.365,16.595c11.918-0.381,17.48-7.736,20.268-18.129
		c1.963-7.308,3.645-14.695,5.453-22.042c16.688-67.998,33.355-135.992,50.139-203.963c1.156-4.674,3.209-9.127,4.852-13.686
		c2.916,2.356,3.492,4.092,3.791,5.866c9.457,54.77,18.9,109.539,28.318,164.309c10.996,64.091,22.076,128.169,32.887,192.292
		c2.461,14.593,8.836,22.214,20.74,22.856c12.264,0.659,19.328-5.882,22.658-20.641c20.754-92.268,41.533-184.521,62.369-276.77
		c2.193-9.718,4.762-19.35,7.166-29.023c0.939-0.115,1.887-0.233,2.826-0.352c1.791,3.481,3.836,6.851,5.346,10.454
		c9.635,23.064,19.818,45.927,28.451,69.372c5.639,15.328,16.008,21.05,31.213,20.954c11.373-0.073,22.824-0.732,34.096,0.361
		c5.664,0.55,12.365,3.082,16.252,7.026c17.225,17.524,45.086,19.043,62.566,2.471c17.889-16.961,18.553-44.945,1.463-62.23
		c-17.273-17.479-44.965-17.981-61.926,0.163c-6.732,7.199-13.479,9.945-22.703,9.002c-4.131-0.425-8.428-0.607-12.486,0.058
		c-9.789,1.605-14.041-3.289-17.447-11.771c-16.816-41.826-34.275-83.39-51.205-125.171c-4.297-10.578-11.043-17.79-22.756-16.817
		c-11.826,0.978-17.287,9.548-19.756,20.503c-17.563,78.24-35.195,156.483-52.873,234.704c-2.238,9.916-4.916,19.73-7.391,29.589
		c-1.01-0.083-2.02-0.166-3.023-0.256c-0.928-3.522-2.111-7.001-2.73-10.581c-5.902-33.885-11.752-67.787-17.531-101.701
		c-10.152-59.625-20.248-119.267-30.375-178.898c-3.861-22.735-7.551-45.502-11.693-68.192
		c-3.484-19.091-21.061-27.613-33.834-15.99c-4.604,4.191-7.48,11.332-9.061,17.652c-20.029,80.021-39.658,160.146-59.465,240.23
		c-2.135,8.618-4.783,17.105-7.193,25.657c-4.52-4.417-6.654-8.717-8.17-13.228c-9.277-27.626-18.547-55.252-27.512-82.983
		c-3.299-10.217-8.918-17.969-20.018-19.196c-10.166-1.125-16.713,5.156-22.191,13.119c-12.666,18.432-25.344,36.868-38.719,54.779
		c-2.941,3.944-8.791,8.065-13.343,8.104c-65.188,0.55-130.395-0.432-195.569,0.812c-32.038,0.611-25.977-2.535-26.628,25.012
		c-0.032,1.515,0.198,3.065-0.019,4.545c-1.56,10.604,3.056,13.586,13.458,13.464c71.619-0.831,143.239-1.582,214.858-1.202
		C6611.481,2249.902,6623.105,2244.5,6631.333,2229.584z"/>
	<path fill-rule="evenodd" clip-rule="evenodd" fill="#FCFCFC" d="M7483.119,2735.27
		c-59.943-60.178-119.992-120.257-180.199-180.173c-13.336-13.273-30.119-19.27-48.75-17.41
		c-26.48,2.644-45.303,16.729-54.324,41.954c-8.881,24.842-3.051,47.193,15.209,65.894c23.586,24.145,47.645,47.813,71.512,71.67
		c35.668,35.656,71.037,71.615,107.121,106.846c19.859,19.383,43.924,23.496,69.293,12.65c24.66-10.537,36.691-30.516,37.773-57.137
		C7500.957,2762.311,7495.152,2747.344,7483.119,2735.27z"/>
	<path fill-rule="evenodd" clip-rule="evenodd" fill="#FCFCFC" d="M7222.816,2519.296c6.158-6.643,4.752-15.12-1.412-21.661
		c-6.533-6.924-15.434-8.845-22.467-2.445c-15.676,14.267-30.771,29.285-44.818,45.131c-3.17,3.574-3.055,12.688-0.85,17.63
		c2.219,4.942,8.957,7.858,13.344,11.377c5.197-2.225,9.002-2.804,11.252-4.978
		C7193.093,2549.579,7208.4,2534.839,7222.816,2519.296z"/>
</g>
</svg>
