<?xml version="1.0" encoding="utf-8"?>
<!-- Generator: Adobe Illustrator 16.0.0, SVG Export Plug-In . SVG Version: 6.00 Build 0)  -->
<!DOCTYPE svg PUBLIC "-//W3C//DTD SVG 1.1//EN" "http://www.w3.org/Graphics/SVG/1.1/DTD/svg11.dtd">
<svg version="1.1" id="Layer_1" xmlns="http://www.w3.org/2000/svg" xmlns:xlink="http://www.w3.org/1999/xlink" x="0px" y="0px"
	 width="2223.223px" height="1071.107px" viewBox="0 0 2223.223 1071.107" enable-background="new 0 0 2223.223 1071.107"
	 xml:space="preserve">
<rect x="1005.444" y="210.342" fill="#FFFFFF" stroke="#000000" stroke-miterlimit="10" width="1190.668" height="789.051"/>
<g>
	<defs>
		<path id="SVGID_1_" d="M936.543,529.089c-1.21,0-2.192,0.936-2.192,2.09v105.447c0,1.152,0.982,2.09,2.192,2.09h4.531
			c1.209,0,2.191-0.938,2.191-2.09V531.179c0-1.154-0.982-2.09-2.191-2.09H936.543z"/>
	</defs>
	<clipPath id="SVGID_2_">
		<use xlink:href="#SVGID_1_"  overflow="visible"/>
	</clipPath>
	<rect x="929.351" y="524.087" clip-path="url(#SVGID_2_)" fill="#F8F8F8" width="18.916" height="119.629"/>
</g>
<path fill="none" stroke="#D6DFEA" stroke-width="2" stroke-miterlimit="10" d="M941.074,638.716h-4.531
	c-1.211,0-2.192-0.938-2.192-2.092V531.179c0-1.154,0.981-2.092,2.192-2.092h4.531c1.209,0,2.192,0.938,2.192,2.092v105.445
	C943.267,637.778,942.283,638.716,941.074,638.716z"/>
<path fill="none" stroke="#D6DFEA" stroke-width="2" stroke-miterlimit="10" d="M940.239,465.667h-4.265
	c-1.139,0-2.063-0.947-2.063-2.113v-49.469c0-1.166,0.925-2.113,2.063-2.113h4.265c1.14,0,2.063,0.947,2.063,2.113v49.469
	C942.303,464.72,941.379,465.667,940.239,465.667z"/>
<g>
	<defs>
		<path id="SVGID_3_" d="M583.158,208.178c-32.541,0-58.92,26.557-58.92,59.321v727.486c0,32.76,26.379,59.318,58.92,59.318h295.244
			c32.541,0,58.92-26.559,58.92-59.318V267.499c0-32.764-26.379-59.321-58.92-59.321H583.158z"/>
	</defs>
	<clipPath id="SVGID_4_">
		<use xlink:href="#SVGID_3_"  overflow="visible"/>
	</clipPath>
	<rect x="519.238" y="203.178" clip-path="url(#SVGID_4_)" fill="#F8F8F8" width="423.084" height="856.125"/>
</g>
<path fill="none" stroke="#D6DFEA" stroke-width="3" stroke-miterlimit="10" d="M878.402,1054.304H583.158
	c-32.541,0-58.92-26.559-58.92-59.32V267.497c0-32.762,26.379-59.319,58.92-59.319h295.244c32.541,0,58.92,26.557,58.92,59.319
	v727.486C937.322,1027.745,910.943,1054.304,878.402,1054.304z"/>
<g>
	<defs>
		<rect id="SVGID_5_" x="542.068" y="294.884" width="376.856" height="664.268"/>
	</defs>
	<clipPath id="SVGID_6_">
		<use xlink:href="#SVGID_5_"  overflow="visible"/>
	</clipPath>
	<rect x="537.068" y="289.884" clip-path="url(#SVGID_6_)" fill="#FEFEFE" width="386.856" height="674.268"/>
</g>
<g>
	<defs>
		<path id="SVGID_7_" d="M586.646,246.154c0,5.011,3.955,8.718,8.834,8.718c4.877,0,8.832-3.707,8.832-8.718
			c0-5.012-3.955-9.075-8.832-9.075C590.602,237.08,586.646,241.143,586.646,246.154"/>
	</defs>
	<clipPath id="SVGID_8_">
		<use xlink:href="#SVGID_7_"  overflow="visible"/>
	</clipPath>
	<rect x="581.646" y="232.081" clip-path="url(#SVGID_8_)" fill="#F8F8F8" width="27.666" height="27.793"/>
</g>
<g>
	<defs>
		<rect id="SVGID_9_" x="522.257" y="206.186" width="422" height="849.999"/>
	</defs>
	<clipPath id="SVGID_10_">
		<use xlink:href="#SVGID_9_"  overflow="visible"/>
	</clipPath>
	<path clip-path="url(#SVGID_10_)" fill="none" stroke="#D6DFEA" stroke-width="2" stroke-miterlimit="10" d="M604.312,246.154
		c0-5.012-3.954-9.074-8.832-9.074s-8.833,4.062-8.833,9.074c0,5.013,3.955,8.72,8.833,8.72S604.312,251.167,604.312,246.154z"/>
	<path clip-path="url(#SVGID_10_)" fill="none" stroke="#D6DFEA" stroke-width="2" stroke-miterlimit="10" d="M739.498,278.849
		h-17.703c-2.971,0-5.379-2.436-5.379-5.438s2.408-5.436,5.379-5.436h17.703c2.971,0,5.379,2.434,5.379,5.436
		S742.469,278.849,739.498,278.849z"/>
	<path clip-path="url(#SVGID_10_)" fill="none" stroke="#D6DFEA" stroke-width="2" stroke-miterlimit="10" d="M768.965,243.06
		h-76.369c-1.613,0-2.926,1.366-2.926,3.052v0.872c0,1.685,1.313,3.052,2.926,3.052h76.369c1.616,0,2.926-1.367,2.926-3.052v-0.872
		C771.891,244.426,770.581,243.06,768.965,243.06z"/>
</g>
<path fill-rule="evenodd" clip-rule="evenodd" fill="#D0DAE8" d="M558.257,349.185c0-5.522,4.476-10,9.993-10h324.014
	c5.52,0,9.993,4.486,9.993,10v100.002c0,5.521-4.476,9.998-9.993,9.998H568.25c-5.52,0-9.993-4.484-9.993-9.998V349.185z"/>
<path fill-rule="evenodd" clip-rule="evenodd" fill="#E0E7F0" d="M558.257,474.249c0-2.76,2.229-4.996,5.009-4.996h332.982
	c2.766,0,5.009,2.242,5.009,4.996v6.008c0,2.759-2.229,4.996-5.009,4.996H563.266c-2.766,0-5.009-2.241-5.009-4.996V474.249z"/>
<path fill-rule="evenodd" clip-rule="evenodd" fill="#E0E7F0" d="M558.257,496.249c0-2.76,2.233-4.996,5.001-4.996h232.998
	c2.762,0,5.001,2.242,5.001,4.996v6.008c0,2.759-2.233,4.996-5.001,4.996H563.258c-2.762,0-5.001-2.241-5.001-4.996V496.249z"/>
<g>
	<defs>
		<rect id="SVGID_11_" x="542.257" y="295.186" width="376" height="35.632"/>
	</defs>
	<clipPath id="SVGID_12_">
		<use xlink:href="#SVGID_11_"  overflow="visible"/>
	</clipPath>
	<g opacity="0.9" clip-path="url(#SVGID_12_)" enable-background="new    ">
		<g>
			<defs>
				<rect id="SVGID_13_" x="861.257" y="297.184" width="70" height="20"/>
			</defs>
			<clipPath id="SVGID_14_">
				<use xlink:href="#SVGID_13_"  overflow="visible"/>
			</clipPath>
			<g clip-path="url(#SVGID_14_)">
				<defs>
					<rect id="SVGID_15_" x="874.257" y="297.186" width="36" height="20"/>
				</defs>
				<clipPath id="SVGID_16_">
					<use xlink:href="#SVGID_15_"  overflow="visible"/>
				</clipPath>
				<g clip-path="url(#SVGID_16_)">
					<path fill="#ACB2BC" d="M879.96,312.686h-1.654v-7.996l-2.44,0.832v-1.395l3.883-1.429h0.212V312.686z"/>
					<path fill="#ACB2BC" d="M890.111,312.686h-6.692v-1.142l3.315-3.616c0.479-0.533,0.819-0.979,1.022-1.336
						s0.304-0.717,0.304-1.077c0-0.474-0.133-0.857-0.4-1.148s-0.625-0.438-1.077-0.438c-0.538,0-0.955,0.164-1.251,0.492
						s-0.444,0.777-0.444,1.347h-1.661c0-0.606,0.138-1.152,0.414-1.637s0.67-0.862,1.183-1.131s1.104-0.403,1.774-0.403
						c0.966,0,1.729,0.243,2.287,0.728s0.837,1.156,0.837,2.013c0,0.497-0.14,1.018-0.42,1.562s-0.739,1.163-1.377,1.856
						l-2.434,2.604h4.621V312.686z"/>
					<path fill="#ACB2BC" d="M892.483,305.132c0.31,0,0.549,0.088,0.718,0.263s0.253,0.396,0.253,0.66
						c0,0.26-0.084,0.475-0.253,0.646s-0.408,0.256-0.718,0.256c-0.296,0-0.531-0.084-0.704-0.253s-0.26-0.385-0.26-0.649
						s0.084-0.484,0.253-0.66S892.178,305.132,892.483,305.132z M892.483,310.936c0.31,0,0.549,0.088,0.718,0.263
						s0.253,0.396,0.253,0.66c0,0.26-0.084,0.475-0.253,0.646s-0.408,0.256-0.718,0.256c-0.296,0-0.531-0.084-0.704-0.253
						s-0.26-0.385-0.26-0.649s0.084-0.484,0.253-0.66S892.178,310.936,892.483,310.936z"/>
					<path fill="#ACB2BC" d="M897.009,306.95h1.012c0.51-0.004,0.915-0.137,1.213-0.396s0.448-0.636,0.448-1.128
						c0-0.474-0.124-0.842-0.373-1.104s-0.628-0.393-1.138-0.393c-0.447,0-0.813,0.129-1.101,0.386s-0.431,0.594-0.431,1.008h-1.661
						c0-0.51,0.136-0.975,0.407-1.395s0.649-0.746,1.135-0.981s1.029-0.352,1.63-0.352c0.994,0,1.774,0.25,2.341,0.749
						s0.851,1.193,0.851,2.082c0,0.447-0.143,0.867-0.427,1.261s-0.653,0.691-1.104,0.892c0.547,0.187,0.963,0.481,1.248,0.882
						s0.427,0.879,0.427,1.436c0,0.893-0.307,1.604-0.919,2.133s-1.418,0.793-2.417,0.793c-0.957,0-1.741-0.255-2.352-0.766
						s-0.916-1.189-0.916-2.037h1.661c0,0.438,0.147,0.793,0.441,1.066s0.689,0.41,1.186,0.41c0.515,0,0.92-0.137,1.217-0.41
						s0.444-0.67,0.444-1.189c0-0.524-0.155-0.927-0.465-1.21s-0.77-0.424-1.381-0.424h-0.978V306.95z"/>
					<path fill="#ACB2BC" d="M909.532,308.495c0,1.431-0.268,2.51-0.803,3.237s-1.35,1.09-2.444,1.09
						c-1.076,0-1.886-0.354-2.43-1.063s-0.824-1.758-0.837-3.148v-1.723c0-1.431,0.268-2.504,0.803-3.22s1.353-1.073,2.451-1.073
						c1.089,0,1.901,0.349,2.437,1.046s0.81,1.741,0.824,3.131V308.495z M907.871,306.636c0-0.934-0.127-1.619-0.383-2.054
						s-0.661-0.653-1.217-0.653c-0.542,0-0.941,0.206-1.196,0.619s-0.39,1.056-0.403,1.931v2.256c0,0.93,0.13,1.623,0.39,2.078
						s0.667,0.684,1.224,0.684c0.533,0,0.927-0.211,1.183-0.632s0.39-1.081,0.403-1.979V306.636z"/>
				</g>
			</g>
		</g>
	</g>
</g>
<g>
	<defs>
		<polygon id="SVGID_17_" points="861.257,300.686 861.257,301.561 858.257,301.561 858.257,314.686 867.257,314.686 
			867.257,301.561 864.257,301.561 864.257,300.686 		"/>
	</defs>
	<clipPath id="SVGID_18_">
		<use xlink:href="#SVGID_17_"  overflow="visible"/>
	</clipPath>
	<rect x="853.257" y="295.686" clip-path="url(#SVGID_18_)" fill="#9CA3AE" width="19" height="24"/>
</g>
<g>
	<defs>
		<polygon id="SVGID_19_" points="835.257,314.686 849.257,314.686 849.257,300.686 		"/>
	</defs>
	<clipPath id="SVGID_20_">
		<use xlink:href="#SVGID_19_"  overflow="visible"/>
	</clipPath>
	<rect x="830.257" y="295.686" clip-path="url(#SVGID_20_)" fill="#9CA3AE" width="24" height="24"/>
</g>
<g>
	<defs>
		<path id="SVGID_21_" d="M815.234,303.702l9.022,10.983l9.022-10.983c-2.51-1.895-5.635-3.017-9.022-3.017
			S817.744,301.808,815.234,303.702"/>
	</defs>
	<clipPath id="SVGID_22_">
		<use xlink:href="#SVGID_21_"  overflow="visible"/>
	</clipPath>
	<rect x="810.234" y="295.686" clip-path="url(#SVGID_22_)" fill="#9CA3AE" width="28.045" height="24"/>
</g>
<rect x="542.257" y="295.186" fill="none" stroke="#D6DFEA" stroke-width="2" stroke-miterlimit="10" width="376.856" height="664.267"/>
<path fill-rule="evenodd" clip-rule="evenodd" fill="#D0DAE8" d="M558.257,637.185c0-5.522,4.476-10,9.993-10h144.014
	c5.52,0,9.993,4.486,9.993,10v100.002c0,5.521-4.476,9.998-9.993,9.998H568.25c-5.52,0-9.993-4.484-9.993-9.998V637.185z"/>
<path fill-rule="evenodd" clip-rule="evenodd" fill="#E0E7F0" d="M558.257,762.249c0-2.76,2.229-4.996,5.009-4.996h152.982
	c2.766,0,5.009,2.242,5.009,4.996v6.008c0,2.76-2.229,4.996-5.009,4.996H563.266c-2.766,0-5.009-2.242-5.009-4.996V762.249z"/>
<path fill-rule="evenodd" clip-rule="evenodd" fill="#E0E7F0" d="M558.257,784.249c0-2.76,2.233-4.996,5.001-4.996h112.998
	c2.762,0,5.001,2.242,5.001,4.996v6.008c0,2.76-2.233,4.996-5.001,4.996H563.258c-2.762,0-5.001-2.242-5.001-4.996V784.249z"/>
<g>
	<defs>
		<path id="SVGID_23_" d="M568.25,527.186c-5.518,0-9.993,4.476-9.993,9.998v60.003c0,5.514,4.474,9.999,9.993,9.999h324.013
			c5.519,0,9.994-4.478,9.994-9.999v-60.003c0-5.513-4.474-9.998-9.994-9.998H568.25z"/>
	</defs>
	<clipPath id="SVGID_24_">
		<use xlink:href="#SVGID_23_"  overflow="visible"/>
	</clipPath>
	<rect x="553.257" y="522.186" clip-path="url(#SVGID_24_)" fill="#F68A1F" width="354" height="130"/>
</g>
<path fill-rule="evenodd" clip-rule="evenodd" fill="#D0DAE8" d="M737.257,637.185c0-5.522,4.476-10,9.993-10h144.014
	c5.52,0,9.993,4.486,9.993,10v100.002c0,5.521-4.476,9.998-9.993,9.998H747.25c-5.52,0-9.993-4.484-9.993-9.998V637.185z"/>
<path fill-rule="evenodd" clip-rule="evenodd" fill="#E0E7F0" d="M737.257,762.249c0-2.76,2.229-4.996,5.009-4.996h152.982
	c2.766,0,5.009,2.242,5.009,4.996v6.008c0,2.76-2.229,4.996-5.009,4.996H742.266c-2.766,0-5.009-2.242-5.009-4.996V762.249z"/>
<path fill-rule="evenodd" clip-rule="evenodd" fill="#E0E7F0" d="M737.257,784.249c0-2.76,2.233-4.996,5.001-4.996h112.998
	c2.762,0,5.001,2.242,5.001,4.996v6.008c0,2.76-2.233,4.996-5.001,4.996H742.258c-2.762,0-5.001-2.242-5.001-4.996V784.249z"/>
<path fill-rule="evenodd" clip-rule="evenodd" fill="#D0DAE8" d="M558.257,825.185c0-5.521,4.476-10,9.993-10h144.014
	c5.52,0,9.993,4.486,9.993,10v100.002c0,5.521-4.476,9.998-9.993,9.998H568.25c-5.52,0-9.993-4.484-9.993-9.998V825.185z"/>
<path fill-rule="evenodd" clip-rule="evenodd" fill="#D0DAE8" d="M737.257,825.185c0-5.521,4.476-10,9.993-10h144.014
	c5.52,0,9.993,4.486,9.993,10v100.002c0,5.521-4.476,9.998-9.993,9.998H747.25c-5.52,0-9.993-4.484-9.993-9.998V825.185z"/>
<rect x="543.257" y="909.462" fill-rule="evenodd" clip-rule="evenodd" fill="#B1BAC5" width="375" height="49"/>
<g>
	<defs>
		<path id="SVGID_25_" d="M830.154,925.685c-1.101,0-1.994,0.895-1.994,1.994v12.012c0,1.102,0.895,1.994,1.994,1.994h12.013
			c1.101,0,1.993-0.895,1.993-1.994v-12.012c0-1.102-0.894-1.994-1.993-1.994H830.154z"/>
	</defs>
	<clipPath id="SVGID_26_">
		<use xlink:href="#SVGID_25_"  overflow="visible"/>
	</clipPath>
	<path clip-path="url(#SVGID_26_)" fill="none" stroke="#FFFFFF" stroke-width="4" stroke-miterlimit="10" d="M830.154,925.685
		c-1.101,0-1.993,0.896-1.993,1.994v12.012c0,1.102,0.894,1.994,1.993,1.994h12.013c1.101,0,1.994-0.895,1.994-1.994v-12.012
		c0-1.102-0.896-1.994-1.994-1.994H830.154z"/>
</g>
<g>
	<defs>
		<path id="SVGID_27_" d="M722.757,933.685c0,4.418,3.581,8,8,8s8-3.582,8-8s-3.581-8-8-8S722.757,929.267,722.757,933.685"/>
	</defs>
	<clipPath id="SVGID_28_">
		<use xlink:href="#SVGID_27_"  overflow="visible"/>
	</clipPath>
	
		<circle clip-path="url(#SVGID_28_)" fill="none" stroke="#FFFFFF" stroke-width="4" stroke-miterlimit="10" cx="730.757" cy="933.685" r="8"/>
</g>
<g>
	<defs>
		<path id="SVGID_29_" d="M631.658,924.917l-12.549,7.254c-0.955,0.553-0.953,1.445,0,1.998l12.549,7.254
			c0.957,0.553,1.729,0.105,1.729-0.998v-14.51c0-0.783-0.388-1.236-0.955-1.236C632.199,924.679,631.938,924.757,631.658,924.917"
			/>
	</defs>
	<clipPath id="SVGID_30_">
		<use xlink:href="#SVGID_29_"  overflow="visible"/>
	</clipPath>
	<path clip-path="url(#SVGID_30_)" fill="none" stroke="#FFFFFF" stroke-width="4" stroke-miterlimit="10" d="M631.659,924.917
		c0.954-0.553,1.728-0.107,1.728,0.998v14.51c0,1.104-0.771,1.551-1.728,0.998l-12.549-7.254c-0.955-0.551-0.956-1.445,0-1.998
		L631.659,924.917z"/>
</g>
<path fill-rule="evenodd" clip-rule="evenodd" fill="#E0E7F0" d="M1932.069,978.867c0-1.78,1.277-3.225,2.869-3.225h190.688
	c1.584,0,2.868,1.447,2.868,3.225v3.878c0,1.78-1.277,3.225-2.868,3.225h-190.688c-1.585,0-2.869-1.447-2.869-3.225V978.867z"/>
<path fill-rule="evenodd" clip-rule="evenodd" fill="#E0E7F0" d="M1932.069,993.068c0-1.781,1.279-3.226,2.864-3.226h133.43
	c1.582,0,2.864,1.447,2.864,3.226v3.877c0,1.781-1.279,3.225-2.864,3.225h-133.43c-1.582,0-2.864-1.446-2.864-3.225V993.068z"/>
<path fill-rule="evenodd" clip-rule="evenodd" fill="#D0DAE8" d="M1853.252,975.74c0-2.358,1.912-4.271,4.269-4.271h61.521
	c2.358,0,4.269,1.916,4.269,4.271v21.719c0,2.359-1.91,4.272-4.269,4.272h-61.521c-2.357,0-4.269-1.916-4.269-4.272V975.74z"/>
<path fill-rule="evenodd" clip-rule="evenodd" fill="#E0E7F0" d="M1062.189,990.065c0-2.256,1.465-4.085,3.28-4.085h152.868
	c1.813,0,3.281,1.832,3.281,4.085v4.911c0,2.257-1.466,4.085-3.281,4.085H1065.47c-1.812,0-3.28-1.832-3.28-4.085V990.065z"/>
<path fill-rule="evenodd" clip-rule="evenodd" fill="#E0E7F0" d="M1307.189,990.065c0-2.256,1.465-4.085,3.28-4.085h152.868
	c1.813,0,3.281,1.832,3.281,4.085v4.911c0,2.257-1.466,4.085-3.281,4.085H1310.47c-1.812,0-3.28-1.832-3.28-4.085V990.065z"/>
<path fill-rule="evenodd" clip-rule="evenodd" fill="#E0E7F0" d="M1552.189,990.065c0-2.256,1.465-4.085,3.28-4.085h152.868
	c1.813,0,3.281,1.832,3.281,4.085v4.911c0,2.257-1.466,4.085-3.281,4.085H1555.47c-1.812,0-3.28-1.832-3.28-4.085V990.065z"/>
<path fill="#F6F6F6" stroke="#DDDDDD" stroke-miterlimit="10" d="M1011.958,202.347c-0.06,2.727-0.171,20.344-0.171,23.071
	c-0.008,251.828-0.014,503.656,0.013,755.485c0.001,11.782-1.317,10.49,10.149,10.49c386.302,0.023,772.604,0.023,1158.906,0.003
	c11.278,0,10.148,1.199,10.149-9.75c0.024-252.325,0.02-504.649,0.012-756.974c0-2.478-0.111-4.957-0.172-7.435
	c2.959-0.032,5.918-14.953,8.877-14.984c3.743,1.489,3.162,5.065,3.185,7.818c0.069,8.098,0.044,31.092,0.047,39.193
	c0.082,243.549-0.211,487.099,0.128,730.647c0.007,4.871-0.06,9.787-0.859,14.587c-0.586,3.518-1.659,7.143-6.109,7.894
	c-8.848,1.959-17.842,1.651-26.817,1.651c-378.52,0.002-757.04,0.001-1135.559,0.004c-8.988,0-17.988,0.26-26.873-1.596
	c-5.756-1.232-6.166-6.006-6.674-10.46c-0.739-6.472-1.059-12.979-1.058-19.509c0.018-245.824,0.013-491.648,0.024-737.472
	c0-3.72-0.076-22.335,0.272-26.045c0.258-2.743,0.479-5.542,3.653-6.713C1006.041,202.284,1008.999,202.316,1011.958,202.347"/>
<path fill-rule="evenodd" clip-rule="evenodd" fill="#E0E7F0" d="M1062.189,540.079c0-2.256,1.463-4.085,3.285-4.085h218.467
	c1.814,0,3.286,1.832,3.286,4.085v4.911c0,2.256-1.464,4.085-3.286,4.085h-218.467c-1.814,0-3.285-1.832-3.285-4.085V540.079z"/>
<path fill-rule="evenodd" clip-rule="evenodd" fill="#E0E7F0" d="M1062.189,558.065c0-2.256,1.465-4.084,3.28-4.084h152.868
	c1.813,0,3.281,1.832,3.281,4.084v4.912c0,2.256-1.466,4.084-3.281,4.084H1065.47c-1.812,0-3.28-1.832-3.28-4.084V558.065z"/>
<path fill-rule="evenodd" clip-rule="evenodd" fill="#F68A1F" d="M1062.189,260.988c0-5.522,4.475-9.999,9.992-9.999h694.015
	c5.519,0,9.993,4.485,9.993,9.999v60.002c0,5.522-4.476,9.999-9.993,9.999h-694.015c-5.519,0-9.992-4.485-9.992-9.999V260.988z"/>
<path fill="#F6F6F6" stroke="#DDDDDD" stroke-miterlimit="10" d="M1004.702,150.296c2.909-1.763,6.131-1.646,9.365-1.646
	c391.558,0.015,783.113,0.015,1174.67,0c3.237,0,6.618-0.001,9.367,1.648c2.264,0.839,3.182,2.503,4.033,4.826
	c0.916,2.407,0.703,5.25,0.816,8.446c0.188,15.459,0.689,29.946-0.111,44.904c-0.17,3.171,0.676,6.585-1.643,9.408
	c-3.011,2.4-6.58,2.482-10.16,2.51c-5.938,0.51-11.895,0.461-17.849,0.461c-381.124,0.001-762.247,0.001-1143.37,0
	c-5.957,0-11.916,0.051-17.861-0.46c-3.581,0.037-7.112-0.154-10.263-2.16c-2.771-2.76-2.243-6.379-2.44-9.761
	c-0.757-12.974-0.433-25.793-0.237-38.757c0.042-2.839,0.379-5.018,0.136-8.203C998.74,156.652,1000.715,152.978,1004.702,150.296"
	/>
<path fill="#9CA3AE" d="M1047.189,181.108c0,5.108-4.142,9.248-9.248,9.248c-5.108,0-9.249-4.14-9.249-9.248
	s4.141-9.248,9.249-9.248C1043.048,171.86,1047.189,176,1047.189,181.108"/>
<path fill="#9CA3AE" d="M1079.946,181.108c0,5.108-4.142,9.248-9.248,9.248c-5.108,0-9.249-4.14-9.249-9.248
	s4.141-9.248,9.249-9.248C1075.805,171.86,1079.946,176,1079.946,181.108"/>
<path fill="#9CA3AE" d="M1112.703,181.108c0,5.108-4.141,9.248-9.248,9.248c-5.108,0-9.249-4.14-9.249-9.248
	s4.141-9.248,9.249-9.248C1108.563,171.86,1112.703,176,1112.703,181.108"/>
<path fill-rule="evenodd" clip-rule="evenodd" fill="#F68A1F" d="M1853.252,267.771c0-9.268,7.511-16.781,16.772-16.781h241.697
	c9.264,0,16.772,7.527,16.772,16.781v167.833c0,9.269-7.511,16.782-16.772,16.782h-241.697c-9.264,0-16.772-7.527-16.772-16.782
	V267.771z"/>
<path fill-rule="evenodd" clip-rule="evenodd" fill="#D0DAE8" d="M1062.189,376.195c0-7.578,6.141-13.721,13.713-13.721h197.612
	c7.573,0,13.713,6.155,13.713,13.721v137.221c0,7.578-6.141,13.721-13.713,13.721h-197.612c-7.573,0-13.713-6.155-13.713-13.721
	V376.195z"/>
<path fill-rule="evenodd" clip-rule="evenodd" fill="#E0E7F0" d="M1307.189,540.079c0-2.256,1.463-4.085,3.285-4.085h218.467
	c1.814,0,3.286,1.832,3.286,4.085v4.911c0,2.256-1.464,4.085-3.286,4.085h-218.467c-1.814,0-3.285-1.832-3.285-4.085V540.079z"/>
<path fill-rule="evenodd" clip-rule="evenodd" fill="#E0E7F0" d="M1307.189,558.065c0-2.256,1.465-4.084,3.28-4.084h152.868
	c1.813,0,3.281,1.832,3.281,4.084v4.912c0,2.256-1.466,4.084-3.281,4.084H1310.47c-1.812,0-3.28-1.832-3.28-4.084V558.065z"/>
<path fill-rule="evenodd" clip-rule="evenodd" fill="#D0DAE8" d="M1307.189,376.195c0-7.578,6.141-13.721,13.713-13.721h197.612
	c7.573,0,13.713,6.155,13.713,13.721v137.221c0,7.578-6.141,13.721-13.713,13.721h-197.612c-7.573,0-13.713-6.155-13.713-13.721
	V376.195z"/>
<path fill-rule="evenodd" clip-rule="evenodd" fill="#E0E7F0" d="M1552.189,540.079c0-2.256,1.463-4.085,3.285-4.085h218.467
	c1.814,0,3.286,1.832,3.286,4.085v4.911c0,2.256-1.464,4.085-3.286,4.085h-218.467c-1.814,0-3.285-1.832-3.285-4.085V540.079z"/>
<path fill-rule="evenodd" clip-rule="evenodd" fill="#E0E7F0" d="M1552.189,558.065c0-2.256,1.465-4.084,3.28-4.084h152.868
	c1.813,0,3.281,1.832,3.281,4.084v4.912c0,2.256-1.466,4.084-3.281,4.084H1555.47c-1.812,0-3.28-1.832-3.28-4.084V558.065z"/>
<path fill-rule="evenodd" clip-rule="evenodd" fill="#E0E7F0" d="M1932.069,479.868c0-1.781,1.277-3.225,2.869-3.225h190.688
	c1.584,0,2.868,1.447,2.868,3.225v3.877c0,1.781-1.277,3.225-2.868,3.225h-190.688c-1.585,0-2.869-1.447-2.869-3.225V479.868z"/>
<path fill-rule="evenodd" clip-rule="evenodd" fill="#E0E7F0" d="M1932.069,494.068c0-1.781,1.279-3.225,2.864-3.225h133.43
	c1.582,0,2.864,1.447,2.864,3.225v3.877c0,1.781-1.279,3.225-2.864,3.225h-133.43c-1.582,0-2.864-1.447-2.864-3.225V494.068z"/>
<path fill-rule="evenodd" clip-rule="evenodd" fill="#D0DAE8" d="M1552.189,376.195c0-7.578,6.141-13.721,13.713-13.721h197.612
	c7.573,0,13.713,6.155,13.713,13.721v137.221c0,7.578-6.141,13.721-13.713,13.721h-197.612c-7.573,0-13.713-6.155-13.713-13.721
	V376.195z"/>
<path fill-rule="evenodd" clip-rule="evenodd" fill="#D0DAE8" d="M1853.252,476.74c0-2.359,1.912-4.271,4.269-4.271h61.521
	c2.358,0,4.269,1.915,4.269,4.271v42.719c0,2.359-1.91,4.272-4.269,4.272h-61.521c-2.357,0-4.269-1.916-4.269-4.272V476.74z"/>
<path fill-rule="evenodd" clip-rule="evenodd" fill="#E0E7F0" d="M1062.189,776.079c0-2.256,1.463-4.085,3.285-4.085h218.467
	c1.814,0,3.286,1.832,3.286,4.085v4.91c0,2.257-1.464,4.086-3.286,4.086h-218.467c-1.814,0-3.285-1.832-3.285-4.086V776.079z"/>
<path fill-rule="evenodd" clip-rule="evenodd" fill="#E0E7F0" d="M1062.189,794.066c0-2.257,1.465-4.085,3.28-4.085h152.868
	c1.813,0,3.281,1.832,3.281,4.085v4.911c0,2.256-1.466,4.085-3.281,4.085H1065.47c-1.812,0-3.28-1.832-3.28-4.085V794.066z"/>
<path fill-rule="evenodd" clip-rule="evenodd" fill="#D0DAE8" d="M1062.189,612.195c0-7.578,6.141-13.722,13.713-13.722h197.612
	c7.573,0,13.713,6.156,13.713,13.722v137.221c0,7.578-6.141,13.722-13.713,13.722h-197.612c-7.573,0-13.713-6.155-13.713-13.722
	V612.195z"/>
<path fill-rule="evenodd" clip-rule="evenodd" fill="#E0E7F0" d="M1307.189,776.079c0-2.256,1.463-4.085,3.285-4.085h218.467
	c1.814,0,3.286,1.832,3.286,4.085v4.91c0,2.257-1.464,4.086-3.286,4.086h-218.467c-1.814,0-3.285-1.832-3.285-4.086V776.079z"/>
<path fill-rule="evenodd" clip-rule="evenodd" fill="#E0E7F0" d="M1307.189,794.066c0-2.257,1.465-4.085,3.28-4.085h152.868
	c1.813,0,3.281,1.832,3.281,4.085v4.911c0,2.256-1.466,4.085-3.281,4.085H1310.47c-1.812,0-3.28-1.832-3.28-4.085V794.066z"/>
<path fill-rule="evenodd" clip-rule="evenodd" fill="#D0DAE8" d="M1307.189,612.195c0-7.578,6.141-13.722,13.713-13.722h197.612
	c7.573,0,13.713,6.156,13.713,13.722v137.221c0,7.578-6.141,13.722-13.713,13.722h-197.612c-7.573,0-13.713-6.155-13.713-13.722
	V612.195z"/>
<path fill-rule="evenodd" clip-rule="evenodd" fill="#E0E7F0" d="M1552.189,776.079c0-2.256,1.463-4.085,3.285-4.085h218.467
	c1.814,0,3.286,1.832,3.286,4.085v4.91c0,2.257-1.464,4.086-3.286,4.086h-218.467c-1.814,0-3.285-1.832-3.285-4.086V776.079z"/>
<path fill-rule="evenodd" clip-rule="evenodd" fill="#E0E7F0" d="M1552.189,794.066c0-2.257,1.465-4.085,3.28-4.085h152.868
	c1.813,0,3.281,1.832,3.281,4.085v4.911c0,2.256-1.466,4.085-3.281,4.085H1555.47c-1.812,0-3.28-1.832-3.28-4.085V794.066z"/>
<path fill-rule="evenodd" clip-rule="evenodd" fill="#D0DAE8" d="M1552.189,612.195c0-7.578,6.141-13.722,13.713-13.722h197.612
	c7.573,0,13.713,6.156,13.713,13.722v137.221c0,7.578-6.141,13.722-13.713,13.722h-197.612c-7.573,0-13.713-6.155-13.713-13.722
	V612.195z"/>
<path fill-rule="evenodd" clip-rule="evenodd" fill="#E0E7F0" d="M1062.189,972.079c0-2.257,1.463-4.085,3.285-4.085h218.467
	c1.814,0,3.286,1.832,3.286,4.085v4.91c0,2.257-1.464,4.086-3.286,4.086h-218.467c-1.814,0-3.285-1.832-3.285-4.086V972.079z"/>
<path fill-rule="evenodd" clip-rule="evenodd" fill="#D0DAE8" d="M1062.189,808.195c0-7.578,6.141-13.721,13.713-13.721h197.612
	c7.573,0,13.713,6.154,13.713,13.721v137.221c0,7.578-6.141,13.722-13.713,13.722h-197.612c-7.573,0-13.713-6.155-13.713-13.722
	V808.195z"/>
<path fill-rule="evenodd" clip-rule="evenodd" fill="#E0E7F0" d="M1307.189,972.079c0-2.257,1.463-4.085,3.285-4.085h218.467
	c1.814,0,3.286,1.832,3.286,4.085v4.91c0,2.257-1.464,4.086-3.286,4.086h-218.467c-1.814,0-3.285-1.832-3.285-4.086V972.079z"/>
<path fill-rule="evenodd" clip-rule="evenodd" fill="#D0DAE8" d="M1307.189,808.195c0-7.578,6.141-13.721,13.713-13.721h197.612
	c7.573,0,13.713,6.154,13.713,13.721v137.221c0,7.578-6.141,13.722-13.713,13.722h-197.612c-7.573,0-13.713-6.155-13.713-13.722
	V808.195z"/>
<path fill-rule="evenodd" clip-rule="evenodd" fill="#E0E7F0" d="M1552.189,972.079c0-2.257,1.463-4.085,3.285-4.085h218.467
	c1.814,0,3.286,1.832,3.286,4.085v4.91c0,2.257-1.464,4.086-3.286,4.086h-218.467c-1.814,0-3.285-1.832-3.285-4.086V972.079z"/>
<path fill-rule="evenodd" clip-rule="evenodd" fill="#D0DAE8" d="M1552.189,808.195c0-7.578,6.141-13.721,13.713-13.721h197.612
	c7.573,0,13.713,6.154,13.713,13.721v137.221c0,7.578-6.141,13.722-13.713,13.722h-197.612c-7.573,0-13.713-6.155-13.713-13.722
	V808.195z"/>
<path fill-rule="evenodd" clip-rule="evenodd" fill="#E0E7F0" d="M1932.069,550.868c0-1.781,1.277-3.226,2.869-3.226h190.688
	c1.584,0,2.868,1.447,2.868,3.226v3.877c0,1.781-1.277,3.225-2.868,3.225h-190.688c-1.585,0-2.869-1.447-2.869-3.225V550.868z"/>
<path fill-rule="evenodd" clip-rule="evenodd" fill="#E0E7F0" d="M1932.069,565.068c0-1.781,1.279-3.226,2.864-3.226h133.43
	c1.582,0,2.864,1.447,2.864,3.226v3.877c0,1.78-1.279,3.225-2.864,3.225h-133.43c-1.582,0-2.864-1.446-2.864-3.225V565.068z"/>
<path fill-rule="evenodd" clip-rule="evenodd" fill="#D0DAE8" d="M1853.252,547.74c0-2.359,1.912-4.271,4.269-4.271h61.521
	c2.358,0,4.269,1.915,4.269,4.271v42.72c0,2.358-1.91,4.271-4.269,4.271h-61.521c-2.357,0-4.269-1.916-4.269-4.271V547.74z"/>
<path fill-rule="evenodd" clip-rule="evenodd" fill="#E0E7F0" d="M1932.069,621.868c0-1.781,1.277-3.226,2.869-3.226h190.688
	c1.584,0,2.868,1.447,2.868,3.226v3.877c0,1.781-1.277,3.225-2.868,3.225h-190.688c-1.585,0-2.869-1.447-2.869-3.225V621.868z"/>
<path fill-rule="evenodd" clip-rule="evenodd" fill="#E0E7F0" d="M1932.069,636.068c0-1.781,1.279-3.226,2.864-3.226h133.43
	c1.582,0,2.864,1.447,2.864,3.226v3.877c0,1.781-1.279,3.225-2.864,3.225h-133.43c-1.582,0-2.864-1.446-2.864-3.225V636.068z"/>
<path fill-rule="evenodd" clip-rule="evenodd" fill="#D0DAE8" d="M1853.252,618.74c0-2.358,1.912-4.271,4.269-4.271h61.521
	c2.358,0,4.269,1.914,4.269,4.271v42.719c0,2.359-1.91,4.272-4.269,4.272h-61.521c-2.357,0-4.269-1.916-4.269-4.272V618.74z"/>
<path fill-rule="evenodd" clip-rule="evenodd" fill="#E0E7F0" d="M1932.069,693.868c0-1.781,1.277-3.226,2.869-3.226h190.688
	c1.584,0,2.868,1.447,2.868,3.226v3.877c0,1.78-1.277,3.225-2.868,3.225h-190.688c-1.585,0-2.869-1.447-2.869-3.225V693.868z"/>
<path fill-rule="evenodd" clip-rule="evenodd" fill="#E0E7F0" d="M1932.069,708.068c0-1.781,1.279-3.226,2.864-3.226h133.43
	c1.582,0,2.864,1.447,2.864,3.226v3.877c0,1.781-1.279,3.225-2.864,3.225h-133.43c-1.582,0-2.864-1.446-2.864-3.225V708.068z"/>
<path fill-rule="evenodd" clip-rule="evenodd" fill="#D0DAE8" d="M1853.252,690.74c0-2.358,1.912-4.271,4.269-4.271h61.521
	c2.358,0,4.269,1.915,4.269,4.271v42.719c0,2.359-1.91,4.272-4.269,4.272h-61.521c-2.357,0-4.269-1.916-4.269-4.272V690.74z"/>
<path fill-rule="evenodd" clip-rule="evenodd" fill="#E0E7F0" d="M1932.069,765.868c0-1.781,1.277-3.226,2.869-3.226h190.688
	c1.584,0,2.868,1.447,2.868,3.226v3.877c0,1.78-1.277,3.225-2.868,3.225h-190.688c-1.585,0-2.869-1.447-2.869-3.225V765.868z"/>
<path fill-rule="evenodd" clip-rule="evenodd" fill="#E0E7F0" d="M1932.069,780.068c0-1.781,1.279-3.226,2.864-3.226h133.43
	c1.582,0,2.864,1.447,2.864,3.226v3.877c0,1.781-1.279,3.225-2.864,3.225h-133.43c-1.582,0-2.864-1.446-2.864-3.225V780.068z"/>
<path fill-rule="evenodd" clip-rule="evenodd" fill="#D0DAE8" d="M1853.252,762.74c0-2.358,1.912-4.271,4.269-4.271h61.521
	c2.358,0,4.269,1.915,4.269,4.271v42.719c0,2.359-1.91,4.272-4.269,4.272h-61.521c-2.357,0-4.269-1.916-4.269-4.272V762.74z"/>
<path fill-rule="evenodd" clip-rule="evenodd" fill="#E0E7F0" d="M1932.069,837.867c0-1.78,1.277-3.225,2.869-3.225h190.688
	c1.584,0,2.868,1.447,2.868,3.225v3.878c0,1.78-1.277,3.225-2.868,3.225h-190.688c-1.585,0-2.869-1.447-2.869-3.225V837.867z"/>
<path fill-rule="evenodd" clip-rule="evenodd" fill="#E0E7F0" d="M1932.069,852.068c0-1.781,1.279-3.226,2.864-3.226h133.43
	c1.582,0,2.864,1.447,2.864,3.226v3.877c0,1.781-1.279,3.225-2.864,3.225h-133.43c-1.582,0-2.864-1.446-2.864-3.225V852.068z"/>
<path fill-rule="evenodd" clip-rule="evenodd" fill="#D0DAE8" d="M1853.252,834.74c0-2.358,1.912-4.271,4.269-4.271h61.521
	c2.358,0,4.269,1.916,4.269,4.271v42.719c0,2.359-1.91,4.272-4.269,4.272h-61.521c-2.357,0-4.269-1.916-4.269-4.272V834.74z"/>
<path fill-rule="evenodd" clip-rule="evenodd" fill="#E0E7F0" d="M1932.069,907.867c0-1.78,1.277-3.225,2.869-3.225h190.688
	c1.584,0,2.868,1.447,2.868,3.225v3.878c0,1.78-1.277,3.225-2.868,3.225h-190.688c-1.585,0-2.869-1.447-2.869-3.225V907.867z"/>
<path fill-rule="evenodd" clip-rule="evenodd" fill="#E0E7F0" d="M1932.069,922.068c0-1.781,1.279-3.226,2.864-3.226h133.43
	c1.582,0,2.864,1.447,2.864,3.226v3.877c0,1.781-1.279,3.225-2.864,3.225h-133.43c-1.582,0-2.864-1.446-2.864-3.225V922.068z"/>
<path fill-rule="evenodd" clip-rule="evenodd" fill="#D0DAE8" d="M1853.252,904.74c0-2.358,1.912-4.271,4.269-4.271h61.521
	c2.358,0,4.269,1.916,4.269,4.271v42.719c0,2.359-1.91,4.272-4.269,4.272h-61.521c-2.357,0-4.269-1.916-4.269-4.272V904.74z"/>
<g>
	<defs>
		<path id="SVGID_31_" d="M437.804,340.34c-1.211,0-2.193,0.936-2.193,2.09v105.447c0,1.152,0.982,2.09,2.193,2.09h4.529
			c1.211,0,2.194-0.938,2.194-2.09V342.43c0-1.154-0.983-2.09-2.194-2.09H437.804z"/>
	</defs>
	<clipPath id="SVGID_32_">
		<use xlink:href="#SVGID_31_"  overflow="visible"/>
	</clipPath>
	<rect x="430.61" y="335.338" clip-path="url(#SVGID_32_)" fill="#F8F8F8" width="18.915" height="119.629"/>
</g>
<path fill="none" stroke="#D6DFEA" stroke-width="2" stroke-miterlimit="10" d="M442.333,449.967h-4.531
	c-1.21,0-2.192-0.938-2.192-2.092V342.43c0-1.154,0.982-2.092,2.192-2.092h4.531c1.21,0,2.193,0.938,2.193,2.092v105.445
	C444.526,449.03,443.543,449.967,442.333,449.967z"/>
<path fill="none" stroke="#D6DFEA" stroke-width="2" stroke-miterlimit="10" d="M441.499,276.918h-4.265
	c-1.139,0-2.063-0.947-2.063-2.113v-49.469c0-1.166,0.924-2.113,2.063-2.113h4.265c1.139,0,2.064,0.947,2.064,2.113v49.469
	C443.563,275.971,442.638,276.918,441.499,276.918z"/>
<g>
	<defs>
		<path id="SVGID_33_" d="M84.418,19.43c-32.541,0-58.921,26.557-58.921,59.321v727.486c0,32.76,26.38,59.318,58.921,59.318h295.243
			c32.541,0,58.92-26.559,58.92-59.318V78.75c0-32.764-26.379-59.321-58.92-59.321H84.418z"/>
	</defs>
	<clipPath id="SVGID_34_">
		<use xlink:href="#SVGID_33_"  overflow="visible"/>
	</clipPath>
	<g clip-path="url(#SVGID_34_)">
		<rect x="20.498" y="14.43" fill="#F8F8F8" width="423.084" height="856.125"/>
	</g>
</g>
<path fill="none" stroke="#D6DFEA" stroke-width="3" stroke-miterlimit="10" d="M379.662,865.555H84.418
	c-32.541,0-58.921-26.559-58.921-59.32V78.749c0-32.762,26.38-59.319,58.921-59.319h295.243c32.541,0,58.921,26.557,58.921,59.319
	v727.486C438.583,838.996,412.203,865.555,379.662,865.555z"/>
<g>
	<defs>
		<rect id="SVGID_35_" x="43.329" y="106.135" width="376.856" height="664.267"/>
	</defs>
	<clipPath id="SVGID_36_">
		<use xlink:href="#SVGID_35_"  overflow="visible"/>
	</clipPath>
	<g clip-path="url(#SVGID_36_)">
		<rect x="38.329" y="101.135" fill="#FEFEFE" width="386.856" height="674.267"/>
	</g>
</g>
<g>
	<defs>
		<path id="SVGID_37_" d="M87.906,57.406c0,5.011,3.956,8.718,8.834,8.718s8.832-3.707,8.832-8.718c0-5.012-3.954-9.075-8.832-9.075
			S87.906,52.394,87.906,57.406"/>
	</defs>
	<clipPath id="SVGID_38_">
		<use xlink:href="#SVGID_37_"  overflow="visible"/>
	</clipPath>
	<rect x="82.907" y="43.332" clip-path="url(#SVGID_38_)" fill="#F8F8F8" width="27.665" height="27.793"/>
</g>
<g>
	<defs>
		<rect id="SVGID_39_" x="23.517" y="17.437" width="422" height="849.999"/>
	</defs>
	<clipPath id="SVGID_40_">
		<use xlink:href="#SVGID_39_"  overflow="visible"/>
	</clipPath>
	<path clip-path="url(#SVGID_40_)" fill="none" stroke="#D6DFEA" stroke-width="2" stroke-miterlimit="10" d="M105.571,57.406
		c0-5.012-3.954-9.074-8.832-9.074s-8.833,4.062-8.833,9.074c0,5.013,3.955,8.72,8.833,8.72S105.571,62.418,105.571,57.406z"/>
	<path clip-path="url(#SVGID_40_)" fill="none" stroke="#D6DFEA" stroke-width="2" stroke-miterlimit="10" d="M240.757,90.1h-17.702
		c-2.971,0-5.379-2.436-5.379-5.438s2.408-5.436,5.379-5.436h17.702c2.971,0,5.379,2.434,5.379,5.436S243.729,90.1,240.757,90.1z"/>
	<path clip-path="url(#SVGID_40_)" fill="none" stroke="#D6DFEA" stroke-width="2" stroke-miterlimit="10" d="M270.225,54.312
		h-76.37c-1.613,0-2.925,1.366-2.925,3.052v0.872c0,1.685,1.312,3.052,2.925,3.052h76.37c1.616,0,2.925-1.367,2.925-3.052v-0.872
		C273.15,55.677,271.841,54.312,270.225,54.312z"/>
</g>
<g>
	<defs>
		<path id="SVGID_41_" d="M69.51,254.436c-5.518,0-9.993,4.477-9.993,10v100c0,5.516,4.475,10,9.993,10h324.014
			c5.518,0,9.993-4.477,9.993-10v-100c0-5.514-4.474-10-9.993-10H69.51z"/>
	</defs>
	<clipPath id="SVGID_42_">
		<use xlink:href="#SVGID_41_"  overflow="visible"/>
	</clipPath>
	<rect x="54.517" y="249.436" clip-path="url(#SVGID_42_)" fill="#D0DAE8" width="354" height="130"/>
</g>
<g>
	<defs>
		<path id="SVGID_43_" d="M64.525,384.504c-2.778,0-5.009,2.236-5.009,4.998v6.006c0,2.754,2.242,4.996,5.009,4.996h332.982
			c2.778,0,5.009-2.236,5.009-4.996v-6.006c0-2.756-2.242-4.998-5.009-4.998H64.525z"/>
	</defs>
	<clipPath id="SVGID_44_">
		<use xlink:href="#SVGID_43_"  overflow="visible"/>
	</clipPath>
	<rect x="54.517" y="379.504" clip-path="url(#SVGID_44_)" fill="#E0E7F0" width="353" height="26"/>
</g>
<g>
	<defs>
		<path id="SVGID_45_" d="M64.518,406.504c-2.768,0-5.001,2.236-5.001,4.996v6.008c0,2.754,2.239,4.996,5.001,4.996h232.998
			c2.768,0,5.001-2.238,5.001-4.996V411.5c0-2.754-2.239-4.996-5.001-4.996H64.518z"/>
	</defs>
	<clipPath id="SVGID_46_">
		<use xlink:href="#SVGID_45_"  overflow="visible"/>
	</clipPath>
	<rect x="54.517" y="401.504" clip-path="url(#SVGID_46_)" fill="#E0E7F0" width="253" height="26"/>
</g>
<g>
	<defs>
		<rect id="SVGID_47_" x="43.517" y="106.436" width="375.999" height="133.016"/>
	</defs>
	<clipPath id="SVGID_48_">
		<use xlink:href="#SVGID_47_"  overflow="visible"/>
	</clipPath>
	<g clip-path="url(#SVGID_48_)">
		<rect x="38.517" y="101.436" fill="#F8F8F8" width="386" height="143.014"/>
	</g>
</g>
<g>
	<defs>
		<rect id="SVGID_49_" x="43.517" y="189.436" width="375.999" height="51"/>
	</defs>
	<clipPath id="SVGID_50_">
		<use xlink:href="#SVGID_49_"  overflow="visible"/>
	</clipPath>
	<g opacity="0" clip-path="url(#SVGID_50_)">
		<g>
			<defs>
				<rect id="SVGID_51_" x="38.517" y="184.571" width="386" height="59.879"/>
			</defs>
			<clipPath id="SVGID_52_">
				<use xlink:href="#SVGID_51_"  overflow="visible"/>
			</clipPath>
			<g clip-path="url(#SVGID_52_)">
				<rect x="38.517" y="184.571" fill="#FFFFFF" width="386" height="59.879"/>
			</g>
		</g>
	</g>
</g>
<g>
	<path fill="#ACB2BC" d="M328.196,211.6h-3.104v8.559h-1.716V211.6h-3.076v-1.395h7.896V211.6z"/>
</g>
<g>
	<path fill="#ACB2BC" d="M337.896,220.158h-1.723v-4.416h-4.45v4.416h-1.729v-9.953h1.729v4.143h4.45v-4.143h1.723V220.158z"/>
	<path fill="#ACB2BC" d="M346.247,215.715h-4.088v3.049h4.778v1.395h-6.508v-9.953h6.46v1.395h-4.73v2.748h4.088V215.715z"/>
</g>
<g>
</g>
<g>
	<path fill="#ACB2BC" d="M359.626,211.6h-3.104v8.559h-1.716V211.6h-3.076v-1.395h7.896V211.6z"/>
</g>
<g>
	<path fill="#ACB2BC" d="M369.325,220.158h-1.723v-4.416h-4.45v4.416h-1.729v-9.953h1.729v4.143h4.45v-4.143h1.723V220.158z"/>
</g>
<g>
	<path fill="#ACB2BC" d="M373.692,220.158h-1.723v-9.953h1.723V220.158z"/>
</g>
<g>
	<path fill="#ACB2BC" d="M379.962,216.33h-1.928v3.828h-1.729v-9.953h3.5c1.148,0,2.035,0.258,2.659,0.773
		c0.625,0.516,0.937,1.261,0.937,2.237c0,0.666-0.161,1.224-0.482,1.673s-0.769,0.795-1.343,1.037l2.235,4.145v0.089h-1.853
		L379.962,216.33z M378.034,214.936h1.777c0.583,0,1.039-0.147,1.367-0.441s0.492-0.696,0.492-1.207
		c0-0.533-0.151-0.946-0.455-1.237s-0.755-0.442-1.357-0.451h-1.825V214.936z"/>
</g>
<g>
	<path fill="#ACB2BC" d="M385.559,220.158v-9.953h2.939c0.879,0,1.66,0.196,2.341,0.588s1.209,0.948,1.583,1.668
		s0.561,1.545,0.561,2.475v0.499c0,0.943-0.188,1.773-0.564,2.488s-0.912,1.267-1.606,1.654s-1.491,0.581-2.389,0.581H385.559z
		 M387.289,211.6v7.164h1.128c0.907,0,1.603-0.283,2.088-0.85s0.732-1.379,0.742-2.439v-0.553c0-1.078-0.235-1.901-0.704-2.47
		c-0.469-0.569-1.151-0.853-2.044-0.853H387.289z"/>
</g>
<g>
	<path fill="#ACB2BC" d="M199.448,220.158h-1.723v-9.953h1.723V220.158z"/>
	<path fill="#ACB2BC" d="M209.242,211.6h-3.104v8.559h-1.716V211.6h-3.076v-1.395h7.896V211.6z"/>
	<path fill="#ACB2BC" d="M216.854,215.715h-4.088v3.049h4.778v1.395h-6.508v-9.953h6.46v1.395h-4.73v2.748h4.088V215.715z"/>
	<path fill="#ACB2BC" d="M221.671,210.205l2.871,7.629l2.864-7.629h2.235v9.953h-1.723v-3.281l0.171-4.389l-2.939,7.67h-1.237
		l-2.933-7.663l0.171,4.382v3.281h-1.723v-9.953H221.671z"/>
</g>
<g>
</g>
<g>
	<path fill="#ACB2BC" d="M242.95,211.6h-3.104v8.559h-1.716V211.6h-3.076v-1.395h7.896V211.6z"/>
</g>
<g>
	<path fill="#ACB2BC" d="M252.651,217.697l1.531-7.492h1.716l-2.297,9.953h-1.654l-1.894-7.267l-1.935,7.267h-1.661l-2.297-9.953
		h1.716l1.545,7.479l1.9-7.479h1.449L252.651,217.697z"/>
</g>
<g>
	<path fill="#ACB2BC" d="M265.682,215.441c0,0.975-0.168,1.831-0.506,2.567s-0.819,1.301-1.446,1.695s-1.348,0.591-2.164,0.591
		c-0.807,0-1.525-0.197-2.157-0.591s-1.119-0.956-1.463-1.685s-0.519-1.57-0.523-2.522v-0.561c0-0.971,0.172-1.828,0.516-2.57
		s0.83-1.312,1.456-1.706s1.346-0.591,2.157-0.591s1.53,0.195,2.157,0.584s1.111,0.95,1.453,1.682s0.515,1.583,0.52,2.553V215.441z
		 M263.953,214.922c0-1.103-0.208-1.948-0.625-2.536s-1.008-0.882-1.774-0.882c-0.748,0-1.332,0.293-1.753,0.878
		s-0.637,1.414-0.646,2.485v0.574c0,1.094,0.213,1.939,0.639,2.536s1.018,0.896,1.774,0.896c0.766,0,1.354-0.292,1.767-0.875
		s0.619-1.436,0.619-2.557V214.922z"/>
</g>
<g>
	<path fill="#F68A1F" d="M86.729,220.158h-1.729l-4.437-7.062v7.062h-1.729v-9.953h1.729l4.45,7.089v-7.089h1.716V220.158z"/>
</g>
<g>
	<path fill="#F68A1F" d="M97.206,215.441c0,0.975-0.168,1.831-0.506,2.567s-0.819,1.301-1.446,1.695s-1.348,0.591-2.164,0.591
		c-0.807,0-1.525-0.197-2.157-0.591s-1.119-0.956-1.463-1.685s-0.519-1.57-0.523-2.522v-0.561c0-0.971,0.172-1.828,0.516-2.57
		s0.83-1.312,1.456-1.706s1.346-0.591,2.157-0.591s1.53,0.195,2.157,0.584s1.111,0.95,1.453,1.682s0.515,1.583,0.52,2.553V215.441z
		 M95.477,214.922c0-1.103-0.208-1.948-0.625-2.536s-1.008-0.882-1.774-0.882c-0.748,0-1.332,0.293-1.753,0.878
		s-0.637,1.414-0.646,2.485v0.574c0,1.094,0.213,1.939,0.639,2.536s1.018,0.896,1.774,0.896c0.766,0,1.354-0.292,1.767-0.875
		s0.619-1.436,0.619-2.557V214.922z"/>
</g>
<g>
	<path fill="#F68A1F" d="M99.476,218.408c0.31,0,0.549,0.088,0.718,0.263s0.253,0.396,0.253,0.66c0,0.26-0.084,0.475-0.253,0.646
		s-0.408,0.256-0.718,0.256c-0.296,0-0.531-0.084-0.704-0.253s-0.26-0.385-0.26-0.649s0.084-0.484,0.253-0.66
		S99.171,218.408,99.476,218.408z"/>
	<path fill="#F68A1F" d="M114.893,215.441c0,0.975-0.168,1.831-0.506,2.567s-0.819,1.301-1.446,1.695s-1.348,0.591-2.164,0.591
		c-0.807,0-1.525-0.197-2.157-0.591s-1.119-0.956-1.463-1.685s-0.519-1.57-0.523-2.522v-0.561c0-0.971,0.172-1.828,0.516-2.57
		s0.83-1.312,1.456-1.706s1.346-0.591,2.157-0.591s1.53,0.195,2.157,0.584s1.111,0.95,1.453,1.682s0.515,1.583,0.52,2.553V215.441z
		 M113.164,214.922c0-1.103-0.208-1.948-0.625-2.536s-1.008-0.882-1.774-0.882c-0.748,0-1.332,0.293-1.753,0.878
		s-0.637,1.414-0.646,2.485v0.574c0,1.094,0.213,1.939,0.639,2.536s1.018,0.896,1.774,0.896c0.766,0,1.354-0.292,1.767-0.875
		s0.619-1.436,0.619-2.557V214.922z"/>
</g>
<g>
	<path fill="#F68A1F" d="M125.019,220.158h-1.729l-4.437-7.062v7.062h-1.729v-9.953h1.729l4.45,7.089v-7.089h1.716V220.158z"/>
</g>
<g>
	<path fill="#F68A1F" d="M133.412,215.715h-4.088v3.049h4.778v1.395h-6.508v-9.953h6.46v1.395h-4.73v2.748h4.088V215.715z"/>
</g>
<g>
	<defs>
		<rect id="SVGID_53_" x="43.517" y="237.374" width="125.333" height="2.078"/>
	</defs>
	<use xlink:href="#SVGID_53_"  overflow="visible" fill="#F68A1F"/>
	<clipPath id="SVGID_54_">
		<use xlink:href="#SVGID_53_"  overflow="visible"/>
	</clipPath>
	<rect x="38.517" y="232.374" clip-path="url(#SVGID_54_)" fill="#F68A1F" width="135.333" height="12.076"/>
</g>
<g>
	<path fill="#ACB2BC" d="M130.436,154.86h-4.434v12.227h-2.451V154.86h-4.395v-1.992h11.279V154.86z"/>
	<path fill="#ACB2BC" d="M132.076,153.767c0-0.367,0.116-0.672,0.347-0.915s0.562-0.364,0.991-0.364s0.762,0.122,0.996,0.364
		s0.352,0.548,0.352,0.915c0,0.361-0.117,0.661-0.352,0.9c-0.234,0.24-0.566,0.359-0.996,0.359s-0.76-0.12-0.991-0.359
		C132.192,154.428,132.076,154.127,132.076,153.767z M134.596,167.087h-2.373v-10.566h2.373V167.087z"/>
	<path fill="#ACB2BC" d="M140.152,153.952v2.568h1.865v1.758h-1.865v5.898c0,0.404,0.08,0.695,0.239,0.874s0.444,0.269,0.854,0.269
		c0.273,0,0.55-0.033,0.83-0.098v1.836c-0.541,0.15-1.061,0.225-1.563,0.225c-1.823,0-2.734-1.006-2.734-3.018v-5.986h-1.738v-1.758
		h1.738v-2.568H140.152z"/>
	<path fill="#ACB2BC" d="M146.354,167.087h-2.373v-15h2.373V167.087z"/>
	<path fill="#ACB2BC" d="M153.59,167.282c-1.504,0-2.723-0.474-3.657-1.421s-1.401-2.208-1.401-3.784v-0.293
		c0-1.055,0.204-1.997,0.61-2.827s0.978-1.476,1.714-1.938s1.556-0.693,2.461-0.693c1.439,0,2.55,0.459,3.335,1.377
		s1.177,2.217,1.177,3.896v0.957h-6.904c0.072,0.873,0.363,1.563,0.874,2.07s1.154,0.762,1.929,0.762
		c1.087,0,1.973-0.439,2.656-1.318l1.279,1.221c-0.423,0.631-0.988,1.122-1.694,1.47S154.469,167.282,153.59,167.282z
		 M153.307,158.229c-0.651,0-1.177,0.228-1.577,0.684s-0.656,1.09-0.767,1.904h4.521v-0.176c-0.052-0.794-0.264-1.395-0.635-1.802
		S153.964,158.229,153.307,158.229z"/>
</g>
<g>
	<defs>
		<path id="SVGID_55_" d="M63.728,166.504h18v-2.002h-18V166.504z M63.728,161.504h18v-2h-18V161.504z M63.728,156.504h18v-2.002
			h-18V156.504z"/>
	</defs>
	<clipPath id="SVGID_56_">
		<use xlink:href="#SVGID_55_"  overflow="visible"/>
	</clipPath>
	<rect x="58.728" y="149.504" clip-path="url(#SVGID_56_)" fill="#9CA3AE" width="28" height="22"/>
</g>
<g>
	<defs>
		<path id="SVGID_57_" d="M383.6,157.965c0-2.486,2.014-4.5,4.5-4.5c2.485,0,4.5,2.014,4.5,4.5c0,2.484-2.015,4.5-4.5,4.5
			C385.614,162.465,383.6,160.45,383.6,157.965 M381.6,157.965c0,3.59,2.91,6.5,6.5,6.5c1.615,0,3.088-0.594,4.225-1.566
			l0.276,0.273v0.791l4.998,4.992l1.491-1.492l-4.987-4.998h-0.795l-0.276-0.275c0.975-1.137,1.568-2.609,1.568-4.225
			c0-3.59-2.91-6.5-6.5-6.5S381.6,154.375,381.6,157.965"/>
	</defs>
	<clipPath id="SVGID_58_">
		<use xlink:href="#SVGID_57_"  overflow="visible"/>
	</clipPath>
	<rect x="376.6" y="146.465" clip-path="url(#SVGID_58_)" fill="#9CA3AE" width="27.49" height="27.49"/>
</g>
<g>
	<defs>
		<rect id="SVGID_59_" x="43.517" y="106.436" width="375.999" height="35.633"/>
	</defs>
	<clipPath id="SVGID_60_">
		<use xlink:href="#SVGID_59_"  overflow="visible"/>
	</clipPath>
	<g opacity="0.9" clip-path="url(#SVGID_60_)" enable-background="new    ">
		<g>
			<defs>
				<rect id="SVGID_61_" x="362.517" y="108.434" width="70" height="20"/>
			</defs>
			<clipPath id="SVGID_62_">
				<use xlink:href="#SVGID_61_"  overflow="visible"/>
			</clipPath>
			<g clip-path="url(#SVGID_62_)">
				<defs>
					<rect id="SVGID_63_" x="375.517" y="108.436" width="36" height="20"/>
				</defs>
				<clipPath id="SVGID_64_">
					<use xlink:href="#SVGID_63_"  overflow="visible"/>
				</clipPath>
				<g clip-path="url(#SVGID_64_)">
					<path fill="#ACB2BC" d="M381.22,123.937h-1.654v-7.996l-2.44,0.832v-1.395l3.883-1.429h0.212V123.937z"/>
					<path fill="#ACB2BC" d="M391.371,123.937h-6.692v-1.142l3.315-3.616c0.479-0.533,0.819-0.979,1.022-1.336
						s0.304-0.717,0.304-1.077c0-0.474-0.133-0.857-0.4-1.148s-0.625-0.438-1.077-0.438c-0.538,0-0.955,0.164-1.251,0.492
						s-0.444,0.777-0.444,1.347h-1.661c0-0.606,0.138-1.152,0.414-1.637s0.67-0.862,1.183-1.131s1.104-0.403,1.774-0.403
						c0.966,0,1.729,0.243,2.287,0.728s0.837,1.156,0.837,2.013c0,0.497-0.14,1.018-0.42,1.562s-0.739,1.163-1.377,1.856
						l-2.434,2.604h4.621V123.937z"/>
					<path fill="#ACB2BC" d="M393.743,116.383c0.31,0,0.549,0.088,0.718,0.263s0.253,0.396,0.253,0.66
						c0,0.26-0.084,0.475-0.253,0.646s-0.408,0.256-0.718,0.256c-0.296,0-0.531-0.084-0.704-0.253s-0.26-0.385-0.26-0.649
						s0.084-0.484,0.253-0.66S393.438,116.383,393.743,116.383z M393.743,122.187c0.31,0,0.549,0.088,0.718,0.263
						s0.253,0.396,0.253,0.66c0,0.26-0.084,0.475-0.253,0.646s-0.408,0.256-0.718,0.256c-0.296,0-0.531-0.084-0.704-0.253
						s-0.26-0.385-0.26-0.649s0.084-0.484,0.253-0.66S393.438,122.187,393.743,122.187z"/>
					<path fill="#ACB2BC" d="M398.269,118.201h1.012c0.51-0.004,0.915-0.137,1.213-0.396s0.448-0.636,0.448-1.128
						c0-0.474-0.124-0.842-0.373-1.104s-0.628-0.393-1.138-0.393c-0.447,0-0.813,0.129-1.101,0.386s-0.431,0.594-0.431,1.008h-1.661
						c0-0.51,0.136-0.975,0.407-1.395s0.649-0.746,1.135-0.981s1.029-0.352,1.63-0.352c0.994,0,1.774,0.25,2.341,0.749
						s0.851,1.193,0.851,2.082c0,0.447-0.143,0.867-0.427,1.261s-0.653,0.691-1.104,0.892c0.547,0.187,0.963,0.481,1.248,0.882
						s0.427,0.879,0.427,1.436c0,0.893-0.307,1.604-0.919,2.133s-1.418,0.793-2.417,0.793c-0.957,0-1.741-0.255-2.352-0.766
						s-0.916-1.189-0.916-2.037h1.661c0,0.438,0.147,0.793,0.441,1.066s0.689,0.41,1.186,0.41c0.515,0,0.92-0.137,1.217-0.41
						s0.444-0.67,0.444-1.189c0-0.524-0.155-0.927-0.465-1.21s-0.77-0.424-1.381-0.424h-0.978V118.201z"/>
					<path fill="#ACB2BC" d="M410.792,119.746c0,1.431-0.268,2.51-0.803,3.237s-1.35,1.09-2.444,1.09
						c-1.076,0-1.886-0.354-2.43-1.063s-0.824-1.758-0.837-3.148v-1.723c0-1.431,0.268-2.504,0.803-3.22s1.353-1.073,2.451-1.073
						c1.089,0,1.901,0.349,2.437,1.046s0.81,1.741,0.824,3.131V119.746z M409.131,117.887c0-0.934-0.127-1.619-0.383-2.054
						s-0.661-0.653-1.217-0.653c-0.542,0-0.941,0.206-1.196,0.619s-0.39,1.056-0.403,1.931v2.256c0,0.93,0.13,1.623,0.39,2.078
						s0.667,0.684,1.224,0.684c0.533,0,0.927-0.211,1.183-0.632s0.39-1.081,0.403-1.979V117.887z"/>
				</g>
			</g>
		</g>
	</g>
</g>
<g>
	<defs>
		<polygon id="SVGID_65_" points="362.517,111.936 362.517,112.811 359.517,112.811 359.517,125.936 368.517,125.936 
			368.517,112.811 365.517,112.811 365.517,111.936 		"/>
	</defs>
	<clipPath id="SVGID_66_">
		<use xlink:href="#SVGID_65_"  overflow="visible"/>
	</clipPath>
	<rect x="354.517" y="106.936" clip-path="url(#SVGID_66_)" fill="#9CA3AE" width="19" height="24"/>
</g>
<g>
	<defs>
		<polygon id="SVGID_67_" points="336.517,125.936 350.517,125.936 350.517,111.936 		"/>
	</defs>
	<clipPath id="SVGID_68_">
		<use xlink:href="#SVGID_67_"  overflow="visible"/>
	</clipPath>
	<rect x="331.517" y="106.936" clip-path="url(#SVGID_68_)" fill="#9CA3AE" width="24" height="24"/>
</g>
<g>
	<defs>
		<path id="SVGID_69_" d="M316.495,114.954l9.022,10.982l9.023-10.982c-2.511-1.895-5.636-3.018-9.023-3.018
			S319.006,113.059,316.495,114.954"/>
	</defs>
	<clipPath id="SVGID_70_">
		<use xlink:href="#SVGID_69_"  overflow="visible"/>
	</clipPath>
	<rect x="311.494" y="106.936" clip-path="url(#SVGID_70_)" fill="#9CA3AE" width="28.045" height="24"/>
</g>
<g>
	<defs>
		<rect id="SVGID_71_" x="44.517" y="720.699" width="374.999" height="49"/>
	</defs>
	<clipPath id="SVGID_72_">
		<use xlink:href="#SVGID_71_"  overflow="visible"/>
	</clipPath>
	<rect x="39.517" y="715.699" clip-path="url(#SVGID_72_)" fill="#B1BAC5" width="385" height="59"/>
</g>
<g>
	<defs>
		<path id="SVGID_73_" d="M331.415,736.936c-1.101,0-1.994,0.895-1.994,1.994v12.012c0,1.102,0.895,1.994,1.994,1.994h12.012
			c1.102,0,1.995-0.895,1.995-1.994V738.93c0-1.102-0.895-1.994-1.995-1.994H331.415z"/>
	</defs>
	<clipPath id="SVGID_74_">
		<use xlink:href="#SVGID_73_"  overflow="visible"/>
	</clipPath>
	<path clip-path="url(#SVGID_74_)" fill="none" stroke="#FFFFFF" stroke-width="4" stroke-miterlimit="10" d="M331.415,736.936
		c-1.101,0-1.994,0.896-1.994,1.994v12.012c0,1.102,0.894,1.994,1.994,1.994h12.012c1.101,0,1.994-0.895,1.994-1.994V738.93
		c0-1.102-0.895-1.994-1.994-1.994H331.415z"/>
</g>
<g>
	<defs>
		<path id="SVGID_75_" d="M224.017,744.936c0,4.418,3.582,8,8,8s8-3.582,8-8s-3.582-8-8-8S224.017,740.518,224.017,744.936"/>
	</defs>
	<clipPath id="SVGID_76_">
		<use xlink:href="#SVGID_75_"  overflow="visible"/>
	</clipPath>
	
		<circle clip-path="url(#SVGID_76_)" fill="none" stroke="#FFFFFF" stroke-width="4" stroke-miterlimit="10" cx="232.017" cy="744.936" r="8"/>
</g>
<g>
	<defs>
		<path id="SVGID_77_" d="M132.919,736.168l-12.55,7.254c-0.956,0.553-0.954,1.445,0,1.998l12.55,7.254
			c0.956,0.553,1.728,0.105,1.728-0.998v-14.51c0-0.783-0.389-1.236-0.956-1.236C133.459,735.93,133.197,736.008,132.919,736.168"/>
	</defs>
	<clipPath id="SVGID_78_">
		<use xlink:href="#SVGID_77_"  overflow="visible"/>
	</clipPath>
	<path clip-path="url(#SVGID_78_)" fill="none" stroke="#FFFFFF" stroke-width="4" stroke-miterlimit="10" d="M132.919,736.168
		c0.954-0.553,1.728-0.107,1.728,0.998v14.51c0,1.104-0.772,1.551-1.728,0.998l-12.549-7.254c-0.955-0.551-0.956-1.445,0-1.998
		L132.919,736.168z"/>
</g>
<g>
	<defs>
		<rect id="SVGID_79_" x="23.517" y="17.437" width="422" height="849.999"/>
	</defs>
	<clipPath id="SVGID_80_">
		<use xlink:href="#SVGID_79_"  overflow="visible"/>
	</clipPath>
	<g clip-path="url(#SVGID_80_)">
		<path fill="#D6DFEA" d="M421.373,771.703H42.517V105.436h378.856V771.703z M44.517,769.703h374.856V107.436H44.517V769.703z"/>
	</g>
</g>
<g>
	<defs>
		<path id="SVGID_81_" d="M69.51,542.436c-5.518,0-9.993,4.477-9.993,10v99.999c0,5.516,4.475,10,9.993,10h324.014
			c5.518,0,9.993-4.477,9.993-10v-99.999c0-5.514-4.474-10-9.993-10H69.51z"/>
	</defs>
	<clipPath id="SVGID_82_">
		<use xlink:href="#SVGID_81_"  overflow="visible"/>
	</clipPath>
	<rect x="54.517" y="537.436" clip-path="url(#SVGID_82_)" fill="#D0DAE8" width="354" height="130"/>
</g>
<g>
	<defs>
		<path id="SVGID_83_" d="M64.525,672.504c-2.778,0-5.009,2.238-5.009,4.998v6.006c0,2.754,2.242,4.996,5.009,4.996h332.982
			c2.778,0,5.009-2.236,5.009-4.996v-6.006c0-2.756-2.242-4.998-5.009-4.998H64.525z"/>
	</defs>
	<clipPath id="SVGID_84_">
		<use xlink:href="#SVGID_83_"  overflow="visible"/>
	</clipPath>
	<rect x="54.517" y="667.504" clip-path="url(#SVGID_84_)" fill="#E0E7F0" width="353" height="26"/>
</g>
<g>
	<defs>
		<path id="SVGID_85_" d="M64.518,694.504c-2.768,0-5.001,2.238-5.001,4.996v6.008c0,2.754,2.239,4.996,5.001,4.996h232.998
			c2.768,0,5.001-2.238,5.001-4.996V699.5c0-2.754-2.239-4.996-5.001-4.996H64.518z"/>
	</defs>
	<clipPath id="SVGID_86_">
		<use xlink:href="#SVGID_85_"  overflow="visible"/>
	</clipPath>
	<rect x="54.517" y="689.504" clip-path="url(#SVGID_86_)" fill="#E0E7F0" width="253" height="26"/>
</g>
<g>
	<defs>
		<path id="SVGID_87_" d="M69.51,442.436c-5.518,0-9.993,4.479-9.993,10v60.002c0,5.514,4.475,9.998,9.993,9.998h324.014
			c5.518,0,9.993-4.477,9.993-9.998v-60.002c0-5.514-4.474-10-9.993-10H69.51z"/>
	</defs>
	<clipPath id="SVGID_88_">
		<use xlink:href="#SVGID_87_"  overflow="visible"/>
	</clipPath>
	<rect x="54.517" y="437.436" clip-path="url(#SVGID_88_)" fill="#F68A1F" width="354" height="130"/>
</g>
<path fill="#9CA3AE" d="M344.869,167.965c0.931,0,1.692-0.764,1.692-1.693h-3.384C343.177,167.202,343.93,167.965,344.869,167.965
	 M349.946,162.887v-4.23c0-2.598-1.388-4.771-3.808-5.348v-0.576c0-0.701-0.567-1.268-1.269-1.268c-0.702,0-1.269,0.566-1.269,1.268
	v0.576c-2.429,0.576-3.808,2.742-3.808,5.348v4.23l-1.692,1.691v0.848h13.538v-0.848L349.946,162.887z"/>
</svg>
