<?xml version="1.0" encoding="utf-8"?>
<!-- Generator: Adobe Illustrator 16.0.0, SVG Export Plug-In . SVG Version: 6.00 Build 0)  -->
<!DOCTYPE svg PUBLIC "-//W3C//DTD SVG 1.1//EN" "http://www.w3.org/Graphics/SVG/1.1/DTD/svg11.dtd">
<svg version="1.1" id="Layer_1" xmlns="http://www.w3.org/2000/svg" xmlns:xlink="http://www.w3.org/1999/xlink" x="0px" y="0px"
	 width="595.279px" height="629.944px" viewBox="0 105.552 595.279 629.944" enable-background="new 0 105.552 595.279 629.944"
	 xml:space="preserve">
<path fill="#FFFFFF" d="M509.828,647.056c56.647-59.528,85.451-135.378,85.451-226.591c0-91.212-28.804-167.063-87.371-226.59
	c-57.608-58.568-127.697-88.332-210.269-88.332c-86.411,0-157.461,30.724-213.148,91.212C27.844,257.243,0,332.133,0,420.465
	c0,92.173,28.804,168.022,86.411,226.591c57.608,58.567,127.697,88.332,211.229,88.332
	C382.131,736.348,452.221,706.584,509.828,647.056z"/>
<rect x="167.063" y="310.05" display="none" fill="#FFFFFF" width="257.314" height="257.315"/>
<path fill="#F68A1F" d="M477.184,612.491c48.007-50.887,72.01-114.256,72.01-192.026s-24.963-142.099-73.93-192.026
	c-48.007-49.926-107.534-74.89-177.624-74.89c-72.97,0-133.458,25.924-180.504,76.811c-47.047,50.887-71.05,115.216-71.05,190.105
	c0,77.771,24.003,142.1,72.97,192.026s108.495,74.89,178.584,74.89C368.69,688.341,429.178,663.378,477.184,612.491z"/>
<polygon fill="#FFFFFF" points="231.391,347.495 390.773,448.309 231.391,534.721 "/>
</svg>
