<?xml version="1.0" encoding="utf-8"?>
<!-- Generator: Adobe Illustrator 16.0.0, SVG Export Plug-In . SVG Version: 6.00 Build 0)  -->
<!DOCTYPE svg PUBLIC "-//W3C//DTD SVG 1.1//EN" "http://www.w3.org/Graphics/SVG/1.1/DTD/svg11.dtd">
<svg version="1.1" id="Layer_1" xmlns="http://www.w3.org/2000/svg" xmlns:xlink="http://www.w3.org/1999/xlink" x="0px" y="0px"
	 width="3706.991px" height="3405.372px" viewBox="4982.309 592.333 3706.991 3405.372"
	 enable-background="new 4982.309 592.333 3706.991 3405.372" xml:space="preserve">
<path fill="#E8B100" d="M7859.077,2324.378c0,508.798-412.464,921.261-921.259,921.261c-508.799,0-921.261-412.463-921.261-921.261
	c0-508.797,412.461-921.259,921.261-921.259C7446.613,1403.119,7859.077,1815.581,7859.077,2324.378z"/>
<g>
	<linearGradient id="SVGID_1_" gradientUnits="userSpaceOnUse" x1="9813.7246" y1="4006.4336" x2="3031.0039" y2="2001.6268">
		<stop  offset="0" style="stop-color:#FFFFFF"/>
		<stop  offset="1" style="stop-color:#000000"/>
	</linearGradient>
	<path fill="url(#SVGID_1_)" d="M7859.41,3306.654c-28.078-28.078-73.601-28.082-101.678-0.004l-56.27,56.27
		c-28.078,28.078-28.077,73.602,0.002,101.68l56.268,56.266c28.077,28.078,73.6,28.078,101.678,0l56.27-56.266
		c28.077-28.078,28.074-73.602-0.003-101.68L7859.41,3306.654z"/>
	<linearGradient id="SVGID_2_" gradientUnits="userSpaceOnUse" x1="9723.9492" y1="4310.1348" x2="2941.2588" y2="2305.3369">
		<stop  offset="0" style="stop-color:#FFFFFF"/>
		<stop  offset="1" style="stop-color:#000000"/>
	</linearGradient>
	<path fill="url(#SVGID_2_)" d="M5577.121,2962.297c-28.079-28.078-73.6-28.074-101.678,0.004l-56.268,56.27
		c-28.078,28.078-28.08,73.598-0.002,101.676l56.27,56.27c28.079,28.078,73.6,28.078,101.678,0l56.268-56.27
		c28.078-28.078,28.08-73.598,0.001-101.676L5577.121,2962.297z"/>
	<linearGradient id="SVGID_3_" gradientUnits="userSpaceOnUse" x1="9687.5859" y1="4433.2178" x2="2904.8691" y2="2428.4124">
		<stop  offset="0" style="stop-color:#FFFFFF"/>
		<stop  offset="1" style="stop-color:#000000"/>
	</linearGradient>
	<path fill="url(#SVGID_3_)" d="M6426.24,3347.109c-28.079-28.078-73.599-28.078-101.676,0l-56.27,56.27
		c-28.078,28.078-28.078,73.598,0,101.676l56.27,56.27c28.077,28.078,73.597,28.078,101.676,0l56.268-56.27
		c28.079-28.078,28.079-73.598,0-101.676L6426.24,3347.109z"/>
	<linearGradient id="SVGID_4_" gradientUnits="userSpaceOnUse" x1="9645.0684" y1="4577.0234" x2="2862.3477" y2="2572.2168">
		<stop  offset="0" style="stop-color:#FFFFFF"/>
		<stop  offset="1" style="stop-color:#000000"/>
	</linearGradient>
	<path fill="url(#SVGID_4_)" d="M7196.07,3731.023c-28.077-28.078-73.601-28.078-101.681,0l-56.267,56.27
		c-28.08,28.078-28.08,73.602,0,101.68l56.267,56.27c28.08,28.078,73.604,28.078,101.681,0l56.267-56.27
		c28.08-28.082,28.08-73.598,0-101.68L7196.07,3731.023z"/>
	<linearGradient id="SVGID_5_" gradientUnits="userSpaceOnUse" x1="9933.5371" y1="3601.1123" x2="3150.7944" y2="1596.2991">
		<stop  offset="0" style="stop-color:#FFFFFF"/>
		<stop  offset="1" style="stop-color:#000000"/>
	</linearGradient>
	<path fill="url(#SVGID_5_)" d="M5580.626,2192.363c-28.078-28.078-73.6-28.074-101.677,0.004l-56.268,56.266
		c-28.08,28.078-28.08,73.602-0.002,101.68l56.27,56.266c28.078,28.078,73.598,28.078,101.677,0l56.268-56.266
		c28.079-28.078,28.08-73.602,0.002-101.68L5580.626,2192.363z"/>
	<linearGradient id="SVGID_6_" gradientUnits="userSpaceOnUse" x1="10111.7422" y1="2998.1348" x2="3329.0215" y2="993.328">
		<stop  offset="0" style="stop-color:#FFFFFF"/>
		<stop  offset="1" style="stop-color:#000000"/>
	</linearGradient>
	<path fill="url(#SVGID_6_)" d="M5197.706,1423.531c-28.078-28.078-73.6-28.078-101.677,0l-56.27,56.27
		c-28.078,28.079-28.076,73.598,0.002,101.676l56.268,56.27c28.077,28.078,73.599,28.081,101.677,0.003l56.27-56.273
		c28.079-28.079,28.077-73.598-0.002-101.676L5197.706,1423.531z"/>
	<linearGradient id="SVGID_7_" gradientUnits="userSpaceOnUse" x1="9931.2324" y1="3608.873" x2="3148.5117" y2="1604.0663">
		<stop  offset="0" style="stop-color:#FFFFFF"/>
		<stop  offset="1" style="stop-color:#000000"/>
	</linearGradient>
	<path fill="url(#SVGID_7_)" d="M8649.295,3147.467l-56.268-56.27c-28.078-28.078-73.6-28.078-101.68,0l-56.268,56.27
		c-28.08,28.078-28.078,73.598,0,101.676l56.268,56.27c28.08,28.078,73.602,28.082,101.68,0.004l56.27-56.273
		C8677.375,3221.064,8677.373,3175.545,8649.295,3147.467z"/>
	<linearGradient id="SVGID_8_" gradientUnits="userSpaceOnUse" x1="9621.3965" y1="4657.1182" x2="2838.6772" y2="2652.312">
		<stop  offset="0" style="stop-color:#FFFFFF"/>
		<stop  offset="1" style="stop-color:#000000"/>
	</linearGradient>
	<path fill="url(#SVGID_8_)" d="M5893.566,3433.129c-28.078-28.078-73.6-28.078-101.678,0l-56.27,56.27
		c-28.078,28.078-28.077,73.598,0.002,101.676l56.268,56.27c28.078,28.078,73.6,28.082,101.678,0.004l56.27-56.273
		c28.078-28.078,28.075-73.598-0.002-101.676L5893.566,3433.129z"/>
	<linearGradient id="SVGID_9_" gradientUnits="userSpaceOnUse" x1="10173.1094" y1="2790.6143" x2="3390.3667" y2="785.801">
		<stop  offset="0" style="stop-color:#FFFFFF"/>
		<stop  offset="1" style="stop-color:#000000"/>
	</linearGradient>
	<path fill="url(#SVGID_9_)" d="M5964.542,1424.531c-28.078-28.078-73.598-28.078-101.677,0l-56.268,56.266
		c-28.078,28.079-28.08,73.602-0.002,101.68l56.27,56.27c28.078,28.078,73.6,28.074,101.677-0.004l56.268-56.266
		c28.08-28.079,28.08-73.602,0.002-101.68L5964.542,1424.531z"/>
	<linearGradient id="SVGID_10_" gradientUnits="userSpaceOnUse" x1="10412.748" y1="1979.8047" x2="3630.0313" y2="-25.0007">
		<stop  offset="0" style="stop-color:#FFFFFF"/>
		<stop  offset="1" style="stop-color:#000000"/>
	</linearGradient>
	<path fill="url(#SVGID_10_)" d="M6349.771,870.968l56.269-56.27c28.079-28.078,28.079-73.598,0-101.676l-56.269-56.269
		c-28.079-28.079-73.599-28.079-101.676,0l-56.269,56.269c-28.079,28.078-28.079,73.598,0,101.676l56.269,56.27
		C6276.172,899.047,6321.692,899.047,6349.771,870.968z"/>
	<linearGradient id="SVGID_11_" gradientUnits="userSpaceOnUse" x1="10474.8711" y1="1769.6626" x2="3692.1519" y2="-235.1436">
		<stop  offset="0" style="stop-color:#FFFFFF"/>
		<stop  offset="1" style="stop-color:#000000"/>
	</linearGradient>
	<path fill="url(#SVGID_11_)" d="M7119.287,869.915l56.267-56.267c28.079-28.078,28.079-73.601,0-101.68l-56.267-56.27
		c-28.079-28.078-73.602-28.078-101.681,0l-56.267,56.27c-28.08,28.079-28.078,73.602,0,101.68l56.267,56.267
		C7045.685,897.992,7091.207,897.992,7119.287,869.915z"/>
	<linearGradient id="SVGID_12_" gradientUnits="userSpaceOnUse" x1="10378.0566" y1="2097.2622" x2="3595.2896" y2="92.4418">
		<stop  offset="0" style="stop-color:#FFFFFF"/>
		<stop  offset="1" style="stop-color:#000000"/>
	</linearGradient>
	<path fill="url(#SVGID_12_)" d="M7732.556,1407.398l56.271-56.27c28.075-28.078,28.075-73.598,0-101.676l-56.271-56.27
		c-28.08-28.078-73.598-28.078-101.676,0l-56.271,56.27c-28.077,28.078-28.077,73.598,0,101.676l56.271,56.27
		C7658.958,1435.476,7704.476,1435.476,7732.556,1407.398z"/>
	<linearGradient id="SVGID_13_" gradientUnits="userSpaceOnUse" x1="10485.1973" y1="1734.6836" x2="3702.4805" y2="-270.1218">
		<stop  offset="0" style="stop-color:#FFFFFF"/>
		<stop  offset="1" style="stop-color:#000000"/>
	</linearGradient>
	<path fill="url(#SVGID_13_)" d="M8316.947,1215.938c28.078,28.078,73.598,28.078,101.678,0l56.268-56.27
		c28.076-28.078,28.08-73.598,0.002-101.676l-56.27-56.273c-28.078-28.078-73.6-28.075-101.678,0.004l-56.268,56.27
		c-28.08,28.078-28.08,73.598-0.002,101.676L8316.947,1215.938z"/>
	<linearGradient id="SVGID_14_" gradientUnits="userSpaceOnUse" x1="10314.1172" y1="2313.5156" x2="3531.3721" y2="308.7017">
		<stop  offset="0" style="stop-color:#FFFFFF"/>
		<stop  offset="1" style="stop-color:#000000"/>
	</linearGradient>
	<path fill="url(#SVGID_14_)" d="M8502.387,1870.094l56.27-56.267c28.078-28.081,28.078-73.601,0-101.679l-56.27-56.269
		c-28.076-28.079-73.598-28.083-101.678,0l-56.268,56.269c-28.078,28.079-28.078,73.602,0,101.679l56.268,56.267
		C8428.789,1898.171,8474.311,1898.171,8502.387,1870.094z"/>
	<linearGradient id="SVGID_15_" gradientUnits="userSpaceOnUse" x1="10045.6836" y1="3221.666" x2="3262.9644" y2="1216.8599">
		<stop  offset="0" style="stop-color:#FFFFFF"/>
		<stop  offset="1" style="stop-color:#000000"/>
	</linearGradient>
	<path fill="url(#SVGID_15_)" d="M8272.039,2575.289c-28.08-28.082-73.604-28.078-101.68,0l-56.268,56.266
		c-28.08,28.078-28.08,73.602,0,101.68l56.268,56.266c28.077,28.078,73.602,28.078,101.68,0l56.268-56.266
		c28.076-28.078,28.076-73.602,0-101.68L8272.039,2575.289z"/>
</g>
<g>
	<g>
		<path fill="#FFFFFF" d="M7519.591,1978.26l23.387-39.643l-19.097-74.232l-74.231,19.126l-23.406,39.624l52.334-13.485
			l-200.036,338.757c-11.262-10.087-26.05-16.423-42.346-16.423c-13.202,0-25.481,4.034-35.687,10.899l-107.471-129.731
			c9.42-11.144,15.297-25.316,15.297-40.994c0-35.266-28.654-63.931-63.93-63.931s-63.931,28.665-63.931,63.931
			c0,15.825,5.994,30.094,15.532,41.297l-162.195,279.763c-4.27-0.911-8.638-1.41-13.162-1.41c-13.201,0-25.481,4.034-35.706,10.899
			l-126.626-90.117c1.469-5.376,2.507-10.871,2.507-16.678c0-35.266-28.694-63.93-63.93-63.93c-35.256,0-63.931,28.664-63.931,63.93
			c0,8.745,1.782,17.08,4.956,24.669l-180.587,265.328c-5.152-1.342-10.538-2.312-16.159-2.312
			c-35.256,0-63.931,28.665-63.931,63.93c0,35.275,28.674,63.93,63.931,63.93c35.236,0,63.93-28.655,63.93-63.93
			c0-18.039-7.599-34.335-19.723-45.95l173.339-254.683c10.674,8.021,23.777,12.947,38.174,12.947
			c17.882,0,33.982-7.424,45.597-19.283l121.377,86.405c-4.445,8.677-7.148,18.353-7.148,28.772
			c0,35.275,28.675,63.931,63.93,63.931c35.275,0,63.931-28.655,63.931-63.931c0-19.224-8.735-36.333-22.23-48.036l159.884-275.767
			c6.934,2.565,14.337,4.152,22.172,4.152c7.99,0,15.532-1.616,22.622-4.338l112.29,135.577c-4.369,8.648-7.052,18.254-7.052,28.586
			c0,35.275,28.655,63.931,63.93,63.931s63.931-28.655,63.931-63.931c0-5.866-1.059-11.419-2.566-16.854l208.518-353.173
			L7519.591,1978.26z M6341.174,2679.494c-17.608,0-31.965-14.357-31.965-31.965c0-17.598,14.357-31.965,31.965-31.965
			s31.965,14.367,31.965,31.965C6373.139,2665.137,6358.782,2679.494,6341.174,2679.494z M6596.895,2327.878
			c-17.608,0-31.966-14.356-31.966-31.965c0-17.599,14.358-31.965,31.966-31.965s31.965,14.366,31.965,31.965
			C6628.86,2313.521,6614.503,2327.878,6596.895,2327.878z M6820.65,2487.703c-17.607,0-31.965-14.356-31.965-31.965
			c0-17.599,14.357-31.965,31.965-31.965c17.608,0,31.966,14.366,31.966,31.965
			C6852.616,2473.347,6838.258,2487.703,6820.65,2487.703z M7012.441,2072.158c0-17.599,14.356-31.966,31.965-31.966
			s31.965,14.367,31.965,31.966c0,17.607-14.356,31.965-31.965,31.965S7012.441,2089.766,7012.441,2072.158z M7236.196,2327.878
			c-17.607,0-31.965-14.356-31.965-31.965c0-17.599,14.357-31.965,31.965-31.965c17.608,0,31.966,14.366,31.966,31.965
			C7268.162,2313.521,7253.804,2327.878,7236.196,2327.878z"/>
	</g>
</g>
</svg>
