<?xml version="1.0" encoding="utf-8"?>
<!-- Generator: Adobe Illustrator 16.0.0, SVG Export Plug-In . SVG Version: 6.00 Build 0)  -->
<!DOCTYPE svg PUBLIC "-//W3C//DTD SVG 1.1//EN" "http://www.w3.org/Graphics/SVG/1.1/DTD/svg11.dtd">
<svg version="1.1" id="Layer_1" xmlns="http://www.w3.org/2000/svg" xmlns:xlink="http://www.w3.org/1999/xlink" x="0px" y="0px"
	 width="595.279px" height="612px" viewBox="0 39.445 595.279 612" enable-background="new 0 39.445 595.279 612"
	 xml:space="preserve">
<g>
	<path fill="#FFFFFF" d="M76.929,407.895c10.989,53.117,41.211,99.824,84.255,132.794c39.38,29.306,86.086,45.79,135.54,45.79l0,0
		c10.074,0,21.063-0.916,31.138-1.831c59.528-8.243,112.646-39.38,148.362-87.919l-10.989-8.242
		c-33.886,44.875-83.34,74.182-139.204,82.424c-10.074,1.831-20.148,1.831-30.222,1.831c-45.791,0-89.75-14.652-127.299-43.043
		c-41.212-31.138-68.687-75.097-79.676-125.467l30.222,19.232l7.327-11.906l-49.454-32.053l-32.054,49.454l11.905,7.327
		L76.929,407.895z"/>
	<path fill="#FFFFFF" d="M519.268,178.941l38.464,6.411l2.747-13.737l-64.106-10.99l-10.99,64.107l13.737,2.748l7.326-42.127
		c82.424,97.076,87.003,238.112,9.158,340.684c-90.665,119.972-262.839,144.699-382.811,54.033
		c-58.612-45.791-96.16-110.814-106.234-183.164c-1.832-13.737-2.748-27.474-2.748-40.296H10.074c0,14.653,0.915,28.39,2.747,43.043
		c10.074,75.097,50.37,143.783,111.729,190.489c51.285,39.381,112.646,57.697,172.173,57.697c87.003,0,173.09-39.381,229.87-114.478
		C607.186,426.211,603.523,280.596,519.268,178.941z"/>
	<path fill="#FFFFFF" d="M184.994,433.537l10.99,19.232l1.832-21.979c1.831-21.979,20.147-40.296,35.717-49.454
		c2.747,6.411,4.579,12.821,7.326,19.232l1.832,3.663h40.296l3.663,32.054h47.622l3.663-32.054h40.296l1.832-3.663
		c2.747-6.411,5.494-12.822,7.326-19.232c15.569,8.242,33.885,27.475,35.717,48.538l1.832,21.979l10.989-19.231
		c7.327-12.822,11.906-28.391,12.821-43.959c1.832-32.969-21.063-64.107-45.79-76.013c2.747-18.316,3.663-37.548,3.663-56.781
		c0-112.645-87.003-202.395-91.582-206.059l-4.579-4.579l-4.579,4.579c-3.663,3.664-91.581,93.414-91.581,206.059
		c0,19.232,0.916,38.464,3.663,56.781c-24.727,11.906-48.538,43.043-45.791,76.013C172.173,406.063,176.752,421.632,184.994,433.537
		z M298.556,423.464l-8.242-71.434c-0.916-4.579,0.916-8.242,3.663-11.905c2.747-3.664,7.326-5.495,10.99-5.495h10.073
		c4.579,0,8.242,1.832,10.99,5.495c2.747,3.663,4.579,7.326,3.663,11.905l-8.242,71.434H298.556z M435.012,388.663
		c-0.915,7.327-1.831,13.737-3.663,21.064c-8.242-19.232-25.643-33.885-39.38-41.212c3.663-12.821,6.41-26.559,9.158-40.296
		C417.612,338.292,436.844,362.104,435.012,388.663z M310.461,65.379c18.316,21.064,82.424,98.908,82.424,191.406
		c0,50.37-8.242,97.992-23.812,134.625h-30.222l4.579-38.464c0.916-8.243-1.832-16.485-7.327-22.896
		c-5.494-6.411-13.736-10.074-21.979-10.074h-10.073c-8.242,0-16.484,3.663-21.979,10.074s-8.242,14.653-7.327,22.896l4.579,38.464
		h-29.306c-15.569-36.633-23.812-84.255-23.812-134.625C228.038,164.288,292.145,86.443,310.461,65.379z M219.796,328.219
		c2.747,13.737,5.494,27.475,9.158,40.296c-14.653,7.327-31.138,21.979-40.296,41.212c-1.832-6.411-3.664-13.737-3.664-21.064
		C183.163,362.104,202.396,338.292,219.796,328.219z"/>
	<path fill="#FFFFFF" d="M310.461,253.122c21.979,0,40.296-18.316,40.296-40.296c0-21.98-18.316-40.296-40.296-40.296
		s-40.296,18.316-40.296,40.296C269.25,234.806,287.566,253.122,310.461,253.122z M310.461,185.352
		c14.653,0,26.559,11.905,26.559,26.559c0,14.653-11.905,26.559-26.559,26.559c-14.652,0-26.559-11.906-26.559-26.559
		C282.988,197.257,294.893,185.352,310.461,185.352z"/>
	<rect x="256.428" y="449.106" fill="#FFFFFF" width="13.737" height="49.454"/>
	<rect x="303.135" y="476.581" fill="#FFFFFF" width="13.737" height="47.622"/>
	<rect x="349.841" y="449.106" fill="#FFFFFF" width="13.737" height="49.454"/>
</g>
</svg>
