<?xml version="1.0" encoding="utf-8"?>
<!-- Generator: Adobe Illustrator 16.0.0, SVG Export Plug-In . SVG Version: 6.00 Build 0)  -->
<!DOCTYPE svg PUBLIC "-//W3C//DTD SVG 1.1//EN" "http://www.w3.org/Graphics/SVG/1.1/DTD/svg11.dtd">
<svg version="1.1" id="Layer_1" xmlns="http://www.w3.org/2000/svg" xmlns:xlink="http://www.w3.org/1999/xlink" x="0px" y="0px"
	 width="3689.262px" height="3407.318px" viewBox="5007.832 599.408 3689.262 3407.318"
	 enable-background="new 5007.832 599.408 3689.262 3407.318" xml:space="preserve">
<path fill="#F6891E" d="M7859.077,2324.378c0,508.798-412.464,921.261-921.259,921.261c-508.799,0-921.261-412.463-921.261-921.261
	c0-508.797,412.461-921.259,921.261-921.259C7446.613,1403.119,7859.077,1815.581,7859.077,2324.378z"/>
<g>
	<linearGradient id="SVGID_1_" gradientUnits="userSpaceOnUse" x1="4890.062" y1="5770.9004" x2="11026.8115" y2="815.9126">
		<stop  offset="0" style="stop-color:#FFFFFF"/>
		<stop  offset="1" style="stop-color:#000000"/>
	</linearGradient>
	<path fill="url(#SVGID_1_)" d="M7859.319,3307.382c-28.078-28.078-73.601-28.082-101.678-0.004l-56.27,56.27
		c-28.078,28.078-28.077,73.602,0.002,101.68l56.268,56.266c28.077,28.078,73.6,28.078,101.678,0l56.27-56.266
		c28.077-28.078,28.075-73.602-0.003-101.68L7859.319,3307.382z"/>
	<linearGradient id="SVGID_2_" gradientUnits="userSpaceOnUse" x1="3821.0366" y1="4446.9248" x2="9957.8027" y2="-508.0762">
		<stop  offset="0" style="stop-color:#FFFFFF"/>
		<stop  offset="1" style="stop-color:#000000"/>
	</linearGradient>
	<path fill="url(#SVGID_2_)" d="M5577.03,2963.023c-28.078-28.078-73.6-28.074-101.678,0.004l-56.267,56.27
		c-28.078,28.078-28.08,73.598-0.003,101.676l56.27,56.27c28.079,28.078,73.6,28.078,101.678,0l56.268-56.27
		c28.078-28.078,28.08-73.598,0.001-101.676L5577.03,2963.023z"/>
	<linearGradient id="SVGID_3_" gradientUnits="userSpaceOnUse" x1="4344.2383" y1="5094.8906" x2="10481.0195" y2="139.877">
		<stop  offset="0" style="stop-color:#FFFFFF"/>
		<stop  offset="1" style="stop-color:#000000"/>
	</linearGradient>
	<path fill="url(#SVGID_3_)" d="M6426.149,3347.836c-28.079-28.078-73.599-28.078-101.676,0l-56.27,56.27
		c-28.078,28.078-28.078,73.598,0,101.676l56.27,56.27c28.078,28.078,73.597,28.078,101.676,0l56.269-56.27
		c28.079-28.078,28.079-73.598,0-101.676L6426.149,3347.836z"/>
	<linearGradient id="SVGID_4_" gradientUnits="userSpaceOnUse" x1="4835.6982" y1="5703.5684" x2="10972.4746" y2="748.5591">
		<stop  offset="0" style="stop-color:#FFFFFF"/>
		<stop  offset="1" style="stop-color:#000000"/>
	</linearGradient>
	<path fill="url(#SVGID_4_)" d="M7195.979,3731.75c-28.077-28.078-73.601-28.078-101.681,0l-56.267,56.27
		c-28.079,28.078-28.079,73.602,0,101.68l56.267,56.27c28.08,28.078,73.604,28.078,101.681,0l56.267-56.27
		c28.08-28.082,28.08-73.598,0-101.68L7195.979,3731.75z"/>
	<linearGradient id="SVGID_5_" gradientUnits="userSpaceOnUse" x1="3446.1001" y1="3982.5547" x2="9582.8691" y2="-972.4492">
		<stop  offset="0" style="stop-color:#FFFFFF"/>
		<stop  offset="1" style="stop-color:#000000"/>
	</linearGradient>
	<path fill="url(#SVGID_5_)" d="M5580.535,2193.09c-28.078-28.078-73.6-28.074-101.677,0.004l-56.268,56.266
		c-28.08,28.078-28.08,73.602-0.002,101.68l56.27,56.266c28.077,28.078,73.597,28.078,101.677,0l56.268-56.266
		c28.079-28.078,28.08-73.602,0.002-101.68L5580.535,2193.09z"/>
	<linearGradient id="SVGID_6_" gradientUnits="userSpaceOnUse" x1="2919.1836" y1="3329.9893" x2="9055.9609" y2="-1625.0215">
		<stop  offset="0" style="stop-color:#FFFFFF"/>
		<stop  offset="1" style="stop-color:#000000"/>
	</linearGradient>
	<path fill="url(#SVGID_6_)" d="M5197.616,1424.258c-28.078-28.078-73.601-28.078-101.678,0l-56.27,56.27
		c-28.078,28.078-28.076,73.598,0.002,101.676l56.268,56.27c28.077,28.078,73.6,28.082,101.678,0.004l56.27-56.273
		c28.078-28.078,28.076-73.598-0.002-101.676L5197.616,1424.258z"/>
	<linearGradient id="SVGID_7_" gradientUnits="userSpaceOnUse" x1="5074.2588" y1="5999.0664" x2="11211.0527" y2="1044.043">
		<stop  offset="0" style="stop-color:#FFFFFF"/>
		<stop  offset="1" style="stop-color:#000000"/>
	</linearGradient>
	<path fill="url(#SVGID_7_)" d="M8649.203,3148.194l-56.268-56.27c-28.078-28.078-73.6-28.078-101.678,0l-56.27,56.27
		c-28.078,28.078-28.076,73.598,0.002,101.676l56.268,56.27c28.078,28.078,73.6,28.082,101.678,0.004l56.27-56.273
		C8677.283,3221.792,8677.281,3176.272,8649.203,3148.194z"/>
	<linearGradient id="SVGID_8_" gradientUnits="userSpaceOnUse" x1="4176.0542" y1="4886.6123" x2="10312.834" y2="-68.3999">
		<stop  offset="0" style="stop-color:#FFFFFF"/>
		<stop  offset="1" style="stop-color:#000000"/>
	</linearGradient>
	<path fill="url(#SVGID_8_)" d="M5893.476,3433.856c-28.078-28.078-73.6-28.078-101.678,0l-56.27,56.27
		c-28.078,28.078-28.077,73.598,0.002,101.676l56.268,56.27c28.078,28.078,73.6,28.082,101.678,0.004l56.27-56.273
		c28.078-28.078,28.076-73.598-0.002-101.676L5893.476,3433.856z"/>
	<linearGradient id="SVGID_9_" gradientUnits="userSpaceOnUse" x1="3222.3081" y1="3705.4004" x2="9359.082" y2="-1249.6074">
		<stop  offset="0" style="stop-color:#FFFFFF"/>
		<stop  offset="1" style="stop-color:#000000"/>
	</linearGradient>
	<path fill="url(#SVGID_9_)" d="M5964.452,1425.258c-28.078-28.078-73.598-28.078-101.678,0l-56.268,56.266
		c-28.078,28.078-28.08,73.602-0.002,101.68l56.27,56.27c28.078,28.078,73.6,28.074,101.678-0.004l56.267-56.266
		c28.08-28.078,28.08-73.602,0.002-101.68L5964.452,1425.258z"/>
	<linearGradient id="SVGID_10_" gradientUnits="userSpaceOnUse" x1="2999.0635" y1="3428.9229" x2="9135.8506" y2="-1526.0952">
		<stop  offset="0" style="stop-color:#FFFFFF"/>
		<stop  offset="1" style="stop-color:#000000"/>
	</linearGradient>
	<path fill="url(#SVGID_10_)" d="M6349.68,871.695l56.269-56.27c28.079-28.078,28.079-73.598,0-101.676l-56.269-56.269
		c-28.079-28.079-73.599-28.079-101.676,0l-56.27,56.269c-28.078,28.078-28.078,73.598,0,101.676l56.27,56.27
		C6276.082,899.773,6321.602,899.773,6349.68,871.695z"/>
	<linearGradient id="SVGID_11_" gradientUnits="userSpaceOnUse" x1="3302.2524" y1="3804.3926" x2="9439.0215" y2="-1150.6108">
		<stop  offset="0" style="stop-color:#FFFFFF"/>
		<stop  offset="1" style="stop-color:#000000"/>
	</linearGradient>
	<path fill="url(#SVGID_11_)" d="M7119.196,870.641l56.267-56.266c28.079-28.078,28.079-73.602,0-101.68l-56.267-56.27
		c-28.079-28.078-73.602-28.078-101.681,0l-56.267,56.27c-28.08,28.078-28.079,73.602,0,101.68l56.267,56.266
		C7045.594,898.719,7091.116,898.719,7119.196,870.641z"/>
	<linearGradient id="SVGID_12_" gradientUnits="userSpaceOnUse" x1="3806.9731" y1="4429.5244" x2="9943.7578" y2="-525.4922">
		<stop  offset="0" style="stop-color:#FFFFFF"/>
		<stop  offset="1" style="stop-color:#000000"/>
	</linearGradient>
	<path fill="url(#SVGID_12_)" d="M7732.465,1408.125l56.271-56.27c28.076-28.078,28.076-73.598,0-101.676l-56.271-56.27
		c-28.079-28.078-73.598-28.078-101.676,0l-56.271,56.27c-28.076,28.078-28.076,73.598,0,101.676l56.271,56.27
		C7658.868,1436.203,7704.386,1436.203,7732.465,1408.125z"/>
	<linearGradient id="SVGID_13_" gradientUnits="userSpaceOnUse" x1="3984.1621" y1="4648.9473" x2="10120.9365" y2="-306.0605">
		<stop  offset="0" style="stop-color:#FFFFFF"/>
		<stop  offset="1" style="stop-color:#000000"/>
	</linearGradient>
	<path fill="url(#SVGID_13_)" d="M8316.855,1216.665c28.078,28.078,73.598,28.078,101.678,0l56.268-56.27
		c28.078-28.078,28.08-73.598,0.002-101.676l-56.27-56.273c-28.078-28.078-73.6-28.074-101.678,0.004l-56.268,56.27
		c-28.08,28.078-28.08,73.598-0.002,101.676L8316.855,1216.665z"/>
	<linearGradient id="SVGID_14_" gradientUnits="userSpaceOnUse" x1="4336.9556" y1="5085.8789" x2="10473.7305" y2="130.8706">
		<stop  offset="0" style="stop-color:#FFFFFF"/>
		<stop  offset="1" style="stop-color:#000000"/>
	</linearGradient>
	<path fill="url(#SVGID_14_)" d="M8502.297,1870.82l56.268-56.266c28.08-28.082,28.08-73.602,0-101.68l-56.268-56.27
		c-28.078-28.078-73.6-28.082-101.68,0l-56.268,56.27c-28.078,28.078-28.078,73.602,0,101.68l56.268,56.266
		C8428.697,1898.898,8474.219,1898.898,8502.297,1870.82z"/>
	<linearGradient id="SVGID_15_" gradientUnits="userSpaceOnUse" x1="4695.4229" y1="5529.8604" x2="10832.2051" y2="574.8467">
		<stop  offset="0" style="stop-color:#FFFFFF"/>
		<stop  offset="1" style="stop-color:#000000"/>
	</linearGradient>
	<path fill="url(#SVGID_15_)" d="M8271.947,2576.016c-28.08-28.082-73.602-28.078-101.68,0L8114,2632.281
		c-28.079,28.078-28.08,73.602,0,101.68l56.267,56.266c28.079,28.078,73.602,28.078,101.68,0l56.268-56.266
		c28.078-28.078,28.078-73.602,0-101.68L8271.947,2576.016z"/>
</g>
<path fill="#FFFFFF" d="M7071.142,2064.269h137.547l52.767-79.152h-516.769l-52.766,79.152h89.705
	c90.759,0,174.838,7.035,208.256,83.021h-245.195l-52.766,79.152h307.814v0.352c0,56.987-47.496,144.231-203.684,144.231h-75.633
	v73.876l302.883,378.517h134.734l-313.09-391.184c129.104-7.035,250.121-79.15,267.358-205.792h96.384l52.767-79.152h-150.558
	C7104.914,2116.684,7091.9,2087.134,7071.142,2064.269"/>
</svg>
